# This file uses centimeters as units for non-parametric coordinates.

mtllib Rayo lento.mtl
g default
v -0.282573 2.594795 -0.252540
v -1.218963 2.594795 -0.252540
v -0.058725 3.724900 -0.252540
v -2.153904 3.705976 -0.252540
v -0.058725 3.724900 0.252540
v -2.153903 3.705976 0.252540
v -0.282573 2.594795 0.252540
v -1.218963 2.594795 0.252540
v -1.218963 3.724900 -0.252540
v -1.218963 3.724900 0.252540
v -0.491719 1.521662 0.252540
v -1.052274 1.651989 0.252540
v -1.052274 1.651989 -0.252540
v -0.491718 1.521662 -0.252540
v -2.130067 2.776004 0.252540
v -2.130067 2.776004 -0.252540
v -2.032411 1.651989 -0.252540
v -2.032411 1.651989 0.252540
v -0.433607 0.080243 0.252540
v -0.433607 0.080243 -0.252540
v 0.465828 2.733657 -0.057726
v 0.475480 2.745161 0.236894
v 0.473540 2.984429 -0.067771
v 0.483191 2.995933 0.226849
v 0.488662 3.476120 -0.087466
v 0.498313 3.487625 0.207155
v 0.872954 3.094141 -0.085139
v 0.882605 3.105645 0.209481
v 1.279962 3.450785 -0.112399
v 1.289613 3.462291 0.182221
v 1.264841 2.959095 -0.092704
v 1.274493 2.970600 0.201916
v 1.257129 2.708324 -0.082659
v 1.266780 2.719827 0.211961
v 0.846092 2.220670 -0.050153
v 0.855743 2.232174 0.244467
v 0.878842 2.983266 0.214383
v 0.869191 2.971762 -0.080238
v 0.414302 1.058208 -0.057726
v 0.423953 1.069712 0.236894
v 0.422014 1.308980 -0.067771
v 0.431666 1.320484 0.226849
v 0.437135 1.800672 -0.087466
v 0.446787 1.812176 0.207155
v 0.821428 1.418693 -0.085139
v 0.831079 1.430197 0.209481
v 1.228436 1.775338 -0.112399
v 1.238087 1.786842 0.182221
v 1.213315 1.283646 -0.092704
v 1.222966 1.295150 0.201916
v 1.205602 1.032874 -0.082659
v 1.215254 1.044377 0.211961
v 0.794566 0.545221 -0.050153
v 0.804218 0.556726 0.244467
v 0.827316 1.307817 0.214383
v 0.817665 1.296313 -0.080238
vt 0.546205 0.952742
vt 0.545878 0.890865
vt 0.723784 0.889923
vt 0.724112 0.951800
vt 0.067103 0.644125
vt 0.130059 0.652193
vt 0.096590 0.797426
vt 0.035398 0.784816
vt 0.085459 0.515042
vt 0.152566 0.513236
vt 0.432072 0.891467
vt 0.432400 0.953344
vt 0.294178 0.954075
vt 0.293851 0.892198
vt 0.019512 0.955527
vt 0.019185 0.893650
vt 0.142001 0.438429
vt 0.076884 0.444029
vt 0.075446 0.224214
vt 0.138621 0.227608
vt 0.980815 0.950438
vt 0.838675 0.951192
vt 0.838347 0.889315
vt 0.980487 0.888561
vt 0.247764 0.659533
vt 0.238585 0.803090
vt 0.229880 0.531135
vt 0.357756 0.811169
vt 0.352860 0.550170
vt 0.365466 0.685782
vt 0.196906 0.323290
vt 0.717477 0.823305
vt 0.569664 0.822661
vt 0.570292 0.678687
vt 0.689587 0.679208
vt 0.450565 0.819731
vt 0.592052 0.558668
vt 0.663538 0.542376
vt 0.454118 0.701267
vt 0.467184 0.558124
vt 0.671742 0.358774
vt 0.123662 0.127820
vt 0.123260 0.088215
vt 0.156970 0.087873
vt 0.157372 0.127478
vt 0.223066 0.087202
vt 0.223468 0.126808
vt 0.912191 0.121955
vt 0.912507 0.165914
vt 0.853492 0.166340
vt 0.853175 0.122381
vt 0.794476 0.166765
vt 0.794159 0.122806
vt 0.486345 0.132788
vt 0.485944 0.093182
vt 0.552039 0.092512
vt 0.552441 0.132117
vt 0.585749 0.092170
vt 0.586151 0.131775
vt 0.653005 0.091488
vt 0.653407 0.131093
vt 0.056406 0.128502
vt 0.056005 0.088897
vt 0.366967 0.214998
vt 0.417423 0.278820
vt 0.417423 0.310809
vt 0.366967 0.310809
vt 0.316510 0.278820
vt 0.316510 0.310809
vt 0.417423 0.373530
vt 0.366967 0.326420
vt 0.316510 0.373530
vt 0.856931 0.388305
vt 0.907387 0.324483
vt 0.907387 0.420294
vt 0.856931 0.420294
vt 0.957844 0.388305
vt 0.957844 0.420294
vt 0.907387 0.435905
vt 0.856931 0.483015
vt 0.957844 0.483015
vt 0.837788 0.066054
vt 0.837386 0.026448
vt 0.871096 0.026106
vt 0.871498 0.065712
vt 0.937192 0.025436
vt 0.937594 0.065041
vt 0.429619 0.086976
vt 0.429936 0.130935
vt 0.370921 0.131361
vt 0.370604 0.087402
vt 0.311905 0.131786
vt 0.311588 0.087827
vt 0.776741 0.250931
vt 0.776339 0.211325
vt 0.842435 0.210655
vt 0.842836 0.250260
vt 0.876145 0.210313
vt 0.876547 0.249918
vt 0.943400 0.209631
vt 0.943802 0.249236
vt 0.770532 0.066736
vt 0.770131 0.027131
vt 0.893956 0.628317
vt 0.944413 0.692139
vt 0.944413 0.724128
vt 0.893956 0.724128
vt 0.843500 0.692139
vt 0.843500 0.724128
vt 0.944413 0.786849
vt 0.893956 0.739739
vt 0.843500 0.786849
vt 0.523746 0.261229
vt 0.574203 0.197408
vt 0.574203 0.293218
vt 0.523746 0.293218
vt 0.624659 0.261229
vt 0.624659 0.293218
vt 0.574203 0.308829
vt 0.523746 0.355939
vt 0.624659 0.355939
vn -0.000000 -0.000000 -1.000000
vn -0.000000 -0.000000 -1.000000
vn -0.000000 -0.000000 -1.000000
vn -0.000000 -0.000000 -1.000000
vn 0.000000 1.000000 0.000000
vn -0.009031 0.999959 -0.000000
vn -0.009031 0.999959 -0.000000
vn 0.000000 1.000000 0.000000
vn -0.000000 0.000000 1.000000
vn -0.000000 0.000000 1.000000
vn -0.000000 0.000000 1.000000
vn -0.000000 0.000000 1.000000
vn -0.226457 -0.974021 0.000000
vn -0.226458 -0.974021 0.000000
vn -0.226458 -0.974021 0.000000
vn -0.226458 -0.974021 0.000000
vn -0.765179 -0.643817 0.000000
vn -0.765179 -0.643817 0.000000
vn -0.765179 -0.643817 0.000000
vn -0.765179 -0.643817 0.000000
vn 0.980942 -0.194302 -0.000000
vn 0.980942 -0.194302 -0.000000
vn 0.980942 -0.194302 -0.000000
vn 0.980942 -0.194302 -0.000000
vn -0.000000 0.000000 -1.000000
vn -0.020236 0.999795 -0.000001
vn -0.020236 0.999795 -0.000001
vn -0.000000 0.000000 1.000000
vn 0.000000 -0.000000 1.000000
vn 0.000000 -0.000000 1.000000
vn 0.000000 -0.000000 1.000000
vn 0.000000 -0.000000 1.000000
vn -0.996247 -0.086556 -0.000000
vn -0.996247 -0.086556 -0.000000
vn -0.996247 -0.086556 -0.000000
vn -0.996247 -0.086556 -0.000000
vn 0.000000 0.000000 -1.000000
vn 0.000000 0.000000 -1.000000
vn 0.000000 0.000000 -1.000000
vn 0.000000 0.000000 -1.000000
vn 0.981533 -0.191293 -0.000000
vn 0.981533 -0.191293 -0.000000
vn 0.981533 -0.191293 -0.000000
vn 0.981533 -0.191293 -0.000000
vn 0.195068 0.980790 0.000000
vn 0.195068 0.980790 0.000000
vn 0.195068 0.980790 0.000000
vn 0.195068 0.980790 0.000000
vn -0.000000 -0.000000 -1.000000
vn -0.000000 -0.000000 -1.000000
vn -0.000000 -0.000000 -1.000000
vn -0.000000 -0.000000 -1.000000
vn -0.000000 0.000000 1.000000
vn -0.000000 0.000000 1.000000
vn -0.000000 0.000000 1.000000
vn -0.000000 0.000000 1.000000
vn 0.930511 0.366265 0.000000
vn 0.930511 0.366265 0.000000
vn 0.930510 0.366265 0.000000
vn 0.930511 0.366265 0.000000
vn 0.000000 -0.000000 1.000000
vn 0.000000 -0.000000 1.000000
vn 0.000000 -0.000000 1.000000
vn -0.701047 -0.713115 -0.000001
vn -0.701047 -0.713115 -0.000001
vn -0.701047 -0.713115 -0.000001
vn -0.701047 -0.713115 -0.000001
vn -0.000000 -0.000000 -1.000000
vn -0.000000 -0.000000 -1.000000
vn -0.000000 -0.000000 -1.000000
vn -0.998993 0.031984 0.031477
vn -0.998993 0.031984 0.031477
vn -0.998993 0.031984 0.031476
vn -0.998993 0.031984 0.031476
vn -0.998993 0.031984 0.031476
vn -0.998993 0.031984 0.031476
vn 0.704217 0.708171 -0.050724
vn 0.704217 0.708171 -0.050724
vn 0.030715 0.998727 -0.040007
vn 0.030715 0.998727 -0.040007
vn -0.659316 0.751826 -0.007761
vn -0.659316 0.751826 -0.007761
vn 0.998993 -0.031982 -0.031478
vn 0.998993 -0.031982 -0.031478
vn 0.998993 -0.031983 -0.031478
vn 0.998993 -0.031983 -0.031478
vn 0.998993 -0.031983 -0.031478
vn 0.998993 -0.031983 -0.031478
vn 0.764620 -0.644482 0.000116
vn 0.764620 -0.644482 0.000116
vn -0.030714 -0.998727 0.040003
vn -0.030714 -0.998727 0.040003
vn -0.802717 -0.594302 0.049503
vn -0.802717 -0.594302 0.049503
vn 0.032717 0.038997 0.998704
vn 0.032717 0.038997 0.998704
vn 0.032717 0.038997 0.998704
vn 0.032717 0.038997 0.998704
vn 0.032717 0.038997 0.998704
vn 0.032717 0.038997 0.998704
vn 0.032716 0.038997 0.998704
vn 0.032717 0.038997 0.998704
vn 0.032717 0.038997 0.998704
vn -0.032716 -0.038997 -0.998704
vn -0.032717 -0.038997 -0.998704
vn -0.032717 -0.038997 -0.998704
vn -0.032717 -0.038997 -0.998704
vn -0.032717 -0.038997 -0.998704
vn -0.032717 -0.038997 -0.998704
vn -0.032717 -0.038997 -0.998704
vn -0.032717 -0.038997 -0.998704
vn -0.032717 -0.038997 -0.998704
vn -0.998993 0.031983 0.031477
vn -0.998993 0.031983 0.031477
vn -0.998993 0.031983 0.031477
vn -0.998993 0.031983 0.031477
vn -0.998993 0.031984 0.031478
vn -0.998993 0.031984 0.031478
vn 0.704215 0.708172 -0.050721
vn 0.704215 0.708172 -0.050721
vn 0.030715 0.998727 -0.040004
vn 0.030714 0.998727 -0.040004
vn -0.659315 0.751827 -0.007759
vn -0.659315 0.751827 -0.007759
vn 0.998993 -0.031984 -0.031476
vn 0.998993 -0.031984 -0.031476
vn 0.998993 -0.031983 -0.031476
vn 0.998993 -0.031983 -0.031476
vn 0.998993 -0.031983 -0.031477
vn 0.998993 -0.031983 -0.031477
vn 0.764620 -0.644481 0.000117
vn 0.764620 -0.644481 0.000117
vn -0.030715 -0.998727 0.040004
vn -0.030716 -0.998727 0.040004
vn -0.802717 -0.594302 0.049503
vn -0.802717 -0.594302 0.049503
vn 0.032717 0.038997 0.998704
vn 0.032717 0.038997 0.998704
vn 0.032717 0.038997 0.998704
vn 0.032717 0.038997 0.998704
vn 0.032717 0.038997 0.998704
vn 0.032717 0.038997 0.998704
vn 0.032717 0.038997 0.998704
vn 0.032717 0.038997 0.998704
vn 0.032717 0.038997 0.998704
vn -0.032717 -0.038997 -0.998704
vn -0.032717 -0.038997 -0.998704
vn -0.032717 -0.038997 -0.998704
vn -0.032717 -0.038997 -0.998704
vn -0.032717 -0.038997 -0.998704
vn -0.032717 -0.038997 -0.998704
vn -0.032717 -0.038997 -0.998704
vn -0.032717 -0.038997 -0.998704
vn -0.032717 -0.038997 -0.998704
s 1
g pCube6
usemtl initialShadingGroup
f 1/6/1 2/25/2 9/26/3 3/7/4
s 2
f 3/21/5 9/22/6 10/23/7 5/24/8
s 3
f 5/32/9 10/33/10 8/34/11 7/35/12
s off
f 11/9/13 12/18/14 13/17/15 14/10/16
f 2/1/17 8/2/18 6/3/19 4/4/20
f 7/5/21 1/6/22 3/7/23 5/8/24
s 1
f 9/26/3 2/25/2 4/28/25
s 2
f 10/23/7 9/22/6 4/4/26 6/3/27
s 3
f 8/34/11 10/33/10 6/36/28
s off
f 7/35/29 8/34/30 12/37/31 11/38/32
f 15/11/33 16/12/34 17/13/35 18/14/36
f 2/25/37 1/6/38 14/10/39 13/27/40
f 1/6/41 7/5/42 11/9/43 14/10/44
f 8/2/45 2/1/46 16/12/47 15/11/48
f 2/25/49 13/27/50 17/29/51 16/30/52
f 12/37/53 8/34/54 15/39/55 18/40/56
f 13/17/57 12/18/58 19/19/59 20/20/60
f 12/37/61 18/40/62 19/41/63
f 18/14/64 17/13/65 20/15/66 19/16/67
f 17/29/68 13/27/69 20/31/70
s 4
f 21/42/71 22/43/72 24/44/73 23/45/74
f 23/45/74 24/44/73 26/46/75 25/47/76
s 5
f 25/48/77 26/49/78 28/50/79 27/51/80
f 27/51/80 28/50/79 30/52/81 29/53/82
s 6
f 29/54/83 30/55/84 32/56/85 31/57/86
f 31/57/86 32/56/85 34/58/87 33/59/88
s 7
f 33/59/89 34/58/90 36/60/91 35/61/92
f 35/62/92 36/63/91 22/43/93 21/42/94
s 8
f 36/64/95 34/65/96 32/66/97 37/67/98
f 22/68/99 36/64/95 37/67/98 24/69/100
f 37/67/98 32/66/97 30/70/101 28/71/102
f 24/69/100 37/67/98 28/71/102 26/72/103
s 9
f 33/73/104 35/74/105 38/75/106 31/76/107
f 35/74/105 21/77/108 23/78/109 38/75/106
f 31/76/107 38/75/106 27/79/110 29/80/111
f 38/75/106 23/78/109 25/81/112 27/79/110
s 10
f 39/82/113 40/83/114 42/84/115 41/85/116
f 41/85/116 42/84/115 44/86/117 43/87/118
s 11
f 43/88/119 44/89/120 46/90/121 45/91/122
f 45/91/122 46/90/121 48/92/123 47/93/124
s 12
f 47/94/125 48/95/126 50/96/127 49/97/128
f 49/97/128 50/96/127 52/98/129 51/99/130
s 13
f 51/99/131 52/98/132 54/100/133 53/101/134
f 53/102/134 54/103/133 40/83/135 39/82/136
s 14
f 54/104/137 52/105/138 50/106/139 55/107/140
f 40/108/141 54/104/137 55/107/140 42/109/142
f 55/107/140 50/106/139 48/110/143 46/111/144
f 42/109/142 55/107/140 46/111/144 44/112/145
s 15
f 51/113/146 53/114/147 56/115/148 49/116/149
f 53/114/147 39/117/150 41/118/151 56/115/148
f 49/116/149 56/115/148 45/119/152 47/120/153
f 56/115/148 41/118/151 43/121/154 45/119/152
