# This file uses meters as units for non-parametric coordinates.

mtllib Cerca_2.mtl
g default
v 1034.310059 -8.085995 -444.148926
v 1049.794434 -8.085995 -444.148926
v 1034.310059 87.832275 -444.148926
v 1049.794434 87.832275 -444.148926
v 1034.310059 87.832275 -449.041809
v 1049.794434 87.832275 -449.041809
v 1034.310059 -8.085995 -449.041809
v 1049.794434 -8.085995 -449.041809
v 1034.650269 33.106647 -444.148926
v 1037.007690 48.410652 -444.148926
v 840.390137 63.028973 -444.148926
v 842.747559 78.332970 -444.148926
v 840.390137 63.028973 -449.041809
v 842.747559 78.332970 -449.041809
v 1034.650269 33.106647 -449.041809
v 1037.007690 48.410652 -449.041809
v 827.638916 -8.085995 -444.148926
v 843.123413 -8.085995 -444.148926
v 827.638916 87.832275 -444.148926
v 843.123413 87.832275 -444.148926
v 827.638916 87.832275 -449.041809
v 843.123413 87.832275 -449.041809
v 827.638916 -8.085995 -449.041809
v 843.123413 -8.085995 -449.041809
v 1035.139282 6.004698 -444.148926
v 1037.148315 21.358311 -444.148926
v 840.249512 31.505856 -444.148926
v 842.258545 46.859459 -444.148926
v 840.249512 31.505856 -449.041809
v 842.258545 46.859459 -449.041809
v 1035.139282 6.004698 -449.041809
v 1037.148315 21.358311 -449.041809
vt 0.744698 0.806214
vt 0.712873 0.806214
vt 0.712873 0.182315
vt 0.744698 0.182315
vt 0.612154 0.806214
vt 0.580329 0.806214
vt 0.580329 0.182315
vt 0.612154 0.182315
vt 0.580329 0.081596
vt 0.612154 0.081596
vt 0.479610 0.806214
vt 0.479610 0.182315
vt 0.118612 0.011595
vt 0.195566 0.011594
vt 0.195566 0.988406
vt 0.118612 0.988406
vt 0.081426 0.988406
vt 0.004472 0.988405
vt 0.004472 0.011594
vt 0.081426 0.011595
vt 0.232751 0.011594
vt 0.232751 0.988406
vt 0.847043 0.750143
vt 0.756139 0.750143
vt 0.756139 0.187042
vt 0.847043 0.187042
vt 0.847043 0.096138
vt 0.875767 0.096138
vt 0.875767 0.187042
vt 0.966671 0.187042
vt 0.966671 0.750143
vt 0.875767 0.750143
vt 0.995395 0.750143
vt 0.995395 0.187042
vt 0.357641 0.007730
vt 0.435204 0.007729
vt 0.435204 0.992270
vt 0.357641 0.992271
vt 0.320161 0.992271
vt 0.242598 0.992270
vt 0.242598 0.007729
vt 0.320161 0.007730
vt 0.472684 0.007729
vt 0.472684 0.992270
vn 0.000000 0.000000 1.000000
vn 0.000000 0.000000 1.000000
vn 0.000000 0.000000 1.000000
vn 0.000000 0.000000 1.000000
vn 0.000000 1.000000 0.000000
vn 0.000000 1.000000 0.000000
vn 0.000000 1.000000 0.000000
vn 0.000000 1.000000 0.000000
vn 0.000000 0.000000 -1.000000
vn 0.000000 0.000000 -1.000000
vn 0.000000 0.000000 -1.000000
vn 0.000000 0.000000 -1.000000
vn 1.000000 0.000000 0.000000
vn 1.000000 0.000000 0.000000
vn 1.000000 0.000000 0.000000
vn 1.000000 0.000000 0.000000
vn -1.000000 0.000000 0.000000
vn -1.000000 0.000000 0.000000
vn -1.000000 0.000000 0.000000
vn -1.000000 0.000000 0.000000
vn 0.000000 0.000000 1.000000
vn 0.000000 0.000000 1.000000
vn 0.000000 0.000000 1.000000
vn 0.000000 0.000000 1.000000
vn -0.000000 0.000000 -1.000000
vn -0.000000 0.000000 -1.000000
vn -0.000000 0.000000 -1.000000
vn -0.000000 0.000000 -1.000000
vn 0.152238 0.988344 0.000000
vn 0.152238 0.988344 0.000000
vn 0.152238 0.988344 0.000000
vn 0.152238 0.988344 0.000000
vn -0.152237 -0.988344 0.000000
vn -0.152237 -0.988344 0.000000
vn -0.152237 -0.988344 0.000000
vn -0.152237 -0.988344 0.000000
vn 0.000000 0.000000 1.000000
vn 0.000000 0.000000 1.000000
vn 0.000000 0.000000 1.000000
vn 0.000000 0.000000 1.000000
vn 0.000000 1.000000 0.000000
vn 0.000000 1.000000 0.000000
vn 0.000000 1.000000 0.000000
vn 0.000000 1.000000 0.000000
vn 0.000000 0.000000 -1.000000
vn 0.000000 0.000000 -1.000000
vn 0.000000 0.000000 -1.000000
vn 0.000000 0.000000 -1.000000
vn 1.000000 0.000000 0.000000
vn 1.000000 0.000000 0.000000
vn 1.000000 0.000000 0.000000
vn 1.000000 0.000000 0.000000
vn -1.000000 0.000000 0.000000
vn -1.000000 0.000000 0.000000
vn -1.000000 0.000000 0.000000
vn -1.000000 0.000000 0.000000
vn -0.000000 0.000000 1.000000
vn -0.000000 0.000000 1.000000
vn -0.000000 0.000000 1.000000
vn -0.000000 0.000000 1.000000
vn 0.000000 0.000000 -1.000000
vn 0.000000 0.000000 -1.000000
vn 0.000000 0.000000 -1.000000
vn 0.000000 0.000000 -1.000000
vn 0.129743 0.991548 0.000000
vn 0.129743 0.991548 0.000000
vn 0.129743 0.991548 0.000000
vn 0.129743 0.991548 0.000000
vn -0.129743 -0.991548 0.000000
vn -0.129743 -0.991548 0.000000
vn -0.129743 -0.991548 0.000000
vn -0.129743 -0.991548 0.000000
s off
g cerca_2
usemtl initialShadingGroup
f 1/6/1 2/11/2 4/12/3 3/7/4
f 3/7/5 4/9/6 6/10/7 5/8/8
f 5/8/9 6/3/10 8/2/11 7/5/12
f 2/1/13 8/2/14 6/3/15 4/4/16
f 7/5/17 1/6/18 3/7/19 5/8/20
f 9/13/21 10/14/22 12/15/23 11/16/24
f 13/17/25 14/18/26 16/19/27 15/20/28
f 10/14/29 16/21/30 14/22/31 12/15/32
f 15/20/33 9/13/34 11/16/35 13/17/36
f 17/23/37 18/24/38 20/25/39 19/26/40
f 19/26/41 20/27/42 22/28/43 21/29/44
f 21/29/45 22/30/46 24/31/47 23/32/48
f 18/33/49 24/31/50 22/30/51 20/34/52
f 23/32/53 17/23/54 19/26/55 21/29/56
f 25/35/57 26/36/58 28/37/59 27/38/60
f 29/39/61 30/40/62 32/41/63 31/42/64
f 26/36/65 32/43/66 30/44/67 28/37/68
f 31/42/69 25/35/70 27/38/71 29/39/72
