# This file uses centimeters as units for non-parametric coordinates.

mtllib Nube_5.mtl
g default
v -2.596860 0.445109 8.974265
v 2.656555 0.445109 8.974265
v -2.905410 4.181561 11.159315
v 3.134637 4.181561 11.159315
v -2.066251 1.898223 -15.065343
v 2.066251 1.898223 -15.065343
v -2.066251 0.486211 -14.114108
v 2.066251 0.486211 -14.114109
v -3.124171 2.728559 -11.784374
v -2.789439 0.295051 -8.015121
v 2.789439 0.295051 -8.015121
v 3.124171 2.728559 -11.784374
v -3.124171 5.431053 -5.559945
v -2.789439 0.630700 -4.065713
v 2.789439 0.630700 -4.065713
v 3.124171 5.431053 -5.559945
v -1.595542 4.543706 2.633407
v -2.580508 0.522379 1.485849
v 2.998370 0.522379 1.485849
v 4.575494 4.543706 2.633407
v -2.759591 0.663176 -2.627426
v -2.970904 5.625023 -3.779493
v 3.200131 5.625023 -3.779493
v 2.819286 0.663175 -2.627426
v -1.634196 4.345367 4.274951
v -2.580508 0.498913 3.164024
v 2.998370 0.498913 3.164023
v 4.614148 4.345367 4.274951
v -2.013189 6.228383 9.795512
v 2.119313 6.228383 9.795513
v 2.437684 6.228384 5.546852
v -1.694818 6.228384 5.546851
v 2.066251 6.639420 -7.079010
v -2.066251 6.639420 -7.079010
v 2.066251 5.234431 -11.087350
v -2.066251 5.234431 -11.087350
v 2.187150 7.322331 1.344240
v -1.444285 7.322331 1.344240
v 1.868780 7.572637 -2.475051
v -1.762656 7.572636 -2.475051
v -1.391220 0.403677 15.612356
v 1.391220 0.403677 15.612355
v 1.391220 2.131850 16.158773
v -1.391220 2.131850 16.158772
v -3.599862 2.888483 -3.039031
v -2.789439 5.278054 -4.633971
v 2.789439 0.686641 -3.446815
v -0.000000 -0.078594 -2.490225
v 3.838640 2.888483 -3.039031
v 2.789439 5.278054 -4.633971
v -0.000000 6.295782 -4.481056
v -0.000000 6.220030 -5.144369
v -2.670049 0.592777 -0.565409
v -2.883528 2.325297 1.890903
v -2.922389 4.967360 -0.565406
v 0.238778 7.623008 1.944861
v 2.506185 7.716873 -0.565405
v -0.000000 7.810737 -3.075672
v -2.267407 7.716873 -0.565405
v 4.554975 2.325297 1.890903
v 2.908828 0.592777 -0.565409
v 4.355057 4.967360 -0.565406
v -0.000000 -0.078594 1.350831
v -2.550660 0.498913 2.272959
v -1.117991 3.963952 3.407693
v 3.028217 0.498913 2.272959
v 4.460886 3.963952 3.407693
v 1.671447 4.812572 3.784744
v 1.671447 4.981680 3.324193
v -0.000000 4.522934 12.259154
v 2.908827 5.625910 10.539029
v -2.670050 5.625910 10.539029
v 3.625162 5.625910 4.803337
v -1.953715 5.625910 4.803336
v 2.789439 6.396585 -6.274312
v -2.789439 6.396585 -6.274312
v 2.789439 4.274575 -11.685570
v -2.789439 4.274575 -11.685570
v 3.383577 6.396209 2.114249
v -1.712129 6.396209 2.114249
v 2.667243 6.959394 -3.245060
v -2.428464 6.959394 -3.245060
v 2.138516 0.283699 13.117332
v -2.138516 0.283699 13.117332
v 2.138516 2.940162 14.346771
v -2.138516 2.940162 14.346771
v -0.000000 0.088598 16.434387
v 1.704567 1.147304 16.639294
v -0.000000 2.206011 16.844200
v -1.704567 1.147304 16.639294
v -0.000000 6.439249 10.539027
v 2.908828 6.439249 7.671182
v 0.238778 6.439249 4.803336
v -2.670050 6.439249 7.671182
v -0.000000 2.145325 -15.576666
v 2.789439 1.192217 -15.219953
v -0.000000 0.239109 -14.863240
v -2.789439 1.192217 -15.219953
v -0.000000 -0.078594 2.938785
v 2.908827 0.498913 5.527143
v -0.000000 -0.098706 8.641558
v -2.670050 0.498913 5.527143
v 4.554975 2.231433 3.839739
v 4.435585 4.235065 7.364892
v 3.621666 2.076557 9.972383
v -2.883527 2.231433 3.839739
v -3.382888 2.076557 9.972383
v -3.002917 4.235065 7.364892
v -2.789439 0.239109 -11.718941
v -3.719251 1.415983 -9.702919
v -2.789439 2.145325 -13.859217
v 2.789439 0.239109 -11.718941
v -0.000000 -0.078594 -7.452520
v 3.719251 1.415983 -9.702919
v 2.789439 2.145325 -13.859217
v -0.000000 2.827497 -12.901653
v -2.789439 0.462875 -5.526263
v -3.719251 2.758581 -4.894602
v -3.719251 3.982295 -8.373734
v 2.789439 0.462875 -5.526263
v -0.000000 -0.078594 -3.789417
v 3.719251 2.758581 -4.894602
v 3.719251 3.982295 -8.373732
v -0.000000 7.020672 -6.413684
v 2.789439 6.147396 -9.119312
v -0.000000 5.274120 -11.824942
v -2.789439 6.147396 -9.119314
v -2.789439 0.686641 -3.446815
v -0.000000 0.992429 17.608376
v -0.000000 6.710362 7.671181
v -0.000000 1.192217 -16.030243
v -0.000000 -0.078594 5.220852
v 4.196808 2.231433 6.446019
v -3.241695 2.231433 6.446019
v -3.719251 1.192217 -12.789078
v -0.000000 -0.078594 -11.362228
v 3.719251 1.192217 -12.789078
v -0.000000 2.463028 -14.215928
v -3.719251 2.087282 -6.926768
v -0.000000 -0.078594 -5.059428
v 3.719251 2.087282 -6.926769
v -0.000000 6.418002 -9.165771
v -3.719251 2.982347 -4.040393
v -0.000000 -0.078594 -3.248955
v 3.719251 2.982347 -4.040392
v -0.000000 6.043289 -4.831830
v -3.241695 2.606890 -0.565408
v -0.000000 8.063229 -0.565405
v 4.196808 2.606890 -0.565408
v -0.000000 -0.078594 -0.565410
v -2.764139 2.231433 2.840326
v -0.000000 -0.078594 2.083837
v 4.674364 2.231433 2.840326
v 1.910226 4.541459 3.596816
v -0.000000 5.625910 11.494979
v 4.196808 5.625910 7.671183
v 0.955113 5.625910 3.847387
v -3.241695 5.625910 7.671183
v -0.000000 6.750253 -5.372435
v 3.719251 5.335580 -8.979939
v -0.000000 3.920907 -12.587445
v -3.719251 5.335580 -8.979939
v 0.955113 6.302343 3.007468
v 3.874694 6.677802 -0.565405
v -0.000000 7.053259 -4.138278
v -2.919581 6.677802 -0.565405
v -0.000000 -0.159045 12.912426
v 2.851354 1.611931 13.732052
v -0.000000 3.382906 14.551678
v -2.851354 1.611931 13.732052
vt 0.289355 0.997621
vt 0.284804 0.170469
vt 0.359377 1.000000
vt 0.385240 0.166177
vt 0.288014 0.244857
vt 0.388289 0.241266
vt 0.308209 0.662195
vt 0.000000 0.027980
vt 0.362187 0.663958
vt 0.669747 0.016551
vt 0.305956 0.694704
vt 0.028589 0.012143
vt 0.362297 0.696560
vt 0.641590 0.000000
vt 0.032690 0.062339
vt 0.288994 0.615776
vt 0.094879 0.062885
vt 0.294492 0.775553
vt 0.368388 0.778002
vt 0.574150 0.049024
vt 0.636184 0.050046
vt 0.384385 0.618842
vt 0.078121 0.139412
vt 0.291485 0.512595
vt 0.132959 0.097928
vt 0.292077 0.827317
vt 0.367365 0.829816
vt 0.535347 0.082848
vt 0.589866 0.125408
vt 0.388549 0.515309
vt 0.174298 0.195756
vt 0.306527 0.382869
vt 0.191703 0.138446
vt 0.292718 0.899892
vt 0.473113 0.119462
vt 0.367227 0.902417
vt 0.492234 0.178464
vt 0.403553 0.382324
vt 0.147607 0.109600
vt 0.291762 0.846122
vt 0.096435 0.156313
vt 0.293729 0.485796
vt 0.571115 0.142574
vt 0.391134 0.487400
vt 0.367187 0.848633
vt 0.520237 0.093333
vt 0.199492 0.205347
vt 0.305208 0.356982
vt 0.292045 0.921796
vt 0.209903 0.148590
vt 0.366422 0.924322
vt 0.453555 0.130321
vt 0.471784 0.188337
vt 0.404376 0.354267
vt 0.311767 0.277651
vt 0.365949 0.277070
vt 0.369388 0.331343
vt 0.316325 0.329223
vt 0.365170 0.535611
vt 0.313560 0.534096
vt 0.363186 0.589596
vt 0.312043 0.587978
vt 0.366436 0.414845
vt 0.323159 0.417930
vt 0.364747 0.463370
vt 0.320196 0.463942
vt 0.323050 0.203101
vt 0.349349 0.202031
vt 0.351966 0.222873
vt 0.321977 0.223983
vt 0.336744 0.214621
vt 0.339287 0.305004
vt 0.334827 0.674365
vt 0.325649 0.949826
vt 0.433200 0.177707
vt 0.240167 0.186151
vt 0.036238 0.038144
vt 0.332865 0.733772
vt 0.633279 0.025805
vt 0.335722 0.647039
vt 0.089645 0.092585
vt 0.330154 0.815572
vt 0.578503 0.079015
vt 0.338523 0.560838
vt 0.113362 0.124218
vt 0.329371 0.839223
vt 0.553858 0.110714
vt 0.340522 0.501703
vt 0.153926 0.146785
vt 0.341900 0.440900
vt 0.512958 0.133363
vt 0.328204 0.874271
vt 0.195262 0.167388
vt 0.327039 0.908866
vt 0.473778 0.154853
vt 0.362428 0.367509
vt 0.337618 0.262908
vt 0.395036 0.302352
vt 0.348530 0.353741
vt 0.293431 0.302963
vt 0.340120 0.513078
vt 0.387170 0.564476
vt 0.336754 0.615299
vt 0.289732 0.561430
vt 0.349994 0.390820
vt 0.391522 0.436854
vt 0.341171 0.486150
vt 0.300672 0.439279
vt 0.335245 0.181313
vt 0.368011 0.208213
vt 0.337214 0.236981
vt 0.304850 0.210730
vt 0.336288 0.204433
vt 0.350890 0.212919
vt 0.336974 0.222702
vt 0.322423 0.214027
vt 0.338098 0.274093
vt 0.376011 0.303952
vt 0.340699 0.338273
vt 0.305649 0.303164
vt 0.335204 0.662892
vt 0.370084 0.675845
vt 0.660425 0.006621
vt 0.334276 0.691088
vt 0.299548 0.673531
vt 0.009576 0.018290
vt 0.326660 0.920029
vt 0.364231 0.955123
vt 0.426525 0.145935
vt 0.324132 0.994487
vt 0.333265 0.142944
vt 0.289846 0.952593
vt 0.237715 0.159890
vt 0.462706 0.161218
vt 0.435902 0.207990
vt 0.412302 0.303463
vt 0.394061 0.199522
vt 0.207753 0.173085
vt 0.279061 0.203786
vt 0.240862 0.216591
vt 0.275030 0.308001
vt 0.056673 0.030541
vt 0.296167 0.726673
vt 0.065671 0.063805
vt 0.014452 0.040859
vt 0.296965 0.645416
vt 0.369952 0.729113
vt 0.613062 0.017696
vt 0.331189 0.784368
vt 0.603214 0.050753
vt 0.654965 0.029049
vt 0.374502 0.647932
vt 0.336271 0.630162
vt 0.119116 0.084653
vt 0.293191 0.808160
vt 0.106010 0.115329
vt 0.059761 0.101734
vt 0.271195 0.560023
vt 0.367526 0.810625
vt 0.549442 0.070122
vt 0.329604 0.832163
vt 0.561479 0.101706
vt 0.608186 0.088570
vt 0.405757 0.564249
vt 0.339664 0.526422
vt 0.372060 0.562260
vt 0.337385 0.595862
vt 0.304956 0.560178
vt 0.138942 0.103404
vt 0.291636 0.835416
vt 0.124756 0.131015
vt 0.088931 0.146665
vt 0.296059 0.499067
vt 0.367267 0.837926
vt 0.529173 0.087858
vt 0.329042 0.849133
vt 0.542201 0.117513
vt 0.579437 0.132668
vt 0.384814 0.501231
vt 0.340717 0.496673
vt 0.340370 0.505860
vt 0.169580 0.124629
vt 0.292257 0.873075
vt 0.183473 0.161833
vt 0.135992 0.172339
vt 0.279961 0.433421
vt 0.343187 0.411264
vt 0.371503 0.438759
vt 0.341660 0.470206
vt 0.315272 0.441124
vt 0.484456 0.148898
vt 0.496854 0.106403
vt 0.367183 0.875594
vt 0.529773 0.159030
vt 0.413802 0.434250
vt 0.327363 0.899294
vt 0.200305 0.143241
vt 0.292819 0.910180
vt 0.187446 0.199103
vt 0.313074 0.369695
vt 0.367201 0.912706
vt 0.463918 0.124522
vt 0.479376 0.177904
vt 0.402729 0.368296
vt 0.358508 0.363675
vt 0.358855 0.373948
vt 0.337205 0.252404
vt 0.377024 0.263211
vt 0.300711 0.265317
vt 0.385096 0.342349
vt 0.310165 0.339795
vt 0.375820 0.526281
vt 0.303516 0.524205
vt 0.373307 0.602596
vt 0.301100 0.600292
vt 0.382103 0.400950
vt 0.316243 0.404816
vt 0.376163 0.473962
vt 0.309858 0.473950
vt 0.361132 0.188991
vt 0.310180 0.191157
vt 0.363770 0.228371
vt 0.310327 0.230404
vn -0.476654 -0.852626 0.214081
vn -0.000000 -0.954637 0.297773
vn -0.000000 -0.241576 0.970382
vn -0.766865 -0.184364 0.614758
vn 0.476654 -0.852626 0.214080
vn 0.766865 -0.184364 0.614758
vn 0.522478 0.655658 0.545096
vn -0.000000 0.757041 0.653367
vn -0.522478 0.655658 0.545096
vn -0.288762 0.924097 0.250323
vn 0.000189 0.949671 0.313250
vn -0.003050 0.999995 -0.000126
vn -0.366503 0.929931 -0.030061
vn 0.241219 0.935818 0.257017
vn 0.278295 0.960205 0.023612
vn 0.230189 0.948793 -0.216344
vn -0.023287 0.947063 -0.320201
vn -0.310629 0.902741 -0.297606
vn -0.340893 0.766656 -0.544087
vn 0.000000 0.800772 -0.598970
vn 0.000000 -0.438891 -0.898540
vn -0.620977 -0.428161 -0.656556
vn 0.340893 0.766656 -0.544087
vn 0.620977 -0.428160 -0.656556
vn 0.256543 -0.936070 -0.240747
vn 0.000000 -0.953869 -0.300223
vn -0.256543 -0.936070 -0.240747
vn -0.602000 -0.797444 -0.040979
vn 0.000347 -1.000000 0.000007
vn 0.000102 -0.999995 -0.003253
vn -0.591153 -0.805942 -0.031566
vn 0.452520 -0.891205 0.031297
vn 0.478036 -0.877707 0.033349
vn 0.502506 -0.863911 0.033849
vn 0.000006 -0.999951 -0.009886
vn -0.558199 -0.829707 -0.000842
vn 0.925253 -0.358684 0.123500
vn 0.944930 -0.268470 0.187166
vn 0.910856 -0.407364 0.066305
vn 0.956526 0.245320 -0.157720
vn 0.980292 0.081641 0.179893
vn 0.809333 0.361945 0.462576
vn -0.751807 0.357915 -0.553790
vn -0.956314 0.196490 -0.216463
vn -0.993401 0.034151 -0.109488
vn -0.979963 0.151799 -0.128959
vn -0.992034 -0.108354 0.064251
vn -0.846930 0.406987 0.342157
vn -0.353986 -0.934370 -0.040587
vn -0.951626 -0.248347 -0.180921
vn -0.419309 -0.907086 0.037083
vn -0.968930 -0.243059 -0.045789
vn -0.829029 0.409596 -0.380713
vn -0.468356 0.832358 -0.296349
vn -0.000000 -0.999374 -0.035373
vn 0.353986 -0.934370 -0.040587
vn 0.419309 -0.907086 0.037083
vn -0.000000 -0.999809 0.019566
vn 0.829029 0.409596 -0.380713
vn 0.968930 -0.243059 -0.045789
vn 0.951626 -0.248347 -0.180921
vn 0.468355 0.832358 -0.296349
vn 0.000000 0.770348 -0.637624
vn 0.000000 0.962306 -0.271968
vn -0.990792 -0.131663 0.031554
vn -0.991730 0.117158 -0.052394
vn -0.554314 -0.829344 0.070173
vn -0.645236 -0.759870 0.079170
vn -0.995677 -0.030631 0.087688
vn -0.898723 0.362907 0.246160
vn 0.000000 -0.998970 0.045376
vn 0.554314 -0.829344 0.070173
vn 0.645236 -0.759870 0.079170
vn 0.000000 -0.998369 0.057086
vn 0.898723 0.362907 0.246160
vn 0.995677 -0.030631 0.087688
vn 0.990792 -0.131663 0.031554
vn 0.991730 0.117158 -0.052394
vn -0.243111 0.965678 -0.091451
vn 0.000000 0.998675 -0.051463
vn 0.000000 0.948058 -0.318098
vn -0.317501 0.894790 -0.313918
vn 0.243111 0.965678 -0.091451
vn 0.317501 0.894790 -0.313917
vn 0.277263 0.782405 -0.557645
vn 0.000000 0.783213 -0.621754
vn -0.277263 0.782405 -0.557645
vn -0.998040 0.040274 0.047902
vn -0.747886 0.663802 -0.005831
vn -0.687146 -0.725197 0.043809
vn -0.680859 -0.731753 0.031126
vn -0.997506 0.008193 0.070107
vn -0.919127 0.349620 -0.181583
vn 0.000000 -0.999945 0.010531
vn 0.667018 -0.744902 -0.014436
vn 0.612802 -0.786564 -0.076106
vn -0.000031 -0.999857 -0.016898
vn 0.849275 0.318955 -0.420713
vn 0.968203 -0.137296 -0.209124
vn 0.997492 0.002030 -0.070747
vn 0.736827 0.667826 -0.105330
vn -0.000542 0.632733 -0.774370
vn 0.000000 0.995727 -0.092351
vn 0.000000 0.760678 0.649130
vn -0.986244 0.033788 0.161806
vn -0.961693 0.177584 0.208832
vn -0.665310 -0.745865 0.032371
vn -0.679391 -0.732944 0.034951
vn -0.960308 0.122095 0.250800
vn -0.740901 0.271289 0.614385
vn -0.412314 0.791671 0.450838
vn -0.024190 0.875254 0.483058
vn -0.005393 0.998677 0.051136
vn -0.468336 0.877793 0.100701
vn 0.320411 0.879752 0.351246
vn 0.359904 0.932456 0.031546
vn 0.297301 0.922441 -0.246403
vn 0.000245 0.951718 -0.306975
vn -0.360456 0.902496 -0.235739
vn 0.915457 0.310803 0.255618
vn 0.952761 -0.285162 -0.104540
vn 0.958636 -0.235630 -0.159671
vn 0.972077 0.188665 -0.139541
vn 0.526433 -0.846886 -0.075186
vn 0.558835 -0.825707 -0.076891
vn 0.000000 -0.999843 -0.017698
vn -0.000227 -0.999853 -0.017124
vn -0.956290 0.287515 0.053337
vn -0.580837 0.808061 0.098316
vn -0.654524 -0.756041 0.000690
vn 0.000042 -0.999972 -0.007496
vn 0.472661 -0.881004 -0.020561
vn 0.926416 -0.376423 -0.007705
vn 0.866872 0.492800 0.075376
vn 0.048752 0.550402 -0.833475
vn 0.080236 0.984000 0.159077
vn 0.039215 0.446504 0.893922
vn -0.000587 0.807988 0.589199
vn -0.000319 0.620536 0.784178
vn -0.758277 0.431398 0.488786
vn 0.630528 0.534845 0.562473
vn 0.819203 0.554126 0.147821
vn 0.597932 0.681356 -0.422175
vn -0.024695 0.539183 -0.841827
vn -0.698156 0.260275 -0.666959
vn -0.969301 0.224153 -0.101044
vn -0.000000 0.817939 0.575306
vn -0.694570 0.638740 0.331033
vn 0.694570 0.638740 0.331033
vn 0.904092 0.389320 -0.176205
vn 0.671035 0.314018 -0.671643
vn 0.000000 0.345178 -0.938537
vn -0.671035 0.314018 -0.671643
vn -0.904092 0.389320 -0.176205
vn -0.020825 0.441796 0.896874
vn -0.669227 0.256686 0.697314
vn 0.622343 0.597384 0.505788
vn 0.818597 0.571410 -0.058228
vn 0.620584 0.591819 -0.514418
vn 0.000318 0.631913 -0.775039
vn -0.748848 0.501434 -0.433348
vn -0.943772 0.274708 0.183931
vn -0.000000 -0.999835 0.018179
vn -0.530061 -0.845435 0.065387
vn 0.515517 -0.853753 0.073124
vn 0.952411 -0.161982 0.258215
vn 0.602142 0.666310 0.439837
vn -0.000000 0.895354 0.445356
vn -0.619492 0.665428 0.416456
vn -0.964930 -0.129851 0.228141
s 1
g pCube29
usemtl initialShadingGroup
f 41/67/1 87/113/2 129/71/3 90/116/4
f 87/113/2 42/68/5 88/114/6 129/71/3
f 129/71/3 88/114/6 43/69/7 89/115/8
f 90/116/4 129/71/3 89/115/8 44/70/9
f 29/55/10 91/117/11 130/72/12 94/120/13
f 91/117/11 30/56/14 92/118/15 130/72/12
f 130/72/12 92/118/15 31/57/16 93/119/17
f 94/120/13 130/72/12 93/119/17 32/58/18
f 5/7/19 95/121/20 131/73/21 98/125/22
f 95/121/20 6/9/23 96/122/24 131/73/21
f 131/73/21 96/122/24 8/13/25 97/124/26
f 98/125/22 131/73/21 97/124/26 7/11/27
f 26/49/28 99/127/29 132/74/30 102/132/31
f 99/127/29 27/51/32 100/128/33 132/74/30
f 132/74/30 100/128/33 2/3/34 101/130/35
f 102/132/31 132/74/30 101/130/35 1/1/36
f 2/4/34 100/129/33 133/75/37 105/137/38
f 100/129/33 27/52/32 103/134/39 133/75/37
f 133/75/37 103/134/39 28/53/40 104/135/41
f 105/137/38 133/75/37 104/135/41 4/6/42
f 25/47/43 106/138/44 134/76/45 108/140/46
f 106/138/44 26/50/28 102/133/31 134/76/45
f 134/76/45 102/133/31 1/2/36 107/139/47
f 108/140/46 134/76/45 107/139/47 3/5/48
f 7/12/27 109/142/49 135/77/50 98/126/22
f 109/142/49 10/17/51 110/144/52 135/77/50
f 135/77/50 110/144/52 9/15/53 111/145/54
f 98/126/22 135/77/50 111/145/54 5/8/19
f 7/11/27 97/124/26 136/78/55 109/143/49
f 97/124/26 8/13/25 112/147/56 136/78/55
f 136/78/55 112/147/56 11/19/57 113/149/58
f 109/143/49 136/78/55 113/149/58 10/18/51
f 12/21/59 114/150/60 137/79/61 115/151/62
f 114/150/60 11/20/57 112/148/56 137/79/61
f 137/79/61 112/148/56 8/14/25 96/123/24
f 115/151/62 137/79/61 96/123/24 6/10/23
f 9/16/53 116/153/63 138/80/64 111/146/54
f 116/153/63 12/22/59 115/152/62 138/80/64
f 138/80/64 115/152/62 6/9/23 95/121/20
f 111/146/54 138/80/64 95/121/20 5/7/19
f 9/15/53 110/144/52 139/81/65 119/157/66
f 110/144/52 10/17/51 117/154/67 139/81/65
f 139/81/65 117/154/67 14/25/68 118/156/69
f 119/157/66 139/81/65 118/156/69 13/23/70
f 10/18/51 113/149/58 140/82/71 117/155/67
f 113/149/58 11/19/57 120/159/72 140/82/71
f 140/82/71 120/159/72 15/27/73 121/161/74
f 117/155/67 140/82/71 121/161/74 14/26/68
f 16/29/75 122/162/76 141/83/77 123/163/78
f 122/162/76 15/28/73 120/160/72 141/83/77
f 141/83/77 120/160/72 11/20/57 114/150/60
f 123/163/78 141/83/77 114/150/60 12/21/59
f 34/60/79 124/165/80 142/84/81 127/168/82
f 124/165/80 33/59/83 125/166/84 142/84/81
f 142/84/81 125/166/84 35/61/85 126/167/86
f 127/168/82 142/84/81 126/167/86 36/62/87
f 13/23/70 118/156/69 143/85/88 46/172/89
f 118/156/69 14/25/68 128/169/90 143/85/88
f 143/85/88 128/169/90 21/39/91 45/171/92
f 46/172/89 143/85/88 45/171/92 22/41/93
f 14/26/68 121/161/74 144/86/94 128/170/90
f 121/161/74 15/27/73 47/174/95 144/86/94
f 144/86/94 47/174/95 24/45/96 48/176/97
f 128/170/90 144/86/94 48/176/97 21/40/91
f 23/43/98 49/177/99 145/87/100 50/178/101
f 49/177/99 24/46/96 47/175/95 145/87/100
f 145/87/100 47/175/95 15/28/73 122/162/76
f 50/178/101 145/87/100 122/162/76 16/29/75
f 22/42/93 51/180/102 146/88/103 46/173/89
f 51/180/102 23/44/98 50/179/101 146/88/103
f 146/88/103 50/179/101 16/30/75 52/181/104
f 46/173/89 146/88/103 52/181/104 13/24/70
f 22/41/93 45/171/92 147/89/105 55/185/106
f 45/171/92 21/39/91 53/182/107 147/89/105
f 147/89/105 53/182/107 18/33/108 54/184/109
f 55/185/106 147/89/105 54/184/109 17/31/110
f 38/64/111 56/187/112 148/90/113 59/190/114
f 56/187/112 37/63/115 57/188/116 148/90/113
f 148/90/113 57/188/116 39/65/117 58/189/118
f 59/190/114 148/90/113 58/189/118 40/66/119
f 20/37/120 60/191/121 149/91/122 62/194/123
f 60/191/121 19/35/124 61/192/125 149/91/122
f 149/91/122 61/192/125 24/46/96 49/177/99
f 62/194/123 149/91/122 49/177/99 23/43/98
f 21/40/91 48/176/97 150/92/126 53/183/107
f 48/176/97 24/45/96 61/193/125 150/92/126
f 150/92/126 61/193/125 19/36/124 63/196/127
f 53/183/107 150/92/126 63/196/127 18/34/108
f 17/31/110 54/184/109 151/93/128 65/199/129
f 54/184/109 18/33/108 64/197/130 151/93/128
f 151/93/128 64/197/130 26/50/28 106/138/44
f 65/199/129 151/93/128 106/138/44 25/47/43
f 18/34/108 63/196/127 152/94/131 64/198/130
f 63/196/127 19/36/124 66/201/132 152/94/131
f 152/94/131 66/201/132 27/51/32 99/127/29
f 64/198/130 152/94/131 99/127/29 26/49/28
f 28/53/40 103/134/39 153/95/133 67/203/134
f 103/134/39 27/52/32 66/202/132 153/95/133
f 153/95/133 66/202/132 19/35/124 60/191/121
f 67/203/134 153/95/133 60/191/121 20/37/120
f 25/48/43 68/205/135 154/96/136 65/200/129
f 68/205/135 28/54/40 67/204/134 154/96/136
f 154/96/136 67/204/134 20/38/120 69/206/137
f 65/200/129 154/96/136 69/206/137 17/32/110
f 3/5/48 70/207/138 155/97/139 72/209/140
f 70/207/138 4/6/42 71/208/141 155/97/139
f 155/97/139 71/208/141 30/56/14 91/117/11
f 72/209/140 155/97/139 91/117/11 29/55/10
f 4/6/42 104/136/41 156/98/142 71/208/141
f 104/136/41 28/54/40 73/210/143 156/98/142
f 156/98/142 73/210/143 31/57/16 92/118/15
f 71/208/141 156/98/142 92/118/15 30/56/14
f 28/54/40 68/205/135 157/99/144 73/210/143
f 68/205/135 25/48/43 74/211/145 157/99/144
f 157/99/144 74/211/145 32/58/18 93/119/17
f 73/210/143 157/99/144 93/119/17 31/57/16
f 25/48/43 108/141/46 158/100/146 74/211/145
f 108/141/46 3/5/48 72/209/140 158/100/146
f 158/100/146 72/209/140 29/55/10 94/120/13
f 74/211/145 158/100/146 94/120/13 32/58/18
f 13/24/70 52/181/104 159/101/147 76/213/148
f 52/181/104 16/30/75 75/212/149 159/101/147
f 159/101/147 75/212/149 33/59/83 124/165/80
f 76/213/148 159/101/147 124/165/80 34/60/79
f 16/30/75 123/164/78 160/102/150 75/212/149
f 123/164/78 12/22/59 77/214/151 160/102/150
f 160/102/150 77/214/151 35/61/85 125/166/84
f 75/212/149 160/102/150 125/166/84 33/59/83
f 12/22/59 116/153/63 161/103/152 77/214/151
f 116/153/63 9/16/53 78/215/153 161/103/152
f 161/103/152 78/215/153 36/62/87 126/167/86
f 77/214/151 161/103/152 126/167/86 35/61/85
f 9/16/53 119/158/66 162/104/154 78/215/153
f 119/158/66 13/24/70 76/213/148 162/104/154
f 162/104/154 76/213/148 34/60/79 127/168/82
f 78/215/153 162/104/154 127/168/82 36/62/87
f 17/32/110 69/206/137 163/105/155 80/217/156
f 69/206/137 20/38/120 79/216/157 163/105/155
f 163/105/155 79/216/157 37/63/115 56/187/112
f 80/217/156 163/105/155 56/187/112 38/64/111
f 20/38/120 62/195/123 164/106/158 79/216/157
f 62/195/123 23/44/98 81/218/159 164/106/158
f 164/106/158 81/218/159 39/65/117 57/188/116
f 79/216/157 164/106/158 57/188/116 37/63/115
f 23/44/98 51/180/102 165/107/160 81/218/159
f 51/180/102 22/42/93 82/219/161 165/107/160
f 165/107/160 82/219/161 40/66/119 58/189/118
f 81/218/159 165/107/160 58/189/118 39/65/117
f 22/42/93 55/186/106 166/108/162 82/219/161
f 55/186/106 17/32/110 80/217/156 166/108/162
f 166/108/162 80/217/156 38/64/111 59/190/114
f 82/219/161 166/108/162 59/190/114 40/66/119
f 1/2/36 101/131/35 167/109/163 84/221/164
f 101/131/35 2/4/34 83/220/165 167/109/163
f 167/109/163 83/220/165 42/68/5 87/113/2
f 84/221/164 167/109/163 87/113/2 41/67/1
f 2/4/34 105/137/38 168/110/166 83/220/165
f 105/137/38 4/6/42 85/222/167 168/110/166
f 168/110/166 85/222/167 43/69/7 88/114/6
f 83/220/165 168/110/166 88/114/6 42/68/5
f 4/6/42 70/207/138 169/111/168 85/222/167
f 70/207/138 3/5/48 86/223/169 169/111/168
f 169/111/168 86/223/169 44/70/9 89/115/8
f 85/222/167 169/111/168 89/115/8 43/69/7
f 3/5/48 107/139/47 170/112/170 86/223/169
f 107/139/47 1/2/36 84/221/164 170/112/170
f 170/112/170 84/221/164 41/67/1 90/116/4
f 86/223/169 170/112/170 90/116/4 44/70/9
