# This file uses centimeters as units for non-parametric coordinates.

mtllib Nube_3.mtl
g default
v -1.428902 1.152548 5.267198
v 1.428902 1.152548 5.267198
v -1.428902 3.420900 5.267198
v 1.428902 3.420900 5.267198
v -1.428902 3.420900 -5.156853
v 1.428902 3.420900 -5.156853
v -1.428902 1.152548 -5.156853
v 1.428902 1.152548 -5.156853
v -2.160500 4.179072 -2.624516
v -1.929018 0.755586 -2.472527
v 1.929018 0.755586 -2.472527
v 2.160500 4.179072 -2.624516
v -2.160500 4.179072 3.081341
v -1.929018 0.755586 2.907008
v 1.929018 0.755586 2.907008
v 2.160500 4.179072 3.081341
v 1.428902 6.053684 1.994382
v -1.428902 6.053684 1.994382
v 1.428902 6.053684 -1.497832
v -1.428902 6.053684 -1.497832
v -1.929018 3.817861 -4.348947
v 1.929018 0.755586 -4.348947
v 0.000000 0.245207 -2.472527
v 2.572024 2.286724 -2.472527
v 1.929018 3.817861 -4.348947
v 0.000000 4.605544 -3.258275
v -1.929018 0.755586 0.248275
v -2.572024 4.095165 0.248275
v 1.929018 0.755586 0.248275
v 2.572024 4.095165 0.248275
v 0.000000 6.269364 2.605519
v 1.929018 6.269364 0.248275
v 0.000000 6.269364 -2.108971
v -1.929018 6.269364 0.248275
v 1.929018 5.437455 2.605519
v -1.929018 5.437455 2.605519
v 1.929018 5.437455 -2.108971
v -1.929018 5.437455 -2.108971
v 0.000000 0.755586 5.501689
v 1.929018 2.286724 5.501689
v 0.000000 3.817861 5.501689
v -1.929018 2.286724 5.501689
v 1.929018 3.817861 4.597223
v 0.000000 4.605544 3.692756
v -1.929018 3.817861 4.597223
v 0.000000 3.817861 -5.439620
v 1.929018 2.286724 -5.439620
v 0.000000 0.755586 -5.439620
v -1.929018 2.286724 -5.439620
v 0.000000 0.245207 2.907008
v 1.929018 0.755586 4.597222
v -1.929018 0.755586 4.597222
v 2.572024 2.286724 2.907008
v -2.572024 2.286724 2.907008
v -1.929018 0.755586 -4.348947
v -2.572024 2.286724 -2.472527
v 0.000000 2.286724 5.803178
v 0.000000 4.328241 4.597223
v 0.000000 2.286724 -5.803178
v 0.000000 0.245207 4.597222
v 2.572024 2.286724 4.597222
v -2.572024 2.286724 4.597222
v -2.572024 2.286724 -4.348947
v 0.000000 0.245207 -4.348948
v 2.572024 2.286724 -4.348947
v 0.000000 4.328241 -4.348947
v -2.572024 2.286724 0.248275
v 0.000000 0.245207 0.248275
v 2.572024 2.286724 0.248275
v 0.000000 6.546668 0.248275
v 0.000000 5.437454 3.391268
v 2.572024 5.437454 0.248275
v 0.000000 5.437454 -2.894717
v -2.572024 5.437454 0.248275
vt 0.390603 0.013379
vt 0.372806 0.995904
vt 0.501812 0.015888
vt 0.479419 0.997758
vt 0.390626 0.099191
vt 0.497875 0.101635
vt 0.381358 0.525305
vt 0.003280 0.110670
vt 0.487718 0.527757
vt 0.884332 0.130748
vt 0.380816 0.614787
vt 0.001322 0.019232
vt 0.484183 0.617268
vt 0.890377 0.039514
vt 0.101045 0.130953
vt 0.344093 0.424284
vt 0.104263 0.004496
vt 0.359858 0.717059
vt 0.500308 0.719324
vt 0.788227 0.020299
vt 0.785750 0.146603
vt 0.529555 0.428517
vt 0.349563 0.186787
vt 0.303727 0.126092
vt 0.357763 0.906645
vt 0.293800 0.000000
vt 0.497525 0.908538
vt 0.599211 0.006754
vt 0.534912 0.191009
vt 0.583448 0.132536
vt 0.485833 0.250808
vt 0.395868 0.248758
vt 0.483271 0.366188
vt 0.393171 0.364132
vt 0.445311 0.053913
vt 0.443406 0.137590
vt 0.433501 0.571225
vt 0.426900 0.964569
vt 0.541870 0.061012
vt 0.348526 0.056613
vt 0.042566 0.063807
vt 0.431129 0.657503
vt 0.847182 0.082189
vt 0.435489 0.484917
vt 0.200972 0.060667
vt 0.428839 0.814370
vt 0.689067 0.071844
vt 0.439534 0.307577
vt 0.442024 0.198298
vt 0.533917 0.309329
vt 0.437036 0.417123
vt 0.345169 0.305026
vt 0.446530 0.000239
vt 0.426216 1.000000
vt 0.507787 0.059024
vt 0.444151 0.104825
vt 0.382666 0.056183
vt 0.517744 0.131892
vt 0.529632 0.116250
vt 0.442707 0.168306
vt 0.369403 0.128514
vt 0.358224 0.112325
vt 0.434629 0.522494
vt 0.502312 0.572899
vt 0.889658 0.085145
vt 0.432275 0.619940
vt 0.364717 0.569691
vt 0.000000 0.064865
vt 0.427567 0.906557
vt 0.495095 0.968730
vt 0.536201 0.005987
vt 0.357930 0.966336
vt 0.356716 0.001960
vt 0.597440 0.065943
vt 0.292754 0.058913
vt 0.036830 0.007983
vt 0.363536 0.648627
vt 0.106500 0.063200
vt 0.039229 0.120595
vt 0.361658 0.490678
vt 0.500307 0.651954
vt 0.855410 0.026708
vt 0.430300 0.720400
vt 0.783329 0.078677
vt 0.847971 0.139052
vt 0.508979 0.494052
vt 0.436329 0.448128
vt 0.199849 0.002276
vt 0.358669 0.813276
vt 0.202624 0.124277
vt 0.303981 0.303827
vt 0.498900 0.815042
vt 0.692900 0.013689
vt 0.684533 0.135322
vt 0.575116 0.310008
vt 0.441192 0.234831
vt 0.500562 0.308774
vt 0.437874 0.380378
vt 0.378515 0.305992
vt 0.505930 0.226206
vt 0.376913 0.223266
vt 0.502334 0.391479
vt 0.372974 0.388527
vn -0.365829 -0.460893 0.808546
vn 0.000000 -0.571712 0.820454
vn 0.000000 0.000000 1.000000
vn -0.483998 -0.000000 0.875069
vn 0.365829 -0.460893 0.808546
vn 0.483998 -0.000000 0.875069
vn 0.365829 0.460893 0.808546
vn 0.000000 0.571712 0.820454
vn -0.365829 0.460893 0.808546
vn -0.000000 0.929453 0.368940
vn -0.693709 0.648899 0.312566
vn 0.693709 0.648899 0.312566
vn 0.895976 0.344708 0.280007
vn -0.000000 0.731043 0.682332
vn -0.895976 0.344708 0.280007
vn -0.410104 0.516673 -0.751575
vn 0.000000 0.640644 -0.767838
vn 0.000000 0.000000 -1.000000
vn -0.552151 0.000000 -0.833744
vn 0.410104 0.516673 -0.751575
vn 0.552151 0.000000 -0.833744
vn 0.410104 -0.516673 -0.751575
vn 0.000000 -0.640644 -0.767838
vn -0.410104 -0.516673 -0.751575
vn -0.621700 -0.783255 0.000000
vn 0.000000 -1.000000 0.000000
vn -0.000000 -0.986421 0.164234
vn -0.612317 -0.771433 0.173086
vn 0.621700 -0.783255 0.000000
vn 0.612317 -0.771433 0.173086
vn 0.970389 -0.034714 0.239040
vn 0.994232 -0.097073 0.045607
vn -0.994232 -0.097073 0.045607
vn -0.970389 -0.034714 0.239040
vn -0.614225 -0.773837 -0.154611
vn -0.976555 -0.032368 -0.212823
vn -0.621701 -0.783255 0.000000
vn -0.994560 -0.094777 -0.043227
vn -0.890124 0.369730 -0.266417
vn -0.691844 0.666991 -0.276541
vn 0.000000 -0.989214 -0.146481
vn 0.614225 -0.773837 -0.154611
vn 0.621700 -0.783255 0.000000
vn 0.000000 -1.000000 0.000000
vn 0.890124 0.369730 -0.266417
vn 0.994560 -0.094777 -0.043227
vn 0.976555 -0.032368 -0.212823
vn 0.691844 0.666991 -0.276541
vn 0.000000 0.779834 -0.625986
vn 0.000000 0.947065 -0.321043
vn -0.992002 -0.126222 -0.000000
vn -0.993435 0.114395 -0.000012
vn -0.621701 -0.783255 0.000000
vn 0.000000 -1.000000 0.000000
vn 0.621701 -0.783255 0.000000
vn 0.992002 -0.126222 -0.000000
vn 0.993435 0.114395 -0.000012
vn -0.350795 0.883000 0.311855
vn -0.000000 0.944073 0.329736
vn 0.000000 1.000000 0.000000
vn -0.457379 0.889272 -0.000000
vn 0.350795 0.883000 0.311855
vn 0.457379 0.889272 -0.000000
vn 0.350795 0.883000 -0.311854
vn 0.000000 0.944073 -0.329736
vn -0.350795 0.883000 -0.311854
vn -0.000000 0.554574 0.832134
vn -0.739463 0.441201 0.508464
vn 0.739463 0.441201 0.508464
vn 0.948738 0.316065 -0.000000
vn 0.738096 0.450599 -0.502171
vn 0.000000 0.572629 -0.819815
vn -0.738096 0.450599 -0.502171
vn -0.948738 0.316065 -0.000000
s 1
g pCube26
usemtl initialShadingGroup
f 1/1/1 39/53/2 57/35/3 42/57/4
f 39/53/2 2/3/5 40/55/6 57/35/3
f 57/35/3 40/55/6 4/6/7 41/56/8
f 42/57/4 57/35/3 41/56/8 3/5/9
f 3/5/9 41/56/8 58/36/10 45/61/11
f 41/56/8 4/6/7 43/58/12 58/36/10
f 58/36/10 43/58/12 16/29/13 44/60/14
f 45/61/11 58/36/10 44/60/14 13/23/15
f 5/7/16 46/63/17 59/37/18 49/67/19
f 46/63/17 6/9/20 47/64/21 59/37/18
f 59/37/18 47/64/21 8/13/22 48/66/23
f 49/67/19 59/37/18 48/66/23 7/11/24
f 14/25/25 50/69/26 60/38/27 52/72/28
f 50/69/26 15/27/29 51/70/30 60/38/27
f 60/38/27 51/70/30 2/4/5 39/54/2
f 52/72/28 60/38/27 39/54/2 1/2/1
f 2/3/5 51/71/30 61/39/31 40/55/6
f 51/71/30 15/28/29 53/74/32 61/39/31
f 61/39/31 53/74/32 16/30/13 43/59/12
f 40/55/6 61/39/31 43/59/12 4/6/7
f 13/24/15 54/75/33 62/40/34 45/62/11
f 54/75/33 14/26/25 52/73/28 62/40/34
f 62/40/34 52/73/28 1/1/1 42/57/4
f 45/62/11 62/40/34 42/57/4 3/5/9
f 7/12/24 55/76/35 63/41/36 49/68/19
f 55/76/35 10/17/37 56/78/38 63/41/36
f 63/41/36 56/78/38 9/15/39 21/79/40
f 49/68/19 63/41/36 21/79/40 5/8/16
f 7/11/24 48/66/23 64/42/41 55/77/35
f 48/66/23 8/13/22 22/81/42 64/42/41
f 64/42/41 22/81/42 11/19/43 23/83/44
f 55/77/35 64/42/41 23/83/44 10/18/37
f 12/21/45 24/84/46 65/43/47 25/85/48
f 24/84/46 11/20/43 22/82/42 65/43/47
f 65/43/47 22/82/42 8/14/22 47/65/21
f 25/85/48 65/43/47 47/65/21 6/10/20
f 9/16/39 26/87/49 66/44/50 21/80/40
f 26/87/49 12/22/45 25/86/48 66/44/50
f 66/44/50 25/86/48 6/9/20 46/63/17
f 21/80/40 66/44/50 46/63/17 5/7/16
f 9/15/39 56/78/38 67/45/51 28/90/52
f 56/78/38 10/17/37 27/88/53 67/45/51
f 67/45/51 27/88/53 14/26/25 54/75/33
f 28/90/52 67/45/51 54/75/33 13/24/15
f 10/18/37 23/83/44 68/46/54 27/89/53
f 23/83/44 11/19/43 29/92/55 68/46/54
f 68/46/54 29/92/55 15/27/29 50/69/26
f 27/89/53 68/46/54 50/69/26 14/25/25
f 16/30/13 53/74/32 69/47/56 30/94/57
f 53/74/32 15/28/29 29/93/55 69/47/56
f 69/47/56 29/93/55 11/20/43 24/84/46
f 30/94/57 69/47/56 24/84/46 12/21/45
f 18/32/58 31/96/59 70/48/60 34/99/61
f 31/96/59 17/31/62 32/97/63 70/48/60
f 70/48/60 32/97/63 19/33/64 33/98/65
f 34/99/61 70/48/60 33/98/65 20/34/66
f 13/23/15 44/60/14 71/49/67 36/101/68
f 44/60/14 16/29/13 35/100/69 71/49/67
f 71/49/67 35/100/69 17/31/62 31/96/59
f 36/101/68 71/49/67 31/96/59 18/32/58
f 16/29/13 30/95/57 72/50/70 35/100/69
f 30/95/57 12/22/45 37/102/71 72/50/70
f 72/50/70 37/102/71 19/33/64 32/97/63
f 35/100/69 72/50/70 32/97/63 17/31/62
f 12/22/45 26/87/49 73/51/72 37/102/71
f 26/87/49 9/16/39 38/103/73 73/51/72
f 73/51/72 38/103/73 20/34/66 33/98/65
f 37/102/71 73/51/72 33/98/65 19/33/64
f 9/16/39 28/91/52 74/52/74 38/103/73
f 28/91/52 13/23/15 36/101/68 74/52/74
f 74/52/74 36/101/68 18/32/58 34/99/61
f 38/103/73 74/52/74 34/99/61 20/34/66
