# This file uses centimeters as units for non-parametric coordinates.

mtllib Nube_4.mtl
g default
v -3.752031 4.045351 -2.032360
v -3.158759 0.513385 -1.775149
v 2.111760 0.513385 -1.775149
v 2.512755 4.045351 -2.032360
v -3.754231 3.966965 2.332118
v -3.162228 0.502650 2.039116
v 2.111264 0.502650 2.039116
v 2.512441 3.966965 2.332118
v -1.338837 1.035948 5.709410
v 1.063103 1.035948 5.709410
v 1.128425 3.223066 6.171086
v -1.421619 3.223065 6.171086
v 1.834702 3.673075 3.760679
v -2.289652 3.673075 3.760680
v -2.086343 0.282263 3.386224
v 1.684287 0.282263 3.386224
v -1.415449 3.258480 -6.094547
v 1.129307 3.258480 -6.094547
v 1.063978 1.041007 -5.642535
v -1.332681 1.041007 -5.642535
v -2.065520 0.300915 -3.128186
v -2.268814 3.803645 -3.465275
v 1.687261 0.300915 -3.128186
v 1.837679 3.803645 -3.465275
v 1.342241 5.954026 1.293423
v -1.887478 5.954027 1.293423
v 1.342240 5.970857 -1.019744
v -1.887483 5.970857 -1.019744
v -4.211312 2.053429 2.103087
v -4.359581 3.914649 0.145981
v -0.505158 -0.014277 -1.760271
v 2.176422 0.558411 0.129343
v -0.507142 -0.014277 2.017793
v 3.050311 2.053429 2.103087
v 3.050311 2.096368 -1.819781
v 3.098291 3.914649 0.145981
v -0.216219 6.185118 1.622071
v 1.813401 6.191429 0.135006
v -0.216221 6.197741 -1.352057
v -2.245841 6.191429 0.135006
v -0.581345 4.409235 2.743649
v -2.889437 3.644476 3.054667
v 2.024190 3.644476 3.054667
v 1.915791 0.347987 2.814016
v -2.644391 0.347987 2.814016
v -2.875556 3.768337 -2.734116
v -2.630507 0.365682 -2.534204
v 1.917774 0.365682 -2.534204
v 2.026173 3.768337 -2.734116
v -0.579375 4.507736 -2.439271
v 1.971963 5.289258 1.814951
v -2.839478 5.289258 1.814951
v 1.971961 5.327125 -1.530797
v -2.839491 5.327125 -1.530797
v -0.134738 0.737049 5.945734
v 1.488031 2.154647 6.282891
v -0.146347 3.572246 6.620048
v -1.769116 2.154647 6.282891
v 1.665602 3.622040 5.234609
v -0.231882 4.238211 3.823089
v -1.971766 3.622040 5.234609
v -0.144365 3.595012 -6.576089
v 1.488029 2.166030 -6.242557
v -0.132769 0.737049 -5.909024
v -1.765162 2.166030 -6.242557
v -0.196621 -0.282873 3.323815
v 1.511033 0.493315 4.687923
v -1.793100 0.493315 4.687923
v 2.417409 1.977669 3.573452
v -2.845913 1.977669 3.573452
v -1.779229 0.504698 -4.537455
v -2.822106 2.052280 -3.296731
v -1.957873 3.701723 -5.062396
v 1.513014 0.504698 -4.537455
v -0.184723 -0.282873 -3.072004
v 2.417410 2.052280 -3.296731
v 1.667588 3.701723 -5.062396
v -0.219973 4.387433 -3.521457
v -4.207355 2.096368 -1.819781
v -3.334841 0.558411 0.129343
v -0.138371 2.186971 6.723433
v -0.155090 4.143494 5.325723
v -0.138381 2.186971 -6.723433
v -0.139025 -0.028140 4.596810
v 2.166776 2.057677 4.961267
v -2.460891 2.057677 4.961267
v -2.445027 2.103210 -4.799925
v -0.131101 -0.028140 -4.449965
v 2.166776 2.103210 -4.799925
v -0.147148 4.234560 -5.149886
v -4.429624 2.089324 0.138840
v -0.558551 0.048107 0.126177
v 3.147256 2.089324 0.138840
v -0.143706 6.485841 0.132650
v -0.444011 4.193891 3.094775
v -0.352912 -0.201428 2.773907
v 2.759475 1.996232 2.934341
v -3.556398 1.996232 2.934341
v -3.540533 2.067010 -2.634160
v -0.344979 -0.201428 -2.500886
v 2.759475 2.067010 -2.634160
v -0.436079 4.335446 -2.767434
v -0.433756 5.282946 2.372575
v 2.773870 5.308191 0.142077
v -0.433766 5.333436 -2.088422
v -3.641392 5.308191 0.142077
vt 0.118325 0.136327
vt 0.308381 0.451840
vt 0.157976 0.037888
vt 0.343619 0.778360
vt 0.498109 0.773399
vt 0.684315 0.052535
vt 0.715578 0.156106
vt 0.509704 0.451296
vt 0.248697 0.173239
vt 0.307347 0.297972
vt 0.268274 0.070266
vt 0.347601 0.887726
vt 0.501593 0.881955
vt 0.574852 0.074477
vt 0.585670 0.180723
vt 0.509013 0.296482
vt 0.385939 0.103566
vt 0.403457 0.997993
vt 0.463921 0.104660
vt 0.476262 0.994968
vt 0.461330 0.174666
vt 0.385687 0.173582
vt 0.485936 0.249699
vt 0.538031 0.180451
vt 0.355446 0.248327
vt 0.308880 0.176525
vt 0.379909 0.925829
vt 0.318783 0.070280
vt 0.490294 0.921445
vt 0.533086 0.074556
vt 0.388732 0.581963
vt 0.000000 0.058925
vt 0.463023 0.580163
vt 0.831478 0.099928
vt 0.463698 0.655799
vt 0.800491 0.035705
vt 0.392642 0.657780
vt 0.039149 0.000000
vt 0.116058 0.010457
vt 0.373314 0.737826
vt 0.065551 0.107165
vt 0.357586 0.500733
vt 0.484542 0.734522
vt 0.722349 0.036504
vt 0.759439 0.138333
vt 0.487092 0.497972
vt 0.457662 0.343945
vt 0.374071 0.343845
vt 0.458064 0.406414
vt 0.374404 0.407436
vt 0.424208 0.141064
vt 0.423099 0.209853
vt 0.426936 0.615461
vt 0.438093 0.956567
vt 0.503481 0.135310
vt 0.344308 0.132556
vt 0.056026 0.046744
vt 0.429447 0.701446
vt 0.778185 0.079621
vt 0.425134 0.542261
vt 0.197860 0.105818
vt 0.421588 0.830361
vt 0.640027 0.114969
vt 0.418728 0.375648
vt 0.413499 0.268638
vt 0.430160 0.905766
vt 0.562058 0.125769
vt 0.278060 0.120710
vt 0.122067 0.075996
vt 0.425100 0.755240
vt 0.716036 0.096120
vt 0.414839 0.479222
vt 0.412398 0.305955
vt 0.500584 0.374642
vt 0.413175 0.444390
vt 0.323357 0.375579
vt 0.425144 0.096923
vt 0.440080 1.000000
vt 0.465650 0.142138
vt 0.423598 0.174447
vt 0.382496 0.140938
vt 0.478149 0.205061
vt 0.494394 0.181853
vt 0.419813 0.249279
vt 0.367321 0.203780
vt 0.352592 0.179632
vt 0.425945 0.581504
vt 0.473238 0.615233
vt 0.821661 0.068104
vt 0.428229 0.657842
vt 0.380678 0.617651
vt 0.014226 0.029162
vt 0.434992 0.920961
vt 0.486695 0.960474
vt 0.496716 0.087025
vt 0.389984 0.964444
vt 0.354514 0.084560
vt 0.541865 0.127685
vt 0.304724 0.123435
vt 0.076349 0.001834
vt 0.380390 0.694962
vt 0.097383 0.063451
vt 0.025512 0.083760
vt 0.369754 0.548894
vt 0.478106 0.692117
vt 0.762891 0.032902
vt 0.428985 0.739313
vt 0.736162 0.089869
vt 0.802349 0.120825
vt 0.479864 0.546464
vt 0.421454 0.499215
vt 0.147386 0.089149
vt 0.213136 0.053573
vt 0.340698 0.833159
vt 0.249557 0.118576
vt 0.182901 0.156582
vt 0.282480 0.375070
vt 0.421348 0.776791
vt 0.501568 0.827545
vt 0.629762 0.063681
vt 0.425059 0.884007
vt 0.586396 0.124342
vt 0.693183 0.103561
vt 0.650407 0.166632
vt 0.536507 0.373709
vt 0.417195 0.337335
vt 0.467916 0.375205
vt 0.417641 0.413851
vt 0.365658 0.375768
vt 0.409016 0.279368
vt 0.334822 0.270019
vt 0.283379 0.170963
vt 0.493423 0.270856
vt 0.558762 0.177256
vt 0.496320 0.904574
vt 0.551013 0.074392
vt 0.363619 0.909525
vt 0.295968 0.070667
vt 0.090318 0.116666
vt 0.336472 0.478420
vt 0.135125 0.023311
vt 0.358241 0.755943
vt 0.491508 0.751640
vt 0.705507 0.043416
vt 0.738612 0.143664
vt 0.494400 0.475946
vt 0.410102 0.469597
vt 0.478557 0.325917
vt 0.345885 0.326157
vt 0.479122 0.423541
vt 0.346416 0.424685
vn -0.444508 -0.617489 0.648937
vn 0.000398 -0.697293 0.716786
vn 0.000354 -0.203416 0.979092
vn -0.609134 -0.162778 0.776183
vn 0.447780 -0.616435 0.647689
vn 0.612871 -0.157836 0.774259
vn 0.519804 0.487375 0.701619
vn 0.000104 0.590012 0.807395
vn -0.519311 0.482829 0.705118
vn 0.005102 0.973524 0.228530
vn -0.633377 0.715357 0.295122
vn 0.643508 0.720418 0.258641
vn 0.630233 0.769186 0.105639
vn 0.009751 0.998775 0.048513
vn -0.613407 0.749476 0.249033
vn -0.540959 0.501188 -0.675406
vn -0.000231 0.610833 -0.791759
vn 0.000117 -0.197270 -0.980349
vn -0.642087 -0.154706 -0.750860
vn 0.539686 0.504097 -0.674260
vn 0.642926 -0.150145 -0.751068
vn 0.476366 -0.627363 -0.616029
vn 0.000197 -0.718299 -0.695735
vn -0.474727 -0.629317 -0.615300
vn -0.566519 -0.772434 0.287056
vn 0.010217 -0.993080 0.116991
vn 0.004209 -0.941100 0.338102
vn -0.589633 -0.721582 0.362840
vn 0.604640 -0.778994 0.166069
vn 0.610320 -0.719791 0.330773
vn 0.946909 -0.076215 0.312339
vn 0.964833 -0.073585 0.252353
vn -0.873771 -0.108507 0.474079
vn -0.925901 -0.093708 0.365960
vn -0.610630 -0.718312 -0.333406
vn -0.938048 -0.085818 -0.335711
vn -0.585805 -0.762411 -0.274885
vn -0.887857 -0.094988 -0.450209
vn -0.620893 0.743531 -0.248303
vn -0.644021 0.705854 -0.294971
vn 0.004069 -0.949311 -0.314312
vn 0.628583 -0.715243 -0.305469
vn 0.622622 -0.766713 -0.156499
vn 0.010621 -0.993868 -0.110062
vn 0.638894 0.760966 -0.112894
vn 0.969485 -0.063476 -0.236789
vn 0.954287 -0.070365 -0.290491
vn 0.652991 0.709939 -0.263798
vn 0.010080 0.997816 -0.065277
vn 0.004841 0.969392 -0.245469
vn -0.775387 0.380824 -0.503734
vn -0.933167 -0.189669 -0.305328
vn -0.976710 -0.214553 -0.001982
vn -0.949968 0.312310 0.004858
vn -0.517908 -0.848888 -0.105645
vn -0.500582 -0.865682 -0.003482
vn -0.512771 -0.853592 0.091903
vn -0.934860 -0.194689 0.296871
vn -0.767627 0.383323 0.513627
vn -0.005141 -0.998165 0.060343
vn -0.003306 -0.999994 -0.001474
vn 0.529808 -0.848117 -0.000550
vn 0.506998 -0.861944 -0.002588
vn 0.524456 -0.851413 -0.006462
vn -0.004782 -0.997945 -0.063900
vn 0.786176 0.372641 0.493018
vn 0.971861 -0.153046 0.179060
vn 0.983988 -0.178234 -0.000631
vn 0.972846 0.231408 0.004628
vn 0.972018 -0.149965 -0.180806
vn 0.797456 0.369128 -0.477293
vn -0.269300 0.866442 0.420424
vn 0.008356 0.869754 0.493415
vn 0.004929 0.999973 0.005503
vn -0.344582 0.938729 0.007098
vn 0.307692 0.834365 0.457341
vn 0.417050 0.908859 0.006637
vn 0.307655 0.840862 -0.445309
vn 0.008611 0.876316 -0.481660
vn -0.268969 0.872874 -0.407120
vn -0.025143 0.585453 0.810317
vn -0.001321 0.952496 0.304550
vn 0.592339 0.699743 0.399368
vn -0.522100 0.548518 0.653100
vn -0.001194 -0.993195 -0.116456
vn -0.520593 -0.807225 0.278156
vn 0.570902 -0.820272 0.034985
vn 0.921354 -0.088177 0.378591
vn -0.739086 -0.132965 0.660358
vn -0.733593 -0.120046 -0.668903
vn -0.531850 -0.793102 -0.296859
vn -0.533537 0.550951 -0.641710
vn -0.001218 -0.993876 0.110494
vn 0.584156 -0.810495 -0.043121
vn 0.922385 -0.078775 -0.378154
vn 0.605925 0.703588 -0.371240
vn -0.027983 0.594436 -0.803656
vn -0.000419 0.963959 -0.266051
vn 0.002310 0.527624 0.849475
vn -0.472235 0.630339 0.616171
vn 0.532354 0.518804 0.668911
vn 0.864817 0.502038 0.007078
vn 0.537599 0.523850 -0.660733
vn 0.002437 0.533997 -0.845483
vn -0.476741 0.638152 -0.604550
vn -0.745055 0.666942 0.009039
s 1
g pCube27
usemtl initialShadingGroup
f 9/17/1 55/77/2 81/51/3 58/81/4
f 55/77/2 10/19/5 56/79/6 81/51/3
f 81/51/3 56/79/6 11/21/7 57/80/8
f 58/81/4 81/51/3 57/80/8 12/22/9
f 12/22/9 57/80/8 82/52/10 61/85/11
f 57/80/8 11/21/7 59/82/12 82/52/10
f 82/52/10 59/82/12 13/23/13 60/84/14
f 61/85/11 82/52/10 60/84/14 14/25/15
f 17/31/16 62/87/17 83/53/18 65/91/19
f 62/87/17 18/33/20 63/88/21 83/53/18
f 83/53/18 63/88/21 19/35/22 64/90/23
f 65/91/19 83/53/18 64/90/23 20/37/24
f 15/27/25 66/93/26 84/54/27 68/96/28
f 66/93/26 16/29/29 67/94/30 84/54/27
f 84/54/27 67/94/30 10/20/5 55/78/2
f 68/96/28 84/54/27 55/78/2 9/18/1
f 10/19/5 67/95/30 85/55/31 56/79/6
f 67/95/30 16/30/29 69/98/32 85/55/31
f 85/55/31 69/98/32 13/24/13 59/83/12
f 56/79/6 85/55/31 59/83/12 11/21/7
f 14/26/15 70/99/33 86/56/34 61/86/11
f 70/99/33 15/28/25 68/97/28 86/56/34
f 86/56/34 68/97/28 9/17/1 58/81/4
f 61/86/11 86/56/34 58/81/4 12/22/9
f 20/38/24 71/100/35 87/57/36 65/92/19
f 71/100/35 21/39/37 72/102/38 87/57/36
f 87/57/36 72/102/38 22/41/39 73/103/40
f 65/92/19 87/57/36 73/103/40 17/32/16
f 20/37/24 64/90/23 88/58/41 71/101/35
f 64/90/23 19/35/22 74/105/42 88/58/41
f 88/58/41 74/105/42 23/43/43 75/107/44
f 71/101/35 88/58/41 75/107/44 21/40/37
f 24/45/45 76/108/46 89/59/47 77/109/48
f 76/108/46 23/44/43 74/106/42 89/59/47
f 89/59/47 74/106/42 19/36/22 63/89/21
f 77/109/48 89/59/47 63/89/21 18/34/20
f 22/42/39 78/111/49 90/60/50 73/104/40
f 78/111/49 24/46/45 77/110/48 90/60/50
f 90/60/50 77/110/48 18/33/20 62/87/17
f 73/104/40 90/60/50 62/87/17 17/31/16
f 1/1/51 79/112/52 91/61/53 30/116/54
f 79/112/52 2/3/55 80/113/56 91/61/53
f 91/61/53 80/113/56 6/11/57 29/115/58
f 30/116/54 91/61/53 29/115/58 5/9/59
f 2/4/55 31/118/60 92/62/61 80/114/56
f 31/118/60 3/5/62 32/119/63 92/62/61
f 92/62/61 32/119/63 7/13/64 33/121/65
f 80/114/56 92/62/61 33/121/65 6/12/57
f 8/15/66 34/122/67 93/63/68 36/124/69
f 34/122/67 7/14/64 32/120/63 93/63/68
f 93/63/68 32/120/63 3/6/62 35/123/70
f 36/124/69 93/63/68 35/123/70 4/7/71
f 26/48/72 37/126/73 94/64/74 40/129/75
f 37/126/73 25/47/76 38/127/77 94/64/74
f 94/64/74 38/127/77 27/49/78 39/128/79
f 40/129/75 94/64/74 39/128/79 28/50/80
f 8/16/66 41/130/81 95/65/82 43/133/83
f 41/130/81 5/10/59 42/131/84 95/65/82
f 95/65/82 42/131/84 14/25/15 60/84/14
f 43/133/83 95/65/82 60/84/14 13/23/13
f 6/12/57 33/121/65 96/66/85 45/137/86
f 33/121/65 7/13/64 44/135/87 96/66/85
f 96/66/85 44/135/87 16/29/29 66/93/26
f 45/137/86 96/66/85 66/93/26 15/27/25
f 7/14/64 34/122/67 97/67/88 44/136/87
f 34/122/67 8/15/66 43/134/83 97/67/88
f 97/67/88 43/134/83 13/24/13 69/98/32
f 44/136/87 97/67/88 69/98/32 16/30/29
f 5/9/59 29/115/58 98/68/89 42/132/84
f 29/115/58 6/11/57 45/138/86 98/68/89
f 98/68/89 45/138/86 15/28/25 70/99/33
f 42/132/84 98/68/89 70/99/33 14/26/15
f 2/3/55 79/112/52 99/69/90 47/141/91
f 79/112/52 1/1/51 46/139/92 99/69/90
f 99/69/90 46/139/92 22/41/39 72/102/38
f 47/141/91 99/69/90 72/102/38 21/39/37
f 3/5/62 31/118/60 100/70/93 48/143/94
f 31/118/60 2/4/55 47/142/91 100/70/93
f 100/70/93 47/142/91 21/40/37 75/107/44
f 48/143/94 100/70/93 75/107/44 23/43/43
f 4/7/71 35/123/70 101/71/95 49/145/96
f 35/123/70 3/6/62 48/144/94 101/71/95
f 101/71/95 48/144/94 23/44/43 76/108/46
f 49/145/96 101/71/95 76/108/46 24/45/45
f 1/2/51 50/147/97 102/72/98 46/140/92
f 50/147/97 4/8/71 49/146/96 102/72/98
f 102/72/98 49/146/96 24/46/45 78/111/49
f 46/140/92 102/72/98 78/111/49 22/42/39
f 5/10/59 41/130/81 103/73/99 52/149/100
f 41/130/81 8/16/66 51/148/101 103/73/99
f 103/73/99 51/148/101 25/47/76 37/126/73
f 52/149/100 103/73/99 37/126/73 26/48/72
f 8/16/66 36/125/69 104/74/102 51/148/101
f 36/125/69 4/8/71 53/150/103 104/74/102
f 104/74/102 53/150/103 27/49/78 38/127/77
f 51/148/101 104/74/102 38/127/77 25/47/76
f 4/8/71 50/147/97 105/75/104 53/150/103
f 50/147/97 1/2/51 54/151/105 105/75/104
f 105/75/104 54/151/105 28/50/80 39/128/79
f 53/150/103 105/75/104 39/128/79 27/49/78
f 1/2/51 30/117/54 106/76/106 54/151/105
f 30/117/54 5/10/59 52/149/100 106/76/106
f 106/76/106 52/149/100 26/48/72 40/129/75
f 54/151/105 106/76/106 40/129/75 28/50/80
