# This file uses centimeters as units for non-parametric coordinates.

mtllib Escudo.mtl
g default
v 0.250000 0.126140 -0.181636
v 0.095491 0.126140 -0.293893
v -0.095492 0.126140 -0.293893
v -0.250000 0.126140 -0.181636
v -0.309017 0.126140 0.000000
v -0.250000 0.126140 0.181636
v -0.095491 0.126140 0.293893
v 0.095492 0.126140 0.293893
v 0.250000 0.126140 0.181636
v 0.309017 0.126140 0.000000
v 0.475528 0.268179 -0.345492
v 0.181636 0.268180 -0.559017
v -0.181636 0.268180 -0.559017
v -0.475528 0.268179 -0.345491
v -0.587785 0.268179 0.000000
v -0.475528 0.268179 0.345492
v -0.181636 0.268179 0.559017
v 0.181636 0.268179 0.559017
v 0.475528 0.268179 0.345491
v 0.587785 0.268179 0.000000
v 0.654509 0.489411 -0.475528
v 0.250000 0.489412 -0.769421
v -0.250000 0.489412 -0.769421
v -0.654509 0.489411 -0.475528
v -0.809017 0.489411 0.000000
v -0.654509 0.489411 0.475528
v -0.250000 0.489411 0.769421
v 0.250000 0.489411 0.769421
v 0.654509 0.489411 0.475528
v 0.809017 0.489411 0.000000
v 0.769421 0.768179 -0.559017
v 0.293893 0.768179 -0.904509
v -0.293893 0.768179 -0.904509
v -0.769421 0.768179 -0.559017
v -0.951057 0.768179 0.000000
v -0.769421 0.768179 0.559017
v -0.293893 0.768179 0.904509
v 0.293893 0.768179 0.904509
v 0.769421 0.768179 0.559017
v 0.951057 0.768179 0.000000
v 0.809017 1.077196 -0.587785
v 0.309017 1.077196 -0.951057
v -0.309017 1.077196 -0.951057
v -0.809017 1.077196 -0.587785
v -1.000000 1.077196 0.000000
v -0.809017 1.077196 0.587785
v -0.309017 1.077196 0.951057
v 0.309017 1.077196 0.951057
v 0.809017 1.077196 0.587785
v 1.000000 1.077196 0.000000
v 0.769421 1.386213 -0.559017
v 0.293893 1.386213 -0.904509
v -0.293893 1.386213 -0.904509
v -0.769421 1.386213 -0.559017
v -0.951057 1.386213 0.000000
v -0.769421 1.386213 0.559017
v -0.293893 1.386213 0.904509
v 0.293893 1.386213 0.904509
v 0.769421 1.386213 0.559017
v 0.951057 1.386213 0.000000
v 0.654509 1.664981 -0.475528
v 0.250000 1.664981 -0.769421
v -0.250000 1.664981 -0.769421
v -0.654509 1.664981 -0.475528
v -0.809017 1.664981 0.000000
v -0.654509 1.664981 0.475528
v -0.250000 1.664981 0.769421
v 0.250000 1.664981 0.769421
v 0.654509 1.664981 0.475528
v 0.809017 1.664981 0.000000
v 0.475528 1.886213 -0.345492
v 0.181636 1.886213 -0.559017
v -0.181636 1.886212 -0.559017
v -0.475528 1.886213 -0.345491
v -0.587785 1.886213 0.000000
v -0.475528 1.886213 0.345492
v -0.181636 1.886213 0.559017
v 0.181636 1.886213 0.559017
v 0.475528 1.886213 0.345491
v 0.587785 1.886213 0.000000
v 0.250000 2.028253 -0.181636
v 0.095491 2.028253 -0.293893
v -0.095492 2.028253 -0.293893
v -0.250000 2.028253 -0.181636
v -0.309017 2.028253 0.000000
v -0.250000 2.028253 0.181636
v -0.095491 2.028253 0.293893
v 0.095492 2.028253 0.293893
v 0.250000 2.028253 0.181636
v 0.309017 2.028253 0.000000
v 0.000000 0.077196 0.000000
v 0.000000 2.077196 0.000000
vt 0.825170 0.607346
vt 0.763671 0.625038
vt 0.768868 0.574755
vt 0.836779 0.562410
vt 0.818685 0.641430
vt 0.792239 0.675003
vt 0.681344 0.625870
vt 0.683244 0.575378
vt 0.770779 0.524234
vt 0.841745 0.516494
vt 0.902605 0.598627
vt 0.914740 0.576378
vt 0.660820 0.676061
vt 0.598364 0.628165
vt 0.598568 0.577431
vt 0.683468 0.524668
vt 0.769403 0.473774
vt 0.839579 0.470379
vt 0.938556 0.566243
vt 0.597872 0.526373
vt 0.682250 0.474051
vt 0.765273 0.423534
vt 0.830787 0.424727
vt 0.934292 0.466933
vt 0.596642 0.475372
vt 0.680080 0.423767
vt 0.759953 0.373126
vt 0.818035 0.379406
vt 0.914907 0.414114
vt 0.595340 0.424775
vt 0.677889 0.373626
vt 0.430601 0.632447
vt 0.345866 0.633465
vt 0.343680 0.583178
vt 0.429282 0.581849
vt 0.431391 0.682648
vt 0.333991 0.683607
vt 0.260680 0.633713
vt 0.256532 0.583470
vt 0.342453 0.532558
vt 0.428045 0.530846
vt 0.514777 0.630561
vt 0.514081 0.579783
vt 0.266025 0.684122
vt 0.178489 0.615565
vt 0.169364 0.573402
vt 0.255145 0.533005
vt 0.342674 0.481844
vt 0.427351 0.479786
vt 0.512958 0.528608
vt 0.167106 0.530808
vt 0.257051 0.482479
vt 0.344580 0.431350
vt 0.427565 0.429051
vt 0.511840 0.477434
vt 0.172241 0.488397
vt 0.262249 0.416533
vt 0.347896 0.381158
vt 0.428844 0.378757
vt 0.511158 0.426655
vt 0.184263 0.431232
vt 0.269707 0.368132
vt 0.560056 0.160504
vt 0.533094 0.139290
vt 0.191723 0.657420
vt 0.513931 0.191388
vt 0.498812 0.137976
vt 0.851551 0.666445
vt 0.569400 0.193514
vt 0.611616 0.194762
vt 0.470305 0.157063
vt 0.434879 0.113560
vt 0.557557 0.225712
vt 0.602378 0.259819
vt 0.458462 0.189261
vt 0.438169 0.188013
vt 0.529050 0.244799
vt 0.520906 0.680850
vt 0.467806 0.222271
vt 0.494768 0.243485
vt 0.597107 0.678459
vt 0.511017 0.957417
vt 0.440481 0.953075
vt 0.463613 0.895403
vt 0.498594 0.899398
vt 0.387809 0.900870
vt 0.437660 0.871610
vt 0.487251 0.843570
vt 0.572476 0.920437
vt 0.529243 0.882068
vt 0.373120 0.831476
vt 0.430649 0.837106
vt 0.601381 0.855663
vt 0.543852 0.850033
vt 0.402026 0.766702
vt 0.445259 0.805071
vt 0.607050 0.786269
vt 0.536842 0.815529
vt 0.463484 0.731288
vt 0.475907 0.787741
vt 0.554378 0.738762
vt 0.510889 0.791736
vt 0.091368 0.598770
vt 0.058739 0.576610
vt 0.066831 0.569226
vt 0.078510 0.475516
vt 0.104054 0.430371
vt 0.551527 0.298738
vt 0.476180 0.296652
vt 0.404292 0.254359
vt 0.463808 0.084037
vt 0.551682 0.086123
vt 0.606345 0.128416
vt 0.531675 0.376366
vt 0.614934 0.374574
vt 0.884830 0.368152
vt 0.200716 0.395773
vt 0.103753 0.667832
vt 0.137473 0.392319
vn 0.277577 -0.881468 -0.382055
vn 0.277577 -0.881468 -0.382055
vn 0.277577 -0.881468 -0.382055
vn 0.277577 -0.881468 -0.382055
vn -0.000000 -0.881467 -0.472246
vn -0.000000 -0.881467 -0.472246
vn -0.000000 -0.881467 -0.472246
vn -0.000000 -0.881467 -0.472246
vn -0.277577 -0.881468 -0.382055
vn -0.277577 -0.881468 -0.382055
vn -0.277577 -0.881468 -0.382055
vn -0.277577 -0.881468 -0.382055
vn -0.449130 -0.881468 -0.145931
vn -0.449130 -0.881468 -0.145931
vn -0.449130 -0.881468 -0.145931
vn -0.449130 -0.881468 -0.145931
vn -0.449131 -0.881468 0.145931
vn -0.449131 -0.881468 0.145931
vn -0.449131 -0.881468 0.145931
vn -0.449131 -0.881468 0.145931
vn -0.277578 -0.881468 0.382053
vn -0.277578 -0.881468 0.382053
vn -0.277578 -0.881468 0.382053
vn -0.277578 -0.881468 0.382053
vn 0.000000 -0.881468 0.472244
vn 0.000000 -0.881468 0.472244
vn 0.000000 -0.881468 0.472244
vn 0.000000 -0.881468 0.472244
vn 0.277578 -0.881468 0.382053
vn 0.277578 -0.881468 0.382053
vn 0.277578 -0.881468 0.382053
vn 0.277578 -0.881468 0.382053
vn 0.449130 -0.881468 0.145931
vn 0.449131 -0.881468 0.145931
vn 0.449131 -0.881468 0.145931
vn 0.449131 -0.881468 0.145931
vn 0.449131 -0.881468 -0.145931
vn 0.449131 -0.881468 -0.145931
vn 0.449131 -0.881468 -0.145931
vn 0.449131 -0.881468 -0.145931
vn 0.425918 -0.689152 -0.586228
vn 0.425918 -0.689152 -0.586228
vn 0.425918 -0.689152 -0.586228
vn 0.425918 -0.689152 -0.586228
vn -0.000000 -0.689152 -0.724617
vn -0.000000 -0.689152 -0.724617
vn -0.000000 -0.689152 -0.724617
vn -0.000000 -0.689152 -0.724617
vn -0.425918 -0.689152 -0.586228
vn -0.425918 -0.689152 -0.586228
vn -0.425918 -0.689152 -0.586228
vn -0.425918 -0.689152 -0.586228
vn -0.689152 -0.689152 -0.223919
vn -0.689152 -0.689152 -0.223919
vn -0.689152 -0.689152 -0.223919
vn -0.689152 -0.689152 -0.223919
vn -0.689152 -0.689152 0.223919
vn -0.689152 -0.689152 0.223919
vn -0.689152 -0.689152 0.223919
vn -0.689152 -0.689152 0.223919
vn -0.425919 -0.689152 0.586227
vn -0.425919 -0.689152 0.586227
vn -0.425919 -0.689152 0.586227
vn -0.425919 -0.689152 0.586227
vn 0.000000 -0.689152 0.724617
vn 0.000000 -0.689152 0.724617
vn 0.000000 -0.689152 0.724617
vn 0.000000 -0.689152 0.724617
vn 0.425919 -0.689152 0.586227
vn 0.425919 -0.689152 0.586227
vn 0.425919 -0.689152 0.586227
vn 0.425919 -0.689152 0.586227
vn 0.689152 -0.689152 0.223919
vn 0.689152 -0.689152 0.223919
vn 0.689152 -0.689152 0.223919
vn 0.689152 -0.689152 0.223919
vn 0.689152 -0.689152 -0.223919
vn 0.689152 -0.689152 -0.223919
vn 0.689152 -0.689152 -0.223919
vn 0.689152 -0.689152 -0.223919
vn 0.528951 -0.436084 -0.728039
vn 0.528951 -0.436084 -0.728039
vn 0.528951 -0.436084 -0.728039
vn 0.528951 -0.436084 -0.728039
vn -0.000000 -0.436084 -0.899906
vn -0.000000 -0.436084 -0.899906
vn -0.000000 -0.436084 -0.899906
vn -0.000000 -0.436084 -0.899906
vn -0.528951 -0.436084 -0.728040
vn -0.528951 -0.436084 -0.728040
vn -0.528951 -0.436084 -0.728040
vn -0.528951 -0.436084 -0.728040
vn -0.855862 -0.436083 -0.278086
vn -0.855862 -0.436083 -0.278086
vn -0.855862 -0.436083 -0.278086
vn -0.855862 -0.436083 -0.278086
vn -0.855862 -0.436083 0.278086
vn -0.855862 -0.436083 0.278086
vn -0.855862 -0.436083 0.278086
vn -0.855862 -0.436083 0.278086
vn -0.528952 -0.436083 0.728040
vn -0.528952 -0.436083 0.728040
vn -0.528952 -0.436083 0.728040
vn -0.528952 -0.436083 0.728040
vn 0.000000 -0.436083 0.899906
vn 0.000000 -0.436083 0.899906
vn 0.000000 -0.436083 0.899906
vn 0.000000 -0.436083 0.899906
vn 0.528952 -0.436083 0.728040
vn 0.528952 -0.436083 0.728040
vn 0.528952 -0.436083 0.728040
vn 0.528952 -0.436083 0.728040
vn 0.855862 -0.436083 0.278086
vn 0.855862 -0.436083 0.278086
vn 0.855862 -0.436083 0.278086
vn 0.855862 -0.436083 0.278086
vn 0.855862 -0.436084 -0.278086
vn 0.855862 -0.436084 -0.278086
vn 0.855862 -0.436084 -0.278086
vn 0.855862 -0.436084 -0.278086
vn 0.581228 -0.148952 -0.799992
vn 0.581228 -0.148952 -0.799992
vn 0.581228 -0.148952 -0.799992
vn 0.581228 -0.148952 -0.799992
vn -0.000000 -0.148952 -0.988844
vn -0.000000 -0.148952 -0.988844
vn -0.000000 -0.148952 -0.988844
vn -0.000000 -0.148952 -0.988844
vn -0.581228 -0.148952 -0.799992
vn -0.581228 -0.148952 -0.799992
vn -0.581228 -0.148952 -0.799992
vn -0.581228 -0.148952 -0.799992
vn -0.940447 -0.148952 -0.305570
vn -0.940447 -0.148952 -0.305570
vn -0.940447 -0.148952 -0.305570
vn -0.940447 -0.148952 -0.305570
vn -0.940447 -0.148952 0.305570
vn -0.940447 -0.148952 0.305570
vn -0.940447 -0.148952 0.305570
vn -0.940447 -0.148952 0.305570
vn -0.581228 -0.148952 0.799992
vn -0.581228 -0.148952 0.799992
vn -0.581228 -0.148952 0.799992
vn -0.581228 -0.148952 0.799992
vn 0.000000 -0.148952 0.988844
vn 0.000000 -0.148952 0.988844
vn 0.000000 -0.148952 0.988844
vn 0.000000 -0.148952 0.988844
vn 0.581228 -0.148952 0.799992
vn 0.581228 -0.148952 0.799992
vn 0.581228 -0.148952 0.799992
vn 0.581228 -0.148952 0.799992
vn 0.940447 -0.148952 0.305570
vn 0.940447 -0.148952 0.305570
vn 0.940447 -0.148952 0.305570
vn 0.940447 -0.148952 0.305570
vn 0.940447 -0.148952 -0.305569
vn 0.940447 -0.148952 -0.305570
vn 0.940447 -0.148952 -0.305570
vn 0.940447 -0.148952 -0.305570
vn 0.581228 0.148952 -0.799992
vn 0.581228 0.148952 -0.799992
vn 0.581228 0.148952 -0.799992
vn 0.581228 0.148952 -0.799992
vn -0.000000 0.148952 -0.988844
vn -0.000000 0.148952 -0.988844
vn -0.000000 0.148952 -0.988844
vn -0.000000 0.148952 -0.988844
vn -0.581228 0.148952 -0.799992
vn -0.581228 0.148952 -0.799992
vn -0.581228 0.148952 -0.799992
vn -0.581228 0.148952 -0.799992
vn -0.940447 0.148952 -0.305570
vn -0.940447 0.148952 -0.305570
vn -0.940447 0.148952 -0.305570
vn -0.940447 0.148952 -0.305570
vn -0.940447 0.148952 0.305570
vn -0.940447 0.148952 0.305570
vn -0.940447 0.148952 0.305570
vn -0.940447 0.148952 0.305570
vn -0.581228 0.148952 0.799992
vn -0.581228 0.148952 0.799992
vn -0.581228 0.148952 0.799992
vn -0.581228 0.148952 0.799992
vn 0.000000 0.148952 0.988844
vn 0.000000 0.148952 0.988844
vn 0.000000 0.148952 0.988844
vn 0.000000 0.148952 0.988844
vn 0.581228 0.148952 0.799992
vn 0.581228 0.148952 0.799992
vn 0.581228 0.148952 0.799992
vn 0.581228 0.148952 0.799992
vn 0.940447 0.148952 0.305570
vn 0.940447 0.148952 0.305570
vn 0.940447 0.148952 0.305570
vn 0.940447 0.148952 0.305570
vn 0.940447 0.148952 -0.305570
vn 0.940447 0.148952 -0.305570
vn 0.940447 0.148952 -0.305570
vn 0.940447 0.148952 -0.305570
vn 0.528951 0.436084 -0.728039
vn 0.528951 0.436084 -0.728039
vn 0.528951 0.436084 -0.728039
vn 0.528951 0.436084 -0.728039
vn -0.000000 0.436084 -0.899906
vn -0.000000 0.436084 -0.899906
vn -0.000000 0.436084 -0.899906
vn -0.000000 0.436084 -0.899906
vn -0.528951 0.436084 -0.728039
vn -0.528951 0.436084 -0.728039
vn -0.528951 0.436084 -0.728039
vn -0.528951 0.436084 -0.728039
vn -0.855862 0.436083 -0.278086
vn -0.855862 0.436083 -0.278086
vn -0.855862 0.436083 -0.278086
vn -0.855862 0.436083 -0.278086
vn -0.855862 0.436083 0.278086
vn -0.855862 0.436083 0.278086
vn -0.855862 0.436083 0.278086
vn -0.855862 0.436083 0.278086
vn -0.528952 0.436083 0.728040
vn -0.528952 0.436083 0.728040
vn -0.528952 0.436083 0.728040
vn -0.528952 0.436083 0.728040
vn 0.000000 0.436083 0.899906
vn 0.000000 0.436083 0.899906
vn 0.000000 0.436083 0.899906
vn 0.000000 0.436083 0.899906
vn 0.528952 0.436083 0.728040
vn 0.528952 0.436083 0.728040
vn 0.528952 0.436083 0.728040
vn 0.528952 0.436083 0.728040
vn 0.855862 0.436083 0.278086
vn 0.855862 0.436083 0.278086
vn 0.855862 0.436083 0.278086
vn 0.855862 0.436083 0.278086
vn 0.855862 0.436084 -0.278086
vn 0.855862 0.436084 -0.278086
vn 0.855862 0.436084 -0.278086
vn 0.855862 0.436084 -0.278086
vn 0.425918 0.689152 -0.586228
vn 0.425918 0.689152 -0.586228
vn 0.425918 0.689152 -0.586228
vn 0.425918 0.689152 -0.586228
vn -0.000000 0.689152 -0.724617
vn -0.000000 0.689152 -0.724617
vn -0.000000 0.689152 -0.724617
vn -0.000000 0.689152 -0.724617
vn -0.425918 0.689152 -0.586228
vn -0.425918 0.689152 -0.586228
vn -0.425918 0.689152 -0.586228
vn -0.425918 0.689152 -0.586228
vn -0.689152 0.689152 -0.223919
vn -0.689152 0.689152 -0.223919
vn -0.689152 0.689152 -0.223919
vn -0.689152 0.689152 -0.223919
vn -0.689152 0.689152 0.223919
vn -0.689152 0.689152 0.223919
vn -0.689152 0.689152 0.223919
vn -0.689152 0.689152 0.223919
vn -0.425919 0.689152 0.586228
vn -0.425919 0.689152 0.586228
vn -0.425919 0.689152 0.586228
vn -0.425919 0.689152 0.586228
vn 0.000000 0.689152 0.724617
vn 0.000000 0.689152 0.724617
vn 0.000000 0.689152 0.724617
vn 0.000000 0.689152 0.724617
vn 0.425919 0.689152 0.586228
vn 0.425919 0.689152 0.586228
vn 0.425919 0.689152 0.586228
vn 0.425919 0.689152 0.586228
vn 0.689152 0.689152 0.223919
vn 0.689152 0.689152 0.223919
vn 0.689152 0.689152 0.223919
vn 0.689152 0.689152 0.223919
vn 0.689152 0.689152 -0.223919
vn 0.689152 0.689152 -0.223919
vn 0.689152 0.689152 -0.223919
vn 0.689152 0.689152 -0.223919
vn 0.277577 0.881468 -0.382055
vn 0.277577 0.881468 -0.382055
vn 0.277577 0.881468 -0.382054
vn 0.277577 0.881468 -0.382055
vn -0.000000 0.881467 -0.472246
vn -0.000000 0.881467 -0.472246
vn -0.000000 0.881467 -0.472246
vn -0.000000 0.881467 -0.472246
vn -0.277577 0.881468 -0.382055
vn -0.277577 0.881468 -0.382055
vn -0.277577 0.881468 -0.382055
vn -0.277577 0.881468 -0.382055
vn -0.449130 0.881468 -0.145931
vn -0.449130 0.881468 -0.145931
vn -0.449130 0.881468 -0.145931
vn -0.449130 0.881468 -0.145931
vn -0.449130 0.881468 0.145931
vn -0.449130 0.881468 0.145931
vn -0.449130 0.881468 0.145931
vn -0.449130 0.881468 0.145931
vn -0.277578 0.881468 0.382053
vn -0.277578 0.881468 0.382053
vn -0.277578 0.881468 0.382053
vn -0.277578 0.881468 0.382053
vn 0.000000 0.881468 0.472244
vn 0.000000 0.881468 0.472244
vn 0.000000 0.881468 0.472244
vn 0.000000 0.881468 0.472244
vn 0.277578 0.881468 0.382053
vn 0.277578 0.881468 0.382053
vn 0.277578 0.881468 0.382053
vn 0.277578 0.881468 0.382053
vn 0.449131 0.881468 0.145931
vn 0.449131 0.881468 0.145931
vn 0.449130 0.881468 0.145931
vn 0.449130 0.881468 0.145931
vn 0.449130 0.881468 -0.145931
vn 0.449131 0.881468 -0.145931
vn 0.449131 0.881468 -0.145931
vn 0.449130 0.881468 -0.145931
vn 0.096557 -0.986415 -0.132899
vn 0.096557 -0.986415 -0.132899
vn 0.096557 -0.986415 -0.132899
vn -0.000000 -0.986415 -0.164273
vn -0.000000 -0.986415 -0.164273
vn -0.000000 -0.986415 -0.164273
vn -0.096557 -0.986415 -0.132899
vn -0.096557 -0.986415 -0.132899
vn -0.096557 -0.986415 -0.132899
vn -0.156233 -0.986415 -0.050763
vn -0.156233 -0.986415 -0.050763
vn -0.156233 -0.986415 -0.050763
vn -0.156233 -0.986415 0.050763
vn -0.156233 -0.986415 0.050763
vn -0.156233 -0.986415 0.050763
vn -0.096557 -0.986415 0.132899
vn -0.096557 -0.986415 0.132899
vn -0.096557 -0.986415 0.132899
vn 0.000000 -0.986415 0.164273
vn 0.000000 -0.986415 0.164273
vn 0.000000 -0.986415 0.164273
vn 0.096557 -0.986415 0.132899
vn 0.096557 -0.986415 0.132899
vn 0.096557 -0.986415 0.132899
vn 0.156233 -0.986415 0.050763
vn 0.156233 -0.986415 0.050763
vn 0.156233 -0.986415 0.050763
vn 0.156233 -0.986415 -0.050763
vn 0.156233 -0.986415 -0.050763
vn 0.156233 -0.986415 -0.050763
vn 0.096557 0.986415 -0.132899
vn 0.096557 0.986415 -0.132899
vn 0.096557 0.986415 -0.132899
vn -0.000000 0.986415 -0.164272
vn -0.000000 0.986415 -0.164272
vn -0.000000 0.986415 -0.164272
vn -0.096557 0.986415 -0.132899
vn -0.096557 0.986415 -0.132899
vn -0.096557 0.986415 -0.132899
vn -0.156232 0.986415 -0.050764
vn -0.156232 0.986415 -0.050764
vn -0.156232 0.986415 -0.050764
vn -0.156232 0.986415 0.050764
vn -0.156232 0.986415 0.050764
vn -0.156232 0.986415 0.050764
vn -0.096557 0.986415 0.132899
vn -0.096557 0.986415 0.132899
vn -0.096557 0.986415 0.132899
vn 0.000000 0.986415 0.164272
vn 0.000000 0.986415 0.164272
vn 0.000000 0.986415 0.164272
vn 0.096557 0.986415 0.132899
vn 0.096557 0.986415 0.132899
vn 0.096557 0.986415 0.132899
vn 0.156232 0.986415 0.050764
vn 0.156232 0.986415 0.050764
vn 0.156232 0.986415 0.050764
vn 0.156232 0.986415 -0.050764
vn 0.156232 0.986415 -0.050764
vn 0.156232 0.986415 -0.050764
s off
g pSphere1
usemtl aiStandardSurface1SG
f 1/63/1 2/64/2 12/112/3 11/113/4
f 2/64/5 3/67/6 13/111/7 12/112/8
f 3/67/9 4/71/10 14/72/11 13/111/12
f 4/71/13 5/75/14 15/76/15 14/72/16
f 5/75/17 6/79/18 16/110/19 15/76/20
f 6/79/21 7/80/22 17/109/23 16/110/24
f 7/80/25 8/77/26 18/108/27 17/109/28
f 8/77/29 9/73/30 19/74/31 18/108/32
f 9/73/33 10/69/34 20/70/35 19/74/36
f 10/69/37 1/63/38 11/113/39 20/70/40
f 11/44/41 12/65/42 22/45/43 21/38/44
f 12/65/45 13/118/46 23/103/47 22/45/48
f 13/68/49 14/5/50 24/1/51 23/11/52
f 14/5/53 15/6/54 25/2/55 24/1/56
f 15/6/57 16/13/58 26/7/59 25/2/60
f 16/13/61 17/81/62 27/14/63 26/7/64
f 17/81/65 18/78/66 28/42/67 27/14/68
f 18/78/69 19/36/70 29/32/71 28/42/72
f 19/36/73 20/37/74 30/33/75 29/32/76
f 20/37/77 11/44/78 21/38/79 30/33/80
f 21/38/81 22/45/82 32/46/83 31/39/84
f 22/45/85 23/103/86 33/104/87 32/46/88
f 23/11/89 24/1/90 34/4/91 33/12/92
f 24/1/93 25/2/94 35/3/95 34/4/96
f 25/2/97 26/7/98 36/8/99 35/3/100
f 26/7/101 27/14/102 37/15/103 36/8/104
f 27/14/105 28/42/106 38/43/107 37/15/108
f 28/42/109 29/32/110 39/35/111 38/43/112
f 29/32/113 30/33/114 40/34/115 39/35/116
f 30/33/117 21/38/118 31/39/119 40/34/120
f 31/39/121 32/46/122 42/51/123 41/47/124
f 32/46/125 33/104/126 43/105/127 42/51/128
f 33/12/129 34/4/130 44/10/131 43/19/132
f 34/4/133 35/3/134 45/9/135 44/10/136
f 35/3/137 36/8/138 46/16/139 45/9/140
f 36/8/141 37/15/142 47/20/143 46/16/144
f 37/15/145 38/43/146 48/50/147 47/20/148
f 38/43/149 39/35/150 49/41/151 48/50/152
f 39/35/153 40/34/154 50/40/155 49/41/156
f 40/34/157 31/39/158 41/47/159 50/40/160
f 41/47/161 42/51/162 52/56/163 51/52/164
f 42/51/165 43/105/166 53/106/167 52/56/168
f 43/19/169 44/10/170 54/18/171 53/24/172
f 44/10/173 45/9/174 55/17/175 54/18/176
f 45/9/177 46/16/178 56/21/179 55/17/180
f 46/16/181 47/20/182 57/25/183 56/21/184
f 47/20/185 48/50/186 58/55/187 57/25/188
f 48/50/189 49/41/190 59/49/191 58/55/192
f 49/41/193 50/40/194 60/48/195 59/49/196
f 50/40/197 41/47/198 51/52/199 60/48/200
f 51/52/201 52/56/202 62/61/203 61/57/204
f 52/56/205 53/106/206 63/107/207 62/61/208
f 53/24/209 54/18/210 64/23/211 63/29/212
f 54/18/213 55/17/214 65/22/215 64/23/216
f 55/17/217 56/21/218 66/26/219 65/22/220
f 56/21/221 57/25/222 67/30/223 66/26/224
f 57/25/225 58/55/226 68/60/227 67/30/228
f 58/55/229 59/49/230 69/54/231 68/60/232
f 59/49/233 60/48/234 70/53/235 69/54/236
f 60/48/237 51/52/238 61/57/239 70/53/240
f 61/57/241 62/61/242 72/117/243 71/62/244
f 62/61/245 63/107/246 73/119/247 72/117/248
f 63/29/249 64/23/250 74/28/251 73/116/252
f 64/23/253 65/22/254 75/27/255 74/28/256
f 65/22/257 66/26/258 76/31/259 75/27/260
f 66/26/261 67/30/262 77/115/263 76/31/264
f 67/30/265 68/60/266 78/114/267 77/115/268
f 68/60/269 69/54/270 79/59/271 78/114/272
f 69/54/273 70/53/274 80/58/275 79/59/276
f 70/53/277 61/57/278 71/62/279 80/58/280
f 71/82/281 72/83/282 82/84/283 81/85/284
f 72/83/285 73/86/286 83/87/287 82/84/288
f 73/86/289 74/91/290 84/92/291 83/87/292
f 74/91/293 75/95/294 85/96/295 84/92/296
f 75/95/297 76/99/298 86/100/299 85/96/300
f 76/99/301 77/101/302 87/102/303 86/100/304
f 77/101/305 78/97/306 88/98/307 87/102/308
f 78/97/309 79/93/310 89/94/311 88/98/312
f 79/93/313 80/89/314 90/90/315 89/94/316
f 80/89/317 71/82/318 81/85/319 90/90/320
f 2/64/321 1/63/322 91/66/323
f 3/67/324 2/64/325 91/66/326
f 4/71/327 3/67/328 91/66/329
f 5/75/330 4/71/331 91/66/332
f 6/79/333 5/75/334 91/66/335
f 7/80/336 6/79/337 91/66/338
f 8/77/339 7/80/340 91/66/341
f 9/73/342 8/77/343 91/66/344
f 10/69/345 9/73/346 91/66/347
f 1/63/348 10/69/349 91/66/350
f 81/85/351 82/84/352 92/88/353
f 82/84/354 83/87/355 92/88/356
f 83/87/357 84/92/358 92/88/359
f 84/92/360 85/96/361 92/88/362
f 85/96/363 86/100/364 92/88/365
f 86/100/366 87/102/367 92/88/368
f 87/102/369 88/98/370 92/88/371
f 88/98/372 89/94/373 92/88/374
f 89/94/375 90/90/376 92/88/377
f 90/90/378 81/85/379 92/88/380
