# This file uses meters as units for non-parametric coordinates.

mtllib Alamcen.mtl
g default
v -1925.021240 -13.790609 -375.746765
v -1867.948975 -13.790609 -350.831787
v -1925.021240 80.797989 -375.746765
v -1867.948975 80.797989 -350.831787
v -1915.647461 80.797989 -397.219116
v -1858.575439 80.797989 -372.304138
v -1915.647461 -13.790609 -397.219116
v -1858.575439 -13.790609 -372.304138
v -1753.434570 -28.203140 -587.316528
v -1851.327637 -28.203140 -627.674500
v -1943.488281 -28.203140 -578.581787
v -1981.662598 -28.203140 -486.420929
v -1943.488281 -28.203140 -394.260101
v -1851.327637 -28.203140 -354.448059
v -1755.345459 -28.203140 -393.441223
v -1714.441406 -28.203140 -491.607208
v -1753.434570 814.475708 -587.316528
v -1851.327637 814.475708 -627.674500
v -1943.488281 814.475708 -578.581787
v -1981.662598 814.475708 -486.420929
v -1943.488281 814.475708 -394.260101
v -1851.327637 814.475708 -354.448059
v -1755.345459 814.475708 -393.441223
v -1714.441406 814.475708 -491.607208
v -1754.062256 813.900513 -587.444641
v -1850.854004 813.900513 -627.537048
v -1943.304443 813.900513 -579.033264
v -1981.769043 813.900513 -486.854218
v -1943.304443 813.900513 -394.403870
v -1850.854004 813.900513 -353.768738
v -1755.147705 813.900513 -393.861176
v -1714.240967 813.900513 -490.652893
v -1767.030029 882.342590 -574.476990
v -1850.854004 882.342590 -609.198059
v -1934.677979 882.342590 -574.476990
v -1969.399170 882.342590 -490.652893
v -1934.677979 882.342590 -406.828796
v -1850.854004 882.342590 -372.107727
v -1767.029785 882.342590 -406.828796
v -1732.308838 882.342590 -490.652893
v -1802.458252 932.445679 -539.048767
v -1850.854004 932.445679 -559.094971
v -1899.249756 932.445679 -539.048767
v -1919.296143 932.445679 -490.652893
v -1899.249756 932.445679 -442.257050
v -1850.854004 932.445679 -422.210815
v -1802.458252 932.445679 -442.257019
v -1782.411865 932.445679 -490.652893
v -1850.854004 950.784668 -490.652893
vt 0.763116 0.862600
vt 0.787076 0.862675
vt 0.786775 0.959409
vt 0.762815 0.959334
vt 0.675470 0.862328
vt 0.699430 0.862402
vt 0.699129 0.959136
vt 0.675169 0.959061
vt 0.762740 0.983295
vt 0.699054 0.983096
vt 0.222883 0.032020
vt 0.320404 0.031748
vt 0.322568 0.807854
vt 0.225047 0.808126
vt 0.416575 0.031480
vt 0.418739 0.807586
vt 0.508449 0.031224
vt 0.510613 0.807330
vt 0.600322 0.030968
vt 0.602486 0.807074
vt 0.692783 0.030710
vt 0.694947 0.806816
vt 0.788199 0.030444
vt 0.790363 0.806550
vt 0.029755 0.032559
vt 0.127700 0.032286
vt 0.129864 0.808392
vt 0.031919 0.808665
vt 0.985985 0.679399
vt 0.997742 0.782773
vt 0.927384 0.783760
vt 0.917202 0.694237
vt 0.986722 0.885862
vt 0.919192 0.873488
vt 0.858504 0.667883
vt 0.852458 0.572911
vt 0.914962 0.581500
vt 0.924138 0.662139
vt 0.873148 0.481396
vt 0.934769 0.501917
vt 0.835777 0.865762
vt 0.827740 0.769449
vt 0.895537 0.770878
vt 0.902341 0.857443
vt 0.839751 0.670872
vt 0.905957 0.684673
vt 0.839828 0.461953
vt 0.835383 0.366835
vt 0.897877 0.374225
vt 0.902945 0.453595
vt 0.861663 0.275493
vt 0.921326 0.298038
vt 0.991481 0.239824
vt 0.909970 0.265078
vt 0.909897 0.199775
vt 0.956202 0.184059
vt 0.827625 0.238803
vt 0.864553 0.182957
vt 0.978303 0.585110
vt 0.986106 0.634145
vt 0.991124 0.537649
vt 0.830492 0.033945
vt 0.912003 0.008691
vt 0.912076 0.073994
vt 0.865772 0.089710
vt 0.994348 0.034965
vt 0.957420 0.090811
vt 0.959117 0.381139
vt 0.964236 0.429229
vt 0.974054 0.335792
vt 0.910987 0.136884
vt 0.845970 0.136061
vt 0.976003 0.137708
vn -0.400089 0.000000 0.916476
vn -0.400089 0.000000 0.916476
vn -0.400089 0.000000 0.916476
vn -0.400089 0.000000 0.916476
vn 0.000000 1.000000 0.000000
vn 0.000000 1.000000 0.000000
vn 0.000000 1.000000 0.000000
vn 0.000000 1.000000 0.000000
vn 0.916480 0.000000 0.400080
vn 0.916480 0.000000 0.400080
vn 0.916480 0.000000 0.400080
vn 0.916480 0.000000 0.400080
vn -0.916476 0.000000 -0.400089
vn -0.916476 0.000000 -0.400089
vn -0.916476 0.000000 -0.400089
vn -0.916476 0.000000 -0.400089
vn 0.381146 0.000000 -0.924515
vn 0.381146 0.000000 -0.924515
vn 0.381146 0.000000 -0.924515
vn 0.381146 0.000000 -0.924515
vn -0.470143 0.000000 -0.882590
vn -0.470143 0.000000 -0.882590
vn -0.470143 0.000000 -0.882590
vn -0.470143 0.000000 -0.882590
vn -0.923880 0.000000 -0.382684
vn -0.923880 0.000000 -0.382684
vn -0.923880 0.000000 -0.382684
vn -0.923880 0.000000 -0.382684
vn -0.923879 0.000000 0.382684
vn -0.923879 0.000000 0.382684
vn -0.923879 0.000000 0.382684
vn -0.923879 0.000000 0.382684
vn -0.396565 0.000000 0.918006
vn -0.396565 0.000000 0.918006
vn -0.396565 0.000000 0.918006
vn -0.396565 0.000000 0.918006
vn 0.376380 0.000000 0.926465
vn 0.376380 0.000000 0.926465
vn 0.376380 0.000000 0.926465
vn 0.376380 0.000000 0.926465
vn 0.923072 0.000000 0.384628
vn 0.923072 0.000000 0.384628
vn 0.923072 0.000000 0.384628
vn 0.923072 0.000000 0.384628
vn 0.926091 0.000000 -0.377301
vn 0.926091 0.000000 -0.377301
vn 0.926091 0.000000 -0.377301
vn 0.926091 0.000000 -0.377301
vn 0.371470 0.240300 -0.896809
vn 0.371470 0.240300 -0.896809
vn 0.371470 0.240300 -0.896809
vn 0.371470 0.240300 -0.896809
vn -0.420322 0.175395 -0.890262
vn -0.420322 0.175395 -0.890262
vn -0.420322 0.175395 -0.890262
vn -0.420322 0.175395 -0.890262
vn -0.913959 0.142292 -0.380043
vn -0.913959 0.142292 -0.380043
vn -0.913959 0.142292 -0.380043
vn -0.913959 0.142292 -0.380043
vn -0.907809 0.183916 0.376905
vn -0.907809 0.183916 0.376905
vn -0.907809 0.183916 0.376905
vn -0.907809 0.183916 0.376905
vn -0.382961 0.225466 0.895827
vn -0.382961 0.225466 0.895827
vn -0.382961 0.225466 0.895827
vn -0.382961 0.225466 0.895827
vn 0.373649 0.237505 0.896648
vn 0.373649 0.237505 0.896648
vn 0.373649 0.237505 0.896648
vn 0.373649 0.237505 0.896648
vn 0.897256 0.231909 0.375700
vn 0.897256 0.231909 0.375700
vn 0.897256 0.231909 0.375700
vn 0.897256 0.231909 0.375700
vn 0.897666 0.238625 -0.370478
vn 0.897666 0.238625 -0.370478
vn 0.897666 0.238625 -0.370478
vn 0.897666 0.238625 -0.370478
vn 0.281085 0.678598 -0.678599
vn 0.281085 0.678598 -0.678599
vn 0.281085 0.678598 -0.678599
vn 0.281085 0.678598 -0.678599
vn -0.281084 0.678598 -0.678598
vn -0.281085 0.678598 -0.678598
vn -0.281085 0.678598 -0.678598
vn -0.281085 0.678598 -0.678598
vn -0.678598 0.678599 -0.281086
vn -0.678598 0.678599 -0.281086
vn -0.678598 0.678599 -0.281086
vn -0.678598 0.678599 -0.281086
vn -0.678598 0.678599 0.281085
vn -0.678598 0.678599 0.281085
vn -0.678598 0.678599 0.281085
vn -0.678598 0.678599 0.281085
vn -0.281085 0.678598 0.678599
vn -0.281085 0.678598 0.678599
vn -0.281085 0.678598 0.678599
vn -0.281085 0.678598 0.678599
vn 0.281084 0.678598 0.678599
vn 0.281084 0.678598 0.678599
vn 0.281084 0.678598 0.678599
vn 0.281084 0.678598 0.678599
vn 0.678598 0.678599 0.281085
vn 0.678598 0.678599 0.281085
vn 0.678598 0.678599 0.281085
vn 0.678598 0.678599 0.281085
vn 0.678598 0.678599 -0.281085
vn 0.678598 0.678599 -0.281085
vn 0.678598 0.678599 -0.281085
vn 0.678598 0.678599 -0.281085
vn 0.106595 0.960423 -0.257343
vn 0.106595 0.960423 -0.257343
vn 0.106595 0.960423 -0.257343
vn -0.106596 0.960422 -0.257345
vn -0.106596 0.960422 -0.257345
vn -0.106596 0.960422 -0.257345
vn -0.257344 0.960422 -0.106597
vn -0.257344 0.960422 -0.106597
vn -0.257344 0.960422 -0.106597
vn -0.257344 0.960423 0.106595
vn -0.257344 0.960423 0.106595
vn -0.257344 0.960423 0.106595
vn -0.106595 0.960423 0.257344
vn -0.106595 0.960422 0.257344
vn -0.106595 0.960423 0.257344
vn 0.106595 0.960423 0.257344
vn 0.106595 0.960423 0.257344
vn 0.106595 0.960422 0.257344
vn 0.257344 0.960422 0.106597
vn 0.257344 0.960422 0.106597
vn 0.257344 0.960422 0.106597
vn 0.257344 0.960423 -0.106595
vn 0.257344 0.960423 -0.106595
vn 0.257344 0.960423 -0.106595
s off
g Alamacen
usemtl initialShadingGroup
f 1/6/1 2/1/2 4/4/3 3/7/4
f 3/7/5 4/4/6 6/9/7 5/10/8
f 2/1/9 8/2/10 6/3/11 4/4/12
f 7/5/13 1/6/14 3/7/15 5/8/16
f 9/11/17 10/12/18 18/13/19 17/14/20
f 10/12/21 11/15/22 19/16/23 18/13/24
f 11/15/25 12/17/26 20/18/27 19/16/28
f 12/17/29 13/19/30 21/20/31 20/18/32
f 13/19/33 14/21/34 22/22/35 21/20/36
f 14/21/37 15/23/38 23/24/39 22/22/40
f 15/25/41 16/26/42 24/27/43 23/28/44
f 16/26/45 9/11/46 17/14/47 24/27/48
f 25/29/49 26/30/50 34/31/51 33/32/52
f 26/30/53 27/33/54 35/34/55 34/31/56
f 27/35/57 28/36/58 36/37/59 35/38/60
f 28/36/61 29/39/62 37/40/63 36/37/64
f 29/41/65 30/42/66 38/43/67 37/44/68
f 30/42/69 31/45/70 39/46/71 38/43/72
f 31/47/73 32/48/74 40/49/75 39/50/76
f 32/48/77 25/51/78 33/52/79 40/49/80
f 33/53/81 34/54/82 42/55/83 41/56/84
f 34/54/85 35/57/86 43/58/87 42/55/88
f 35/38/89 36/37/90 44/59/91 43/60/92
f 36/37/93 37/40/94 45/61/95 44/59/96
f 37/62/97 38/63/98 46/64/99 45/65/100
f 38/63/101 39/66/102 47/67/103 46/64/104
f 39/50/105 40/49/106 48/68/107 47/69/108
f 40/49/109 33/52/110 41/70/111 48/68/112
f 41/56/113 42/55/114 49/71/115
f 42/55/116 43/58/117 49/71/118
f 43/58/119 44/72/120 49/71/121
f 44/72/122 45/65/123 49/71/124
f 45/65/125 46/64/126 49/71/127
f 46/64/128 47/67/129 49/71/130
f 47/67/131 48/73/132 49/71/133
f 48/73/134 41/56/135 49/71/136
