# This file uses centimeters as units for non-parametric coordinates.

mtllib Asteroide_1.mtl
g default
v -0.255776 1.059187 -2.834650
v 0.689764 1.584918 -1.267694
v -0.616940 1.909838 -1.267694
v -1.424528 1.059187 -1.267694
v -0.616940 0.208536 -1.267694
v 0.689764 0.533456 -1.267694
v 0.912976 1.059187 1.267694
v 0.105388 1.909838 1.267694
v -1.201316 1.584918 1.267694
v -1.201316 0.533456 1.267694
v 0.105388 0.208536 1.267694
v -0.255776 1.059187 2.834650
v -0.468063 1.559187 -2.411297
v 0.087711 1.868204 -1.490263
v 0.299998 1.368204 -2.411297
v -0.010648 1.636537 -2.252567
v -0.942751 1.059187 -2.411297
v -1.155038 1.559187 -1.490263
v -0.897529 1.416009 -2.252567
v -0.468063 0.559187 -2.411297
v -1.155038 0.559187 -1.490263
v -0.897529 0.702365 -2.252567
v 0.299998 0.750170 -2.411297
v 0.087711 0.250170 -1.490264
v -0.010648 0.481837 -2.252567
v 0.855773 1.059187 -1.490263
v 0.537474 1.059187 -2.252567
v -0.255776 2.059187 0.000000
v 0.512285 1.868204 0.000000
v 0.140849 1.993359 -0.531759
v -1.498526 1.368204 0.000000
v -1.023838 1.868204 0.000000
v -1.294155 1.636537 -0.531759
v -1.023838 0.250170 0.000000
v -1.498526 0.750170 0.000000
v -1.294155 0.481837 -0.531759
v 0.512285 0.250170 0.000000
v -0.255776 0.059187 0.000000
v 0.140849 0.125015 -0.531759
v 0.986973 1.368204 0.000000
v 0.986973 0.750170 0.000000
v 1.027730 1.059187 -0.531759
v 0.643486 1.559187 1.490263
v 0.782602 1.636537 0.531759
v -0.599264 1.868204 1.490263
v -0.652401 1.993359 0.531759
v -1.367325 1.059187 1.490263
v -1.539282 1.059187 0.531759
v -0.599264 0.250170 1.490263
v -0.652401 0.125015 0.531759
v 0.643486 0.559187 1.490263
v 0.782602 0.481837 0.531759
v -0.043489 1.559187 2.411297
v 0.431199 1.059187 2.411297
v 0.385977 1.416009 2.252567
v -0.811551 1.368204 2.411297
v -0.500904 1.636537 2.252567
v -0.811551 0.750170 2.411297
v -1.049027 1.059187 2.252567
v -0.043489 0.559187 2.411297
v -0.500904 0.481837 2.252567
v 0.385977 0.702365 2.252567
vt 0.624140 0.326960
vt 0.517381 0.308411
vt 0.583362 0.202762
vt 0.640656 0.247079
vt 0.517381 0.403718
vt 0.593569 0.390490
vt 0.451400 0.202762
vt 0.517381 0.158446
vt 0.629634 0.097113
vt 0.690121 0.202762
vt 0.699011 0.308411
vt 0.410621 0.326960
vt 0.441192 0.390490
vt 0.394105 0.247079
vt 0.405127 0.097113
vt 0.517381 0.078564
vt 0.690121 0.078564
vt 0.716844 0.158446
vt 0.335751 0.308411
vt 0.344640 0.202762
vt 0.451400 0.001806
vt 0.517381 0.015035
vt 0.583362 0.001806
vt 0.344640 0.078564
vt 0.317917 0.158446
vt 0.417421 0.608666
vt 0.371148 0.503017
vt 0.483402 0.484468
vt 0.483402 0.564350
vt 0.310661 0.608666
vt 0.360126 0.652983
vt 0.417421 0.407710
vt 0.483402 0.420938
vt 0.595655 0.503017
vt 0.549383 0.608666
vt 0.483402 0.714315
vt 0.310661 0.484468
vt 0.283938 0.564350
vt 0.376642 0.732864
vt 0.301772 0.714315
vt 0.549383 0.407710
vt 0.656142 0.608666
vt 0.606677 0.652983
vt 0.590161 0.732864
vt 0.483402 0.809622
vt 0.407213 0.796394
vt 0.656142 0.484468
vt 0.682865 0.564350
vt 0.665032 0.714315
vt 0.559590 0.796394
vt 0.212623 0.326960
vt 0.097481 0.308411
vt 0.156496 0.202762
vt 0.221305 0.247079
vt 0.121808 0.403718
vt 0.196550 0.390490
vt 0.030993 0.202762
vt 0.091686 0.158446
vt 0.215511 0.097113
vt 0.281999 0.202762
vt 0.009554 0.326960
vt 0.051632 0.390490
vt 0.311000 0.308411
vt 0.247311 0.403718
vt 0.100369 0.078564
vt 0.191184 0.001806
vt 0.116441 0.015034
vt 0.303438 0.078564
vt 0.261360 0.015034
vt 0.001992 0.097113
vt 0.065681 0.001806
vt 0.843504 0.608666
vt 0.784489 0.503017
vt 0.899631 0.484468
vt 0.908314 0.564350
vt 0.718001 0.608666
vt 0.778695 0.652983
vt 0.808816 0.407710
vt 0.883559 0.420938
vt 0.969008 0.608666
vt 0.902520 0.714315
vt 0.787377 0.732864
vt 0.696562 0.484468
vt 0.738640 0.420938
vt 0.934319 0.407710
vt 0.998008 0.503017
vt 0.878193 0.809622
vt 0.803450 0.796394
vt 0.990446 0.732864
vt 0.948368 0.796394
vt 0.752689 0.809622
vt 0.689001 0.714315
vt 0.238999 0.465004
vt 0.148184 0.530985
vt 0.113495 0.424226
vt 0.188238 0.407710
vt 0.238999 0.596966
vt 0.277803 0.530985
vt 0.035930 0.530985
vt 0.043319 0.454797
vt 0.113495 0.637745
vt 0.188238 0.654261
vt 0.043319 0.607174
vt 0.166300 0.888287
vt 0.131611 0.781527
vt 0.243865 0.781527
vt 0.236475 0.857715
vt 0.040796 0.847508
vt 0.091557 0.904802
vt 0.166300 0.674768
vt 0.236475 0.705339
vt 0.040796 0.715546
vt 0.001992 0.781527
vt 0.091557 0.658252
vn 0.427429 0.337902 -0.838527
vn 0.001732 0.000000 -0.999999
vn -0.169194 0.578817 -0.797712
vn 0.165245 0.664554 -0.728740
vn -0.221949 0.925575 -0.306675
vn -0.239732 0.953236 -0.184038
vn -0.018518 0.976651 -0.214031
vn -0.045449 0.955032 -0.292999
vn 0.492485 0.837597 -0.236410
vn 0.713741 0.668849 -0.207884
vn 0.667133 0.659898 -0.345643
vn 0.506562 0.801317 -0.318253
vn -0.510476 0.000000 -0.859892
vn -0.459372 0.436117 -0.773808
vn -0.924219 0.000000 -0.381862
vn -0.973644 0.000000 -0.228073
vn -0.896874 0.344707 -0.277118
vn -0.882521 0.296983 -0.364633
vn -0.454667 0.860977 -0.228028
vn -0.415860 0.854897 -0.310179
vn -0.169195 -0.578817 -0.797712
vn -0.459372 -0.436117 -0.773808
vn -0.221949 -0.925575 -0.306675
vn -0.239732 -0.953236 -0.184038
vn -0.454666 -0.860977 -0.228028
vn -0.415860 -0.854897 -0.310179
vn -0.896874 -0.344707 -0.277118
vn -0.882521 -0.296983 -0.364633
vn 0.427429 -0.337902 -0.838527
vn 0.165245 -0.664554 -0.728740
vn 0.667133 -0.659898 -0.345643
vn 0.713741 -0.668848 -0.207884
vn 0.492485 -0.837597 -0.236410
vn 0.506562 -0.801317 -0.318253
vn -0.018519 -0.976651 -0.214031
vn -0.045449 -0.955032 -0.292999
vn 0.591605 -0.000000 -0.806228
vn 0.873741 0.404585 -0.269976
vn 0.829994 0.428495 -0.357074
vn 0.873741 -0.404585 -0.269976
vn 0.829994 -0.428495 -0.357074
vn 0.660467 0.746665 -0.079217
vn 0.469811 0.872561 -0.133848
vn -0.169396 0.982928 -0.071811
vn 0.011545 0.992154 -0.124488
vn 0.169396 0.982928 0.071811
vn 0.239732 0.953236 0.184038
vn 0.309426 0.948152 0.072544
vn 0.241009 0.969248 0.049737
vn -0.309426 0.948152 -0.072544
vn -0.493270 0.859373 -0.134770
vn -0.991454 0.097169 -0.087044
vn -0.901849 0.402810 -0.156244
vn -0.777255 0.624003 0.080587
vn -0.713741 0.668849 0.207884
vn -0.660467 0.746665 0.079217
vn -0.724043 0.687389 0.057074
vn -0.991454 -0.097169 -0.087044
vn -0.901849 -0.402810 -0.156244
vn -0.309426 -0.948153 -0.072544
vn -0.493270 -0.859373 -0.134770
vn -0.660467 -0.746665 0.079217
vn -0.713741 -0.668849 0.207884
vn -0.777255 -0.624003 0.080587
vn -0.724043 -0.687389 0.057074
vn -0.169396 -0.982928 -0.071811
vn 0.011545 -0.992154 -0.124487
vn 0.660467 -0.746665 -0.079217
vn 0.469811 -0.872561 -0.133848
vn 0.309426 -0.948152 0.072544
vn 0.239732 -0.953236 0.184038
vn 0.169396 -0.982928 0.071811
vn 0.241009 -0.969248 0.049737
vn 0.777255 -0.624003 -0.080587
vn 0.916080 -0.368920 -0.157149
vn 0.777255 0.624003 -0.080587
vn 0.916080 0.368920 -0.157149
vn 0.991454 0.097169 0.087044
vn 0.973644 0.000000 0.228073
vn 0.991454 -0.097169 0.087044
vn 0.997973 0.000000 0.063642
vn 0.724043 0.687389 -0.057074
vn 0.454666 0.860977 0.228028
vn 0.493270 0.859373 0.134771
vn 0.896874 0.344707 0.277118
vn 0.901849 0.402810 0.156244
vn -0.241009 0.969248 -0.049737
vn -0.492485 0.837597 0.236410
vn -0.469811 0.872561 0.133848
vn 0.018518 0.976651 0.214031
vn -0.011545 0.992154 0.124488
vn -0.997973 0.000000 -0.063642
vn -0.873741 -0.404586 0.269976
vn -0.916080 -0.368920 0.157148
vn -0.873741 0.404585 0.269976
vn -0.916080 0.368920 0.157149
vn -0.241009 -0.969248 -0.049737
vn 0.018519 -0.976651 0.214031
vn -0.011545 -0.992154 0.124487
vn -0.492485 -0.837597 0.236410
vn -0.469811 -0.872561 0.133848
vn 0.724043 -0.687389 -0.057074
vn 0.896874 -0.344707 0.277118
vn 0.901849 -0.402810 0.156244
vn 0.454667 -0.860977 0.228028
vn 0.493270 -0.859373 0.134770
vn 0.924220 0.000000 0.381862
vn 0.882521 0.296983 0.364633
vn 0.221949 0.925575 0.306675
vn 0.415860 0.854897 0.310179
vn 0.169194 0.578817 0.797712
vn -0.001733 0.000000 0.999999
vn 0.510476 -0.000000 0.859892
vn 0.459372 0.436117 0.773808
vn 0.045449 0.955032 0.292998
vn -0.667133 0.659898 0.345643
vn -0.506562 0.801317 0.318253
vn -0.427429 0.337902 0.838527
vn -0.165245 0.664554 0.728740
vn -0.829994 0.428495 0.357074
vn -0.667133 -0.659898 0.345643
vn -0.829994 -0.428495 0.357074
vn -0.427429 -0.337902 0.838527
vn -0.591605 0.000000 0.806228
vn -0.506562 -0.801317 0.318253
vn 0.221949 -0.925575 0.306675
vn 0.045449 -0.955032 0.292998
vn 0.169195 -0.578817 0.797712
vn -0.165245 -0.664554 0.728740
vn 0.415860 -0.854897 0.310179
vn 0.882521 -0.296983 0.364633
vn 0.459373 -0.436117 0.773808
s 1
g pPlatonic1
usemtl initialShadingGroup
f 15/93/1 1/94/2 13/95/3 16/96/4
s 2
f 13/55/5 3/52/6 14/51/7 16/56/8
s 3
f 14/51/9 2/63/10 15/64/11 16/56/12
s 1
f 13/95/3 1/94/2 17/99/13 19/100/14
s 4
f 17/5/15 4/2/16 18/1/17 19/6/18
s 2
f 18/61/19 3/52/6 13/55/5 19/62/20
s 1
f 17/99/13 1/94/2 20/101/21 22/103/22
s 5
f 20/78/23 5/73/24 21/83/25 22/84/26
s 4
f 21/12/27 4/2/16 17/5/15 22/13/28
s 1
f 20/101/21 1/94/2 23/97/29 25/102/30
s 6
f 23/85/31 6/86/32 24/74/33 25/79/34
s 5
f 24/74/35 5/73/24 20/78/23 25/79/36
s 1
f 23/97/29 1/94/2 15/93/1 27/98/37
s 3
f 15/41/11 2/34/10 26/28/38 27/33/39
s 6
f 26/28/40 6/27/32 23/32/31 27/33/41
s 3
f 29/42/42 2/34/10 14/47/9 30/48/43
s 2
f 14/51/7 3/52/6 28/53/44 30/54/45
s 7
f 28/53/46 8/59/47 29/60/48 30/54/49
s 2
f 32/10/50 3/11/6 18/1/19 33/4/51
s 4
f 18/1/17 4/2/16 31/3/52 33/4/53
s 8
f 31/3/54 9/9/55 32/10/56 33/4/57
s 4
f 35/7/58 4/2/16 21/12/27 36/14/59
s 5
f 21/12/25 5/19/24 34/20/60 36/14/61
s 9
f 34/20/62 10/15/63 35/7/64 36/14/65
s 5
f 38/72/66 5/73/24 24/74/35 39/75/67
s 6
f 24/37/33 6/27/32 37/30/68 39/38/69
s 10
f 37/80/70 11/81/71 38/72/72 39/75/73
s 6
f 41/26/74 6/27/32 26/28/40 42/29/75
s 3
f 26/28/38 2/34/10 40/35/76 42/29/77
s 11
f 40/35/78 7/36/79 41/26/80 42/29/81
s 3
f 40/35/76 2/34/10 29/42/42 44/43/82
s 7
f 29/42/48 8/49/47 43/44/83 44/43/84
s 11
f 43/44/85 7/36/79 40/35/78 44/43/86
s 2
f 28/53/44 3/52/6 32/57/50 46/58/87
s 8
f 32/10/56 9/9/55 45/17/88 46/18/89
s 7
f 45/65/90 8/59/47 28/53/46 46/58/91
s 4
f 31/3/52 4/2/16 35/7/58 48/8/92
s 9
f 35/7/64 10/15/63 47/16/93 48/8/94
s 8
f 47/16/95 9/9/55 31/3/54 48/8/96
s 5
f 34/76/60 5/73/24 38/72/66 50/77/97
s 10
f 38/72/72 11/81/71 49/82/98 50/77/99
s 9
f 49/24/100 10/15/63 34/20/62 50/25/101
s 6
f 37/30/68 6/27/32 41/26/74 52/31/102
s 11
f 41/26/80 7/36/79 51/39/103 52/31/104
s 10
f 51/39/105 11/40/71 37/30/70 52/31/106
s 11
f 54/45/107 7/36/79 43/44/85 55/50/108
s 7
f 43/68/83 8/59/47 53/66/109 55/69/110
s 12
f 53/104/111 12/105/112 54/106/113 55/107/114
s 7
f 53/66/109 8/59/47 45/65/90 57/67/115
s 8
f 45/65/88 9/70/55 56/71/116 57/67/117
s 12
f 56/108/118 12/105/112 53/104/111 57/109/119
s 8
f 56/23/116 9/9/55 47/16/95 59/22/120
s 9
f 47/16/93 10/15/63 58/21/121 59/22/122
s 12
f 58/112/123 12/105/112 56/108/118 59/113/124
s 9
f 58/91/121 10/92/63 49/82/100 61/88/125
s 10
f 49/82/98 11/81/71 60/87/126 61/88/127
s 12
f 60/110/128 12/105/112 58/112/123 61/114/129
s 10
f 60/87/126 11/81/71 51/89/105 62/90/130
s 11
f 51/39/103 7/36/79 54/45/107 62/46/131
s 12
f 54/106/113 12/105/112 60/110/128 62/111/132
