# This file uses centimeters as units for non-parametric coordinates.

mtllib Arbol_2.mtl
g default
v 0.169356 0.004861 -0.278972
v -0.169355 0.004861 -0.278973
v -0.338711 0.004861 0.014360
v -0.169356 0.004861 0.307692
v 0.169355 0.004861 0.307692
v 0.338711 0.004861 0.014360
v 0.062865 3.495474 -0.094525
v -0.062865 3.495474 -0.094525
v -0.125729 3.495474 0.014360
v -0.062865 3.495474 0.123245
v 0.062865 3.495474 0.123245
v 0.125729 3.495474 0.014360
v -0.066948 1.937868 0.142106
v 0.072882 1.935884 0.144929
v 0.145673 2.028909 0.070014
v 0.078632 2.123920 -0.007724
v -0.061198 2.125904 -0.010546
v -0.133988 2.032878 0.064368
v -0.026450 2.902293 0.993017
v 0.025455 2.901557 0.994065
v 0.052512 2.923609 0.955628
v 0.027664 2.946398 0.916144
v -0.024241 2.947134 0.915096
v -0.051298 2.925082 0.953533
v -0.048116 2.442745 0.701616
v -0.093150 2.506569 0.649395
v -0.044253 2.569060 0.599071
v 0.049680 2.567727 0.600967
v 0.094715 2.503903 0.653188
v 0.045817 2.441412 0.703513
v -0.045295 2.556439 0.817647
v -0.086866 2.594565 0.751588
v -0.041599 2.631459 0.687283
v 0.045239 2.630227 0.689036
v 0.086810 2.592100 0.755095
v 0.041543 2.555207 0.819399
v -0.046514 2.485690 0.749208
v -0.089677 2.546861 0.699158
v -0.042811 2.606755 0.650925
v 0.047217 2.605478 0.652742
v 0.090380 2.544306 0.702793
v 0.043515 2.484412 0.751026
v 0.000000 3.205122 -1.173647
v 0.257820 3.392438 -0.976691
v -0.098478 3.508207 -0.976691
v -0.318683 3.205122 -0.976691
v -0.098478 2.902036 -0.976691
v 0.257820 3.017805 -0.976691
v 0.318683 3.205122 -0.658008
v 0.098478 3.508207 -0.658008
v -0.257820 3.392438 -0.658008
v -0.257820 3.017805 -0.658008
v 0.098478 2.902036 -0.658008
v 0.000000 3.205122 -0.461051
v 0.000000 3.058419 0.621245
v 0.257820 3.245736 0.818202
v -0.098478 3.361505 0.818202
v -0.318683 3.058419 0.818202
v -0.098478 2.755334 0.818202
v 0.257820 2.871103 0.818202
v 0.318683 3.058419 1.136885
v 0.098478 3.361505 1.136885
v -0.257820 3.245736 1.136885
v -0.257820 2.871102 1.136885
v 0.098478 2.755334 1.136885
v 0.000000 3.058419 1.333841
v 0.000000 3.939244 -1.421792
v 0.764524 4.587719 -0.797129
v -0.292022 4.867355 -0.797129
v -0.945004 3.939244 -0.797129
v -0.292022 3.084065 -0.797129
v 0.764524 3.363701 -0.797129
v 0.945004 3.939244 0.686769
v 0.292022 4.867355 0.686769
v -0.764524 4.391705 0.686769
v -0.764524 3.486782 0.686769
v 0.292022 3.084065 0.686769
v 0.000000 3.939244 1.358887
v 0.069937 1.795854 -0.167491
v -0.069937 1.795854 -0.167491
v -0.139873 1.868069 -0.070237
v -0.069937 1.940284 0.027017
v 0.069937 1.940284 0.027017
v 0.139873 1.868069 -0.070237
v 0.025960 2.941245 -0.752258
v -0.025960 2.941245 -0.752258
v -0.051921 2.953330 -0.708948
v -0.025960 2.965415 -0.665638
v 0.025960 2.965415 -0.665638
v 0.051921 2.953330 -0.708948
v 0.046981 2.423686 -0.584155
v 0.093961 2.472197 -0.518823
v 0.046981 2.520708 -0.453492
v -0.046981 2.520708 -0.453492
v -0.093961 2.472197 -0.518823
v -0.046981 2.423686 -0.584155
v 0.043432 2.562587 -0.668362
v 0.086864 2.582806 -0.595903
v 0.043432 2.603025 -0.523445
v -0.043432 2.603025 -0.523445
v -0.086864 2.582806 -0.595903
v -0.043432 2.562587 -0.668362
v 0.045028 2.477089 -0.619596
v 0.090056 2.523584 -0.556980
v 0.045028 2.570078 -0.494364
v -0.045028 2.570078 -0.494364
v -0.090056 2.523584 -0.556980
v -0.045028 2.477089 -0.619596
vt 0.185835 0.907291
vt 0.179098 0.838117
vt 0.895089 0.790339
vt 0.897590 0.816017
vt 0.176584 0.768661
vt 0.894156 0.764557
vt 0.178304 0.699181
vt 0.184249 0.629934
vt 0.897001 0.713062
vt 0.894794 0.738766
vt 0.194399 0.561178
vt 0.900769 0.687540
vt 0.196771 0.975926
vt 0.901649 0.841494
vt 0.043129 0.177693
vt 0.063030 0.175093
vt 0.074198 0.282478
vt 0.060797 0.284061
vt 0.083013 0.173728
vt 0.087692 0.282001
vt 0.102977 0.173553
vt 0.101160 0.282273
vt 0.122873 0.174509
vt 0.114595 0.282902
vt 0.142696 0.176578
vt 0.128028 0.283873
vt 0.162437 0.179801
vt 0.141415 0.285558
vt 0.140108 0.293984
vt 0.127134 0.292975
vt 0.114026 0.292629
vt 0.100971 0.292030
vt 0.087901 0.291220
vt 0.074887 0.291185
vt 0.062077 0.292771
vt 0.126102 0.302814
vt 0.138029 0.306790
vt 0.122303 0.359442
vt 0.115131 0.357433
vt 0.113740 0.299415
vt 0.107882 0.356087
vt 0.100778 0.298882
vt 0.100634 0.355686
vt 0.088245 0.301150
vt 0.093254 0.356315
vt 0.076153 0.304179
vt 0.085848 0.357566
vt 0.063937 0.306399
vt 0.078528 0.359253
vt 0.487234 0.141256
vt 0.534384 0.122967
vt 0.526647 0.172944
vt 0.502706 0.041302
vt 0.542120 0.072990
vt 0.494970 0.091279
vt 0.549856 0.023013
vt 0.273476 0.131427
vt 0.233770 0.100106
vt 0.280748 0.081380
vt 0.226498 0.150152
vt 0.573797 0.154655
vt 0.581533 0.104678
vt 0.589269 0.054701
vt 0.241042 0.050059
vt 0.186793 0.118831
vt 0.179521 0.168878
vt 0.288020 0.031334
vt 0.194065 0.068785
vt 0.139815 0.137557
vt 0.620946 0.136366
vt 0.628682 0.086389
vt 0.248314 0.000013
vt 0.147087 0.087510
vt 0.682128 0.134184
vt 0.729277 0.115895
vt 0.721541 0.165872
vt 0.697600 0.034230
vt 0.737013 0.065918
vt 0.689864 0.084207
vt 0.744749 0.015941
vt 0.133661 0.131427
vt 0.093955 0.100106
vt 0.140933 0.081380
vt 0.086683 0.150152
vt 0.768690 0.147583
vt 0.776427 0.097606
vt 0.784163 0.047629
vt 0.101227 0.050059
vt 0.046978 0.118831
vt 0.039706 0.168878
vt 0.148205 0.031334
vt 0.054250 0.068785
vt 0.000000 0.137557
vt 0.815840 0.129295
vt 0.823576 0.079318
vt 0.108499 0.000013
vt 0.007272 0.087510
vt 0.486724 0.504747
vt 0.632984 0.450258
vt 0.616843 0.596907
vt 0.540626 0.199133
vt 0.656524 0.298890
vt 0.513126 0.352772
vt 0.682504 0.155986
vt 0.478952 0.455165
vt 0.354514 0.363989
vt 0.490740 0.307340
vt 0.337273 0.528319
vt 0.824763 0.548043
vt 0.845197 0.392973
vt 0.865702 0.272550
vt 0.343062 0.150712
vt 0.145720 0.420203
vt 0.128286 0.572395
vt 0.483244 0.090332
vt 0.160048 0.275665
vt 0.000000 0.477394
vt 0.968629 0.478868
vt 0.990915 0.355827
vt 0.363021 -0.000000
vt 0.032733 0.328931
vt 0.822763 0.019721
vt 0.848649 0.016339
vt 0.863176 0.156017
vt 0.845744 0.158077
vt 0.874641 0.014563
vt 0.880728 0.155398
vt 0.900609 0.014336
vt 0.898246 0.155751
vt 0.926489 0.015579
vt 0.915721 0.156569
vt 0.952273 0.018271
vt 0.933193 0.157832
vt 0.977951 0.022463
vt 0.950607 0.160024
vt 0.948907 0.170984
vt 0.932031 0.169672
vt 0.914981 0.169221
vt 0.898000 0.168442
vt 0.880999 0.167389
vt 0.864072 0.167343
vt 0.847410 0.169406
vt 0.930689 0.182470
vt 0.946203 0.187641
vt 0.925747 0.256127
vt 0.916419 0.253514
vt 0.914609 0.178048
vt 0.906989 0.251763
vt 0.897749 0.177355
vt 0.897561 0.251242
vt 0.881447 0.180305
vt 0.887962 0.252060
vt 0.865718 0.184245
vt 0.878329 0.253686
vt 0.849828 0.187133
vt 0.868808 0.255881
vn 0.000001 0.052767 -0.998607
vn 0.000001 0.052767 -0.998607
vn 0.000001 0.052767 -0.998607
vn 0.000001 0.052767 -0.998607
vn -0.864819 0.052767 -0.499303
vn -0.864819 0.052767 -0.499303
vn -0.864819 0.052767 -0.499303
vn -0.864819 0.052767 -0.499303
vn -0.864819 0.052767 0.499303
vn -0.864819 0.052767 0.499303
vn -0.864819 0.052767 0.499303
vn -0.864819 0.052767 0.499303
vn 0.000000 0.052767 0.998607
vn 0.000000 0.052767 0.998607
vn 0.000000 0.052767 0.998607
vn 0.000000 0.052767 0.998607
vn 0.864819 0.052767 0.499303
vn 0.864819 0.052767 0.499303
vn 0.864819 0.052767 0.499303
vn 0.864819 0.052767 0.499303
vn 0.864819 0.052767 -0.499303
vn 0.864819 0.052767 -0.499303
vn 0.864819 0.052767 -0.499303
vn 0.864819 0.052767 -0.499303
vn -0.024057 -0.741806 0.670183
vn -0.024057 -0.741806 0.670183
vn -0.024057 -0.741806 0.670183
vn -0.024057 -0.741806 0.670183
vn 0.852350 -0.366540 0.373025
vn 0.852350 -0.366540 0.373025
vn 0.852350 -0.366540 0.373025
vn 0.852350 -0.366540 0.373025
vn 0.876051 0.408530 -0.256197
vn 0.876052 0.408530 -0.256197
vn 0.876052 0.408530 -0.256197
vn 0.876051 0.408530 -0.256197
vn 0.023347 0.808334 -0.588261
vn 0.023347 0.808334 -0.588261
vn 0.023347 0.808334 -0.588261
vn 0.023347 0.808334 -0.588261
vn -0.853060 0.433068 -0.291103
vn -0.853060 0.433068 -0.291103
vn -0.853060 0.433068 -0.291103
vn -0.853060 0.433068 -0.291103
vn -0.876761 -0.342002 0.338119
vn -0.876761 -0.342002 0.338118
vn -0.876761 -0.342002 0.338119
vn -0.876761 -0.342002 0.338118
vn -0.875483 -0.336551 0.346790
vn -0.875434 -0.336347 0.347112
vn -0.848769 0.433858 -0.302255
vn -0.848742 0.433863 -0.302326
vn 0.023247 0.815488 -0.578307
vn 0.023247 0.815488 -0.578307
vn 0.872214 0.409441 -0.267583
vn 0.872239 0.409435 -0.267511
vn 0.850821 -0.360846 0.381960
vn 0.850877 -0.361051 0.381641
vn -0.024254 -0.714541 0.699173
vn -0.024254 -0.714540 0.699174
vn -0.878214 -0.218497 0.425441
vn -0.877845 -0.209215 0.430833
vn -0.875984 -0.179317 0.447769
vn -0.875984 -0.179317 0.447769
vn -0.849674 0.357294 -0.387809
vn -0.849773 0.351860 -0.392529
vn -0.849832 0.338358 -0.404104
vn -0.849832 0.338358 -0.404104
vn 0.024633 0.620326 -0.783957
vn 0.024633 0.620326 -0.783957
vn 0.024671 0.584124 -0.811289
vn 0.024671 0.584124 -0.811289
vn 0.874557 0.327391 -0.357721
vn 0.874421 0.332829 -0.353005
vn 0.874699 0.313886 -0.369293
vn 0.874699 0.313886 -0.369293
vn 0.853459 -0.233784 0.465782
vn 0.853781 -0.243076 0.460405
vn 0.851765 -0.203835 0.482647
vn 0.851765 -0.203835 0.482647
vn -0.024609 -0.516812 0.855745
vn -0.024609 -0.516812 0.855745
vn -0.024412 -0.451054 0.892163
vn -0.024412 -0.451054 0.892163
vn 0.187593 0.577350 -0.794655
vn 0.187593 0.577350 -0.794655
vn 0.187593 0.577350 -0.794655
vn -0.491124 0.356822 -0.794655
vn -0.491124 0.356822 -0.794654
vn -0.491124 0.356822 -0.794655
vn -0.491124 -0.356822 -0.794654
vn -0.491124 -0.356822 -0.794654
vn -0.491124 -0.356822 -0.794654
vn 0.187593 -0.577350 -0.794655
vn 0.187593 -0.577350 -0.794655
vn 0.187593 -0.577350 -0.794655
vn 0.607062 -0.000000 -0.794654
vn 0.607062 -0.000000 -0.794654
vn 0.607062 -0.000000 -0.794654
vn 0.303531 0.934172 -0.187592
vn 0.303531 0.934172 -0.187592
vn 0.303531 0.934172 -0.187592
vn -0.794655 0.577350 -0.187592
vn -0.794655 0.577350 -0.187592
vn -0.794655 0.577350 -0.187592
vn -0.794654 -0.577350 -0.187593
vn -0.794654 -0.577350 -0.187593
vn -0.794654 -0.577350 -0.187593
vn 0.303531 -0.934172 -0.187594
vn 0.303531 -0.934172 -0.187594
vn 0.303531 -0.934172 -0.187594
vn 0.982247 0.000000 -0.187593
vn 0.982247 0.000000 -0.187593
vn 0.982247 0.000000 -0.187593
vn 0.794655 0.577350 0.187592
vn 0.794655 0.577350 0.187592
vn 0.794655 0.577350 0.187592
vn -0.303531 0.934172 0.187592
vn -0.303531 0.934172 0.187592
vn -0.303531 0.934172 0.187592
vn -0.982247 -0.000000 0.187593
vn -0.982247 -0.000000 0.187593
vn -0.982247 -0.000000 0.187593
vn -0.303531 -0.934172 0.187594
vn -0.303531 -0.934172 0.187594
vn -0.303531 -0.934172 0.187594
vn 0.794655 -0.577350 0.187592
vn 0.794655 -0.577350 0.187592
vn 0.794655 -0.577350 0.187592
vn 0.491123 0.356822 0.794655
vn 0.491123 0.356822 0.794655
vn 0.491123 0.356822 0.794655
vn -0.187593 0.577350 0.794655
vn -0.187593 0.577350 0.794655
vn -0.187593 0.577350 0.794655
vn -0.607062 -0.000000 0.794655
vn -0.607062 -0.000000 0.794655
vn -0.607062 -0.000000 0.794655
vn -0.187593 -0.577351 0.794654
vn -0.187593 -0.577350 0.794654
vn -0.187593 -0.577351 0.794654
vn 0.491123 -0.356822 0.794655
vn 0.491123 -0.356822 0.794655
vn 0.491123 -0.356822 0.794655
vn 0.187592 0.577351 -0.794654
vn 0.187592 0.577351 -0.794654
vn 0.187592 0.577351 -0.794654
vn -0.491125 0.356823 -0.794653
vn -0.491125 0.356823 -0.794654
vn -0.491125 0.356823 -0.794654
vn -0.491124 -0.356822 -0.794654
vn -0.491124 -0.356822 -0.794654
vn -0.491124 -0.356822 -0.794654
vn 0.187592 -0.577350 -0.794655
vn 0.187592 -0.577350 -0.794654
vn 0.187592 -0.577350 -0.794655
vn 0.607062 -0.000000 -0.794654
vn 0.607062 -0.000000 -0.794654
vn 0.607062 -0.000000 -0.794654
vn 0.303531 0.934172 -0.187593
vn 0.303531 0.934172 -0.187593
vn 0.303531 0.934172 -0.187593
vn -0.794655 0.577350 -0.187592
vn -0.794655 0.577350 -0.187592
vn -0.794654 0.577350 -0.187592
vn -0.794654 -0.577350 -0.187593
vn -0.794655 -0.577350 -0.187593
vn -0.794655 -0.577350 -0.187593
vn 0.303531 -0.934173 -0.187592
vn 0.303531 -0.934173 -0.187592
vn 0.303531 -0.934173 -0.187592
vn 0.982247 0.000000 -0.187592
vn 0.982247 0.000000 -0.187592
vn 0.982247 0.000000 -0.187592
vn 0.794654 0.577351 0.187592
vn 0.794654 0.577351 0.187592
vn 0.794654 0.577351 0.187592
vn -0.303531 0.934172 0.187593
vn -0.303531 0.934172 0.187593
vn -0.303531 0.934172 0.187593
vn -0.982247 -0.000000 0.187593
vn -0.982247 -0.000000 0.187593
vn -0.982247 -0.000000 0.187593
vn -0.303531 -0.934173 0.187590
vn -0.303531 -0.934173 0.187590
vn -0.303531 -0.934173 0.187590
vn 0.794654 -0.577351 0.187592
vn 0.794654 -0.577351 0.187592
vn 0.794654 -0.577351 0.187592
vn 0.491124 0.356822 0.794654
vn 0.491124 0.356822 0.794654
vn 0.491124 0.356822 0.794654
vn -0.187592 0.577351 0.794654
vn -0.187592 0.577351 0.794654
vn -0.187592 0.577351 0.794654
vn -0.607062 -0.000000 0.794655
vn -0.607061 -0.000000 0.794655
vn -0.607062 -0.000000 0.794655
vn -0.187592 -0.577350 0.794655
vn -0.187592 -0.577350 0.794655
vn -0.187592 -0.577350 0.794655
vn 0.491124 -0.356822 0.794654
vn 0.491124 -0.356822 0.794654
vn 0.491124 -0.356822 0.794654
vn 0.154748 0.584682 -0.796367
vn 0.154748 0.584682 -0.796367
vn 0.154748 0.584682 -0.796367
vn -0.514098 0.361698 -0.777739
vn -0.514098 0.361698 -0.777739
vn -0.514098 0.361698 -0.777739
vn -0.508220 -0.388057 -0.768846
vn -0.508220 -0.388057 -0.768846
vn -0.508220 -0.388057 -0.768846
vn 0.163489 -0.617707 -0.769227
vn 0.163489 -0.617707 -0.769227
vn 0.163489 -0.617707 -0.769227
vn 0.632718 -0.000000 -0.774382
vn 0.632718 -0.000000 -0.774382
vn 0.632718 -0.000000 -0.774382
vn 0.254573 0.961849 -0.100197
vn 0.254573 0.961849 -0.100197
vn 0.254573 0.961849 -0.100197
vn -0.815512 0.573761 -0.075761
vn -0.815512 0.573761 -0.075761
vn -0.815512 0.573761 -0.075761
vn -0.791711 -0.604520 -0.088035
vn -0.791711 -0.604520 -0.088035
vn -0.791711 -0.604520 -0.088035
vn 0.254573 -0.961849 -0.100197
vn 0.254573 -0.961849 -0.100197
vn 0.254573 -0.961849 -0.100197
vn 0.992685 -0.000000 -0.120736
vn 0.992685 -0.000000 -0.120736
vn 0.992685 -0.000000 -0.120736
vn 0.808576 0.568881 0.150263
vn 0.808576 0.568881 0.150263
vn 0.808576 0.568881 0.150263
vn -0.405256 0.900181 0.159504
vn -0.405256 0.900181 0.159504
vn -0.405256 0.900181 0.159504
vn -0.992685 -0.000000 0.120736
vn -0.992685 -0.000000 0.120736
vn -0.992685 -0.000000 0.120736
vn -0.352719 -0.925374 0.138826
vn -0.352719 -0.925374 0.138826
vn -0.352719 -0.925374 0.138826
vn 0.787259 -0.601120 0.137399
vn 0.787259 -0.601120 0.137399
vn 0.787259 -0.601120 0.137399
vn 0.536685 0.377590 0.754583
vn 0.536685 0.377590 0.754583
vn 0.536685 0.377590 0.754583
vn -0.278794 0.619275 0.734011
vn -0.278794 0.619275 0.734011
vn -0.278794 0.619275 0.734011
vn -0.660261 -0.000000 0.751036
vn -0.660261 -0.000000 0.751036
vn -0.660261 -0.000000 0.751036
vn -0.247582 -0.649544 0.718885
vn -0.247582 -0.649544 0.718885
vn -0.247582 -0.649544 0.718885
vn 0.530008 -0.404693 0.745194
vn 0.530008 -0.404693 0.745195
vn 0.530008 -0.404693 0.745195
vn 0.000000 -0.552962 -0.833207
vn 0.000000 -0.552962 -0.833207
vn 0.000000 -0.552962 -0.833207
vn 0.000000 -0.552962 -0.833207
vn -0.864819 -0.255298 -0.432332
vn -0.864819 -0.255298 -0.432332
vn -0.864819 -0.255298 -0.432332
vn -0.864819 -0.255298 -0.432332
vn -0.864819 0.340029 0.369417
vn -0.864819 0.340029 0.369417
vn -0.864819 0.340029 0.369417
vn -0.864819 0.340029 0.369417
vn 0.000000 0.637692 0.770291
vn 0.000000 0.637692 0.770291
vn 0.000000 0.637692 0.770291
vn 0.000000 0.637692 0.770291
vn 0.864819 0.340029 0.369417
vn 0.864819 0.340029 0.369417
vn 0.864819 0.340029 0.369417
vn 0.864819 0.340029 0.369417
vn 0.864819 -0.255298 -0.432332
vn 0.864819 -0.255298 -0.432332
vn 0.864819 -0.255298 -0.432332
vn 0.864819 -0.255298 -0.432332
vn 0.863444 -0.247858 -0.439353
vn 0.863391 -0.247581 -0.439613
vn 0.860766 0.338071 0.380513
vn 0.860740 0.338059 0.380583
vn 0.000000 0.647086 0.762417
vn 0.000000 0.647086 0.762417
vn -0.860740 0.338059 0.380583
vn -0.860766 0.338071 0.380513
vn -0.863391 -0.247581 -0.439613
vn -0.863444 -0.247858 -0.439353
vn 0.000000 -0.519368 -0.854551
vn 0.000000 -0.519368 -0.854551
vn 0.866261 -0.114035 -0.486403
vn 0.865916 -0.103705 -0.489321
vn 0.864138 -0.070529 -0.498289
vn 0.864138 -0.070529 -0.498289
vn 0.862310 0.242704 0.444429
vn 0.862428 0.236270 0.447655
vn 0.862528 0.220322 0.455526
vn 0.862527 0.220322 0.455526
vn 0.000000 0.407104 0.913382
vn 0.000000 0.407104 0.913382
vn 0.000000 0.365264 0.930904
vn 0.000000 0.365264 0.930904
vn -0.862428 0.236270 0.447655
vn -0.862310 0.242704 0.444429
vn -0.862528 0.220322 0.455526
vn -0.862528 0.220322 0.455527
vn -0.865915 -0.103705 -0.489322
vn -0.866261 -0.114035 -0.486404
vn -0.864137 -0.070529 -0.498290
vn -0.864137 -0.070529 -0.498290
vn 0.000000 -0.289042 -0.957316
vn 0.000000 -0.289042 -0.957316
vn 0.000000 -0.216316 -0.976323
vn 0.000000 -0.216316 -0.976323
s off
g Arbol_2
usemtl initialShadingGroup
f 1/13/1 2/1/2 8/4/3 7/14/4
f 2/1/5 3/2/6 9/3/7 8/4/8
f 3/2/9 4/5/10 10/6/11 9/3/12
f 4/5/13 5/7/14 11/10/15 10/6/16
f 5/7/17 6/8/18 12/9/19 11/10/20
f 6/8/21 1/11/22 7/12/23 12/9/24
s 1
f 13/15/25 14/16/26 30/17/27 25/18/28
s 2
f 14/16/29 15/19/30 29/20/31 30/17/32
s 3
f 15/19/33 16/21/34 28/22/35 29/20/36
s 4
f 16/21/37 17/23/38 27/24/39 28/22/40
s 5
f 17/23/41 18/25/42 26/26/43 27/24/44
s 6
f 18/25/45 13/27/46 25/28/47 26/26/48
f 26/26/48 25/28/47 37/29/49 38/30/50
s 5
f 27/24/44 26/26/43 38/30/51 39/31/52
s 4
f 28/22/40 27/24/39 39/31/53 40/32/54
s 3
f 29/20/36 28/22/35 40/32/55 41/33/56
s 2
f 30/17/32 29/20/31 41/33/57 42/34/58
s 1
f 25/18/28 30/17/27 42/34/59 37/35/60
s 6
f 32/36/61 31/37/62 19/38/63 24/39/64
s 5
f 33/40/65 32/36/66 24/39/67 23/41/68
s 4
f 34/42/69 33/40/70 23/41/71 22/43/72
s 3
f 35/44/73 34/42/74 22/43/75 21/45/76
s 2
f 36/46/77 35/44/78 21/45/79 20/47/80
s 1
f 31/48/81 36/46/82 20/47/83 19/49/84
s 6
f 38/30/50 37/29/49 31/37/62 32/36/61
s 5
f 39/31/52 38/30/51 32/36/66 33/40/65
s 4
f 40/32/54 39/31/53 33/40/70 34/42/69
s 3
f 41/33/56 40/32/55 34/42/74 35/44/73
s 2
f 42/34/58 41/33/57 35/44/78 36/46/77
s 1
f 37/35/60 42/34/59 36/46/82 31/48/81
s off
f 43/50/85 45/51/86 44/52/87
f 43/53/88 46/54/89 45/55/90
f 43/53/91 47/56/92 46/54/93
f 43/57/94 48/58/95 47/59/96
f 43/57/97 44/60/98 48/58/99
f 44/52/100 45/51/101 50/61/102
f 45/51/103 46/54/104 51/62/105
f 46/54/106 47/56/107 52/63/108
f 47/59/109 48/58/110 53/64/111
f 48/58/112 44/60/113 49/65/114
f 44/60/115 50/66/116 49/65/117
f 45/51/118 51/62/119 50/61/120
f 46/54/121 52/63/122 51/62/123
f 47/59/124 53/64/125 52/67/126
f 48/58/127 49/65/128 53/68/129
f 49/65/130 50/66/131 54/69/132
f 50/61/133 51/62/134 54/70/135
f 51/62/136 52/63/137 54/71/138
f 52/67/139 53/64/140 54/72/141
f 53/73/142 49/65/143 54/69/144
f 55/74/145 57/75/146 56/76/147
f 55/77/148 58/78/149 57/79/150
f 55/77/151 59/80/152 58/78/153
f 55/81/154 60/82/155 59/83/156
f 55/81/157 56/84/158 60/82/159
f 56/76/160 57/75/161 62/85/162
f 57/75/163 58/78/164 63/86/165
f 58/78/166 59/80/167 64/87/168
f 59/83/169 60/82/170 65/88/171
f 60/82/172 56/84/173 61/89/174
f 56/84/175 62/90/176 61/89/177
f 57/75/178 63/86/179 62/85/180
f 58/78/181 64/87/182 63/86/183
f 59/83/184 65/88/185 64/91/186
f 60/82/187 61/89/188 65/92/189
f 61/89/190 62/90/191 66/93/192
f 62/85/193 63/86/194 66/94/195
f 63/86/196 64/87/197 66/95/198
f 64/91/199 65/88/200 66/96/201
f 65/97/202 61/89/203 66/93/204
f 67/98/205 69/99/206 68/100/207
f 67/101/208 70/102/209 69/103/210
f 67/101/211 71/104/212 70/102/213
f 67/105/214 72/106/215 71/107/216
f 67/105/217 68/108/218 72/106/219
f 68/100/220 69/99/221 74/109/222
f 69/99/223 70/102/224 75/110/225
f 70/102/226 71/104/227 76/111/228
f 71/107/229 72/106/230 77/112/231
f 72/106/232 68/108/233 73/113/234
f 68/108/235 74/114/236 73/113/237
f 69/99/238 75/110/239 74/109/240
f 70/102/241 76/111/242 75/110/243
f 71/107/244 77/112/245 76/115/246
f 72/106/247 73/113/248 77/116/249
f 73/113/250 74/114/251 78/117/252
f 74/109/253 75/110/254 78/118/255
f 75/110/256 76/111/257 78/119/258
f 76/115/259 77/112/260 78/120/261
f 77/121/262 73/113/263 78/117/264
s 7
f 79/122/265 80/123/266 96/124/267 91/125/268
s 8
f 80/123/269 81/126/270 95/127/271 96/124/272
s 9
f 81/126/273 82/128/274 94/129/275 95/127/276
s 10
f 82/128/277 83/130/278 93/131/279 94/129/280
s 11
f 83/130/281 84/132/282 92/133/283 93/131/284
s 12
f 84/132/285 79/134/286 91/135/287 92/133/288
f 92/133/288 91/135/287 103/136/289 104/137/290
s 11
f 93/131/284 92/133/283 104/137/291 105/138/292
s 10
f 94/129/280 93/131/279 105/138/293 106/139/294
s 9
f 95/127/276 94/129/275 106/139/295 107/140/296
s 8
f 96/124/272 95/127/271 107/140/297 108/141/298
s 7
f 91/125/268 96/124/267 108/141/299 103/142/300
s 12
f 98/143/301 97/144/302 85/145/303 90/146/304
s 11
f 99/147/305 98/143/306 90/146/307 89/148/308
s 10
f 100/149/309 99/147/310 89/148/311 88/150/312
s 9
f 101/151/313 100/149/314 88/150/315 87/152/316
s 8
f 102/153/317 101/151/318 87/152/319 86/154/320
s 7
f 97/155/321 102/153/322 86/154/323 85/156/324
s 12
f 104/137/290 103/136/289 97/144/302 98/143/301
s 11
f 105/138/292 104/137/291 98/143/306 99/147/305
s 10
f 106/139/294 105/138/293 99/147/310 100/149/309
s 9
f 107/140/296 106/139/295 100/149/314 101/151/313
s 8
f 108/141/298 107/140/297 101/151/318 102/153/317
s 7
f 103/142/300 108/141/299 102/153/322 97/155/321
