# This file uses centimeters as units for non-parametric coordinates.

mtllib Arbol_5.mtl
g default
v 0.000000 3.363195 -1.291207
v 0.764524 4.011670 -0.666544
v -0.292022 4.291306 -0.666544
v -0.945004 3.363195 -0.666544
v -0.292022 2.508016 -0.666544
v 0.764524 2.787652 -0.666544
v 0.945004 3.363195 0.817353
v 0.292022 4.291306 0.817353
v -0.764524 3.815656 0.817353
v -0.764524 2.910733 0.817353
v 0.292022 2.508016 0.817353
v 0.000000 3.363195 1.489472
v 0.114866 0.032245 -0.203533
v -0.114866 0.032245 -0.203533
v -0.229731 0.032245 -0.004580
v -0.114866 0.032245 0.194373
v 0.114866 0.032245 0.194373
v 0.229731 0.032245 -0.004580
v 0.042638 2.850647 -0.078431
v -0.042638 2.850647 -0.078431
v -0.085276 2.850647 -0.004580
v -0.042638 2.850647 0.069271
v 0.042638 2.850647 0.069271
v 0.085276 2.850647 -0.004580
vt 0.340830 0.364594
vt 0.316016 0.535367
vt 0.180529 0.428491
vt 0.476316 0.471470
vt 0.155715 0.599263
vt 0.205344 0.257718
vt 0.694018 0.268412
vt 0.848378 0.208537
vt 0.823051 0.372154
vt 0.719344 0.104795
vt 0.977411 0.312279
vt 0.668691 0.432029
vt 0.643364 0.595646
vt 0.797724 0.535771
vt 0.514331 0.491904
vt 0.952084 0.475897
vt 0.501131 0.300698
vt 0.365644 0.193821
vt 0.525945 0.129925
vt 0.390459 0.023049
vt 0.564985 0.164670
vt 0.539658 0.328287
vt 0.020229 0.492387
vt 0.045043 0.321615
vt 0.136684 0.980482
vt 0.126488 0.922352
vt 0.843551 0.815428
vt 0.847335 0.837006
vt 0.119281 0.863776
vt 0.840875 0.793685
vt 0.115081 0.804909
vt 0.839316 0.771834
vt 0.113898 0.745903
vt 0.838877 0.749931
vt 0.115736 0.686914
vt 0.839559 0.728034
vt 0.120591 0.628097
vt 0.841362 0.706201
vn 0.154748 0.584682 -0.796367
vn 0.154748 0.584682 -0.796367
vn 0.154748 0.584682 -0.796367
vn -0.514098 0.361698 -0.777739
vn -0.514098 0.361698 -0.777739
vn -0.514098 0.361698 -0.777739
vn -0.508220 -0.388057 -0.768846
vn -0.508220 -0.388057 -0.768846
vn -0.508220 -0.388057 -0.768846
vn 0.163489 -0.617707 -0.769227
vn 0.163489 -0.617707 -0.769227
vn 0.163489 -0.617707 -0.769227
vn 0.632718 -0.000000 -0.774382
vn 0.632718 -0.000000 -0.774382
vn 0.632718 -0.000000 -0.774382
vn 0.254573 0.961849 -0.100197
vn 0.254573 0.961849 -0.100197
vn 0.254573 0.961849 -0.100197
vn -0.815512 0.573761 -0.075761
vn -0.815512 0.573761 -0.075761
vn -0.815512 0.573761 -0.075761
vn -0.791711 -0.604520 -0.088035
vn -0.791711 -0.604520 -0.088035
vn -0.791711 -0.604520 -0.088035
vn 0.254573 -0.961849 -0.100197
vn 0.254573 -0.961849 -0.100197
vn 0.254573 -0.961849 -0.100197
vn 0.992685 -0.000000 -0.120736
vn 0.992685 -0.000000 -0.120736
vn 0.992685 -0.000000 -0.120736
vn 0.808576 0.568881 0.150263
vn 0.808576 0.568881 0.150263
vn 0.808576 0.568881 0.150263
vn -0.405256 0.900181 0.159504
vn -0.405256 0.900181 0.159504
vn -0.405256 0.900181 0.159504
vn -0.992685 -0.000000 0.120736
vn -0.992685 -0.000000 0.120736
vn -0.992685 -0.000000 0.120736
vn -0.352719 -0.925374 0.138826
vn -0.352719 -0.925374 0.138826
vn -0.352719 -0.925374 0.138826
vn 0.787259 -0.601120 0.137399
vn 0.787259 -0.601120 0.137399
vn 0.787259 -0.601120 0.137399
vn 0.536685 0.377590 0.754583
vn 0.536685 0.377590 0.754583
vn 0.536685 0.377590 0.754583
vn -0.278794 0.619275 0.734011
vn -0.278794 0.619275 0.734011
vn -0.278794 0.619275 0.734011
vn -0.660261 -0.000000 0.751036
vn -0.660261 -0.000000 0.751036
vn -0.660261 -0.000000 0.751036
vn -0.247582 -0.649544 0.718885
vn -0.247582 -0.649544 0.718885
vn -0.247582 -0.649544 0.718885
vn 0.530008 -0.404694 0.745195
vn 0.530008 -0.404694 0.745195
vn 0.530008 -0.404694 0.745195
vn 0.000001 0.044344 -0.999016
vn 0.000001 0.044344 -0.999016
vn 0.000001 0.044344 -0.999016
vn 0.000001 0.044344 -0.999016
vn -0.865174 0.044344 -0.499508
vn -0.865174 0.044344 -0.499508
vn -0.865174 0.044344 -0.499508
vn -0.865174 0.044344 -0.499508
vn -0.865174 0.044344 0.499508
vn -0.865174 0.044344 0.499508
vn -0.865174 0.044344 0.499508
vn -0.865174 0.044344 0.499508
vn 0.000000 0.044344 0.999016
vn 0.000000 0.044344 0.999016
vn 0.000000 0.044344 0.999016
vn 0.000000 0.044344 0.999016
vn 0.865174 0.044344 0.499508
vn 0.865174 0.044344 0.499508
vn 0.865174 0.044344 0.499508
vn 0.865174 0.044344 0.499508
vn 0.865173 0.044344 -0.499508
vn 0.865173 0.044344 -0.499508
vn 0.865173 0.044344 -0.499508
vn 0.865173 0.044344 -0.499508
s off
g Arbol_5
usemtl initialShadingGroup
f 1/15/1 3/12/2 2/13/3
f 1/21/4 4/7/5 3/22/6
f 1/21/7 5/10/8 4/7/9
f 1/4/10 6/1/11 5/17/12
f 1/4/13 2/2/14 6/1/15
f 2/13/16 3/12/17 8/14/18
f 3/12/19 4/7/20 9/9/21
f 4/7/22 5/10/23 10/8/24
f 5/17/25 6/1/26 11/18/27
f 6/1/28 2/2/29 7/3/30
f 2/2/31 8/5/32 7/3/33
f 3/12/34 9/9/35 8/14/36
f 4/7/37 10/8/38 9/9/39
f 5/17/40 11/18/41 10/19/42
f 6/1/43 7/3/44 11/6/45
f 7/3/46 8/5/47 12/23/48
f 8/14/49 9/9/50 12/16/51
f 9/9/52 10/8/53 12/11/54
f 10/19/55 11/18/56 12/20/57
f 11/24/58 7/3/59 12/23/60
f 13/25/61 14/26/62 20/27/63 19/28/64
f 14/26/65 15/29/66 21/30/67 20/27/68
f 15/29/69 16/31/70 22/32/71 21/30/72
f 16/31/73 17/33/74 23/34/75 22/32/76
f 17/33/77 18/35/78 24/36/79 23/34/80
f 18/35/81 13/37/82 19/38/83 24/36/84
