# This file uses meters as units for non-parametric coordinates.

mtllib Molino.mtl
g default
v 1600.448364 164.334778 -327.647400
v 1764.970215 164.334778 -327.647400
v 1600.448364 270.091125 -327.647400
v 1764.970215 270.091125 -327.647400
v 1828.711426 375.432281 -631.865601
v 1679.987915 375.432281 -631.865601
v 1605.626221 375.432281 -503.067322
v 1679.987915 375.432281 -374.268982
v 1828.711304 375.432281 -374.268921
v 1903.072998 375.432281 -503.067291
v 1828.711426 418.326691 -631.865601
v 1679.987915 418.326691 -631.865601
v 1605.626221 418.326691 -503.067322
v 1679.987915 418.326691 -374.268982
v 1828.711304 418.326691 -374.268921
v 1903.072998 418.326691 -503.067291
v 1583.297729 321.057404 -327.647400
v 1661.366821 465.876801 -327.647400
v 1490.206299 371.241028 -327.647400
v 1568.275391 516.060425 -327.647400
v 1746.834351 392.553528 -332.622284
v 1760.413208 392.553528 -332.622284
v 1746.834351 392.553528 -325.077271
v 1760.413208 392.553528 -325.077271
v 1746.834351 631.771301 -325.077271
v 1760.413208 631.771301 -325.077271
v 1746.834351 631.771301 -332.622284
v 1760.413208 631.771301 -332.622284
v 1760.413208 389.562622 -332.622284
v 1746.834351 389.562622 -332.622284
v 1760.413208 389.562622 -325.077271
v 1746.834351 389.562622 -325.077271
v 1760.413208 150.344849 -325.077271
v 1746.834351 150.344849 -325.077271
v 1760.413208 150.344849 -332.622284
v 1746.834351 150.344849 -332.622284
v 1739.326782 399.948669 -332.622284
v 1745.758423 411.907806 -332.622284
v 1739.326782 399.948669 -325.077271
v 1745.758423 411.907806 -325.077271
v 1528.644653 513.254456 -325.077271
v 1535.076294 525.213562 -325.077271
v 1528.644653 513.254456 -332.622284
v 1535.076294 525.213562 -332.622284
v 1762.920410 414.632874 -375.314819
v 1745.778809 414.632874 -375.314819
v 1737.207886 399.787720 -375.314819
v 1745.778809 384.942566 -375.314819
v 1762.920410 384.942566 -375.314819
v 1771.491333 399.787720 -375.314819
v 1762.920410 414.632874 -318.957764
v 1745.778809 414.632874 -318.957764
v 1737.207886 399.787720 -318.957764
v 1745.778809 384.942566 -318.957764
v 1762.920410 384.942566 -318.957764
v 1771.491333 399.787720 -318.957764
v 1858.575317 -23.973038 -683.591431
v 1650.124023 -23.973038 -683.591492
v 1545.898315 -23.973038 -503.067322
v 1650.123901 -23.973038 -322.543091
v 1858.575317 -23.973038 -322.543030
v 1962.800903 -23.973038 -503.067291
v 1858.575317 94.927368 -683.591431
v 1650.124023 94.927368 -683.591492
v 1545.898315 94.927368 -503.067322
v 1650.123901 94.927368 -322.543091
v 1858.575317 94.927368 -322.543030
v 1962.800903 94.927368 -503.067291
v 1738.042603 510.381500 -327.647400
v 1902.564453 510.381500 -327.647400
v 1738.042603 616.137878 -327.647400
v 1902.564453 616.137878 -327.647400
v 1832.855469 90.461914 -639.043396
v 1675.843750 90.461914 -639.043396
v 1597.337891 90.461914 -503.067322
v 1675.843750 90.461914 -367.091187
v 1832.855469 90.461914 -367.091125
v 1911.361328 90.461914 -503.067291
v 1826.891357 383.121002 -628.713196
v 1681.807861 383.121002 -628.713257
v 1609.266235 383.121002 -503.067322
v 1681.807861 383.121002 -377.421356
v 1826.891357 383.121002 -377.421295
v 1899.432983 383.121002 -503.067291
v 1826.805176 409.433990 -628.353149
v 1682.137451 409.433990 -628.353149
v 1609.803711 409.433990 -503.067322
v 1682.137451 409.433990 -377.781433
v 1826.805176 409.433990 -377.781433
v 1899.138916 409.433990 -503.067291
v 1824.122437 431.782898 -623.706482
v 1684.820312 431.782898 -623.706543
v 1615.169189 431.782898 -503.067322
v 1684.820190 431.782898 -382.428101
v 1824.122437 431.782898 -382.428101
v 1893.773438 431.782898 -503.067291
v 1819.724609 453.017334 -616.089294
v 1689.218018 453.017334 -616.089294
v 1623.964722 453.017334 -503.067322
v 1689.218018 453.017334 -390.045288
v 1819.724609 453.017334 -390.045288
v 1884.977905 453.017334 -503.067291
v 1813.720093 472.614380 -605.689148
v 1695.222534 472.614380 -605.689148
v 1635.973877 472.614380 -503.067322
v 1695.222534 472.614380 -400.445465
v 1813.720093 472.614380 -400.445435
v 1872.968750 472.614380 -503.067291
v 1806.256592 490.091492 -592.762085
v 1702.686035 490.091492 -592.762085
v 1650.900757 490.091492 -503.067322
v 1702.686035 490.091492 -413.372528
v 1806.256592 490.091492 -413.372498
v 1858.041870 490.091492 -503.067291
v 1797.518066 505.018402 -577.626404
v 1711.424561 505.018402 -577.626404
v 1668.377808 505.018402 -503.067291
v 1711.424561 505.018402 -428.508179
v 1797.518066 505.018402 -428.508179
v 1840.564819 505.018402 -503.067291
v 1787.719482 517.027466 -560.654907
v 1721.223145 517.027466 -560.654907
v 1687.974854 517.027466 -503.067291
v 1721.223145 517.027466 -445.479706
v 1787.719482 517.027466 -445.479706
v 1820.967773 517.027466 -503.067291
v 1777.102295 525.823059 -542.265320
v 1731.840332 525.823059 -542.265381
v 1709.209351 525.823059 -503.067291
v 1731.840332 525.823059 -463.869232
v 1777.102295 525.823059 -463.869232
v 1799.733276 525.823059 -503.067291
v 1765.927856 531.188538 -522.910645
v 1743.014771 531.188538 -522.910645
v 1731.558228 531.188538 -503.067291
v 1743.014771 531.188538 -483.223969
v 1765.927856 531.188538 -483.223969
v 1777.384399 531.188538 -503.067291
v 1754.471313 532.991821 -503.067291
v 1750.304077 392.278015 -325.077271
v 1756.735718 404.237152 -325.077271
v 1750.304077 392.278015 -332.622284
v 1756.735718 404.237152 -332.622284
v 1960.986206 278.972260 -332.622284
v 1967.417847 290.931396 -332.622284
v 1960.986206 278.972260 -325.077271
v 1967.417847 290.931396 -325.077271
v 1949.977417 273.633667 -327.647400
v 2028.046509 418.453064 -327.647400
v 1856.885986 323.817291 -327.647400
v 1934.955078 468.636688 -327.647400
vt 0.816988 0.137519
vt 0.938769 0.136169
vt 0.817856 0.215800
vt 0.939636 0.214451
vt 0.292648 0.025510
vt 0.349218 0.025510
vt 0.349218 0.056786
vt 0.292648 0.056786
vt 0.398208 0.025510
vt 0.398208 0.056786
vt 0.447199 0.025510
vt 0.447199 0.056786
vt 0.138096 0.025510
vt 0.194666 0.025510
vt 0.194666 0.056786
vt 0.138096 0.056786
vt 0.243657 0.025510
vt 0.243657 0.056786
vt 0.142764 0.098596
vt 0.294566 0.100581
vt 0.293291 0.198161
vt 0.141488 0.196177
vt 0.471437 0.548518
vt 0.456799 0.548517
vt 0.456816 0.290651
vt 0.471453 0.290652
vt 0.471454 0.276015
vt 0.479587 0.276015
vt 0.479586 0.290653
vt 0.494224 0.290654
vt 0.494207 0.548520
vt 0.479570 0.548519
vt 0.502357 0.290654
vt 0.502340 0.548520
vt 0.847507 0.550160
vt 0.831180 0.550159
vt 0.831198 0.262513
vt 0.847526 0.262514
vt 0.847527 0.246186
vt 0.856599 0.246187
vt 0.856598 0.262515
vt 0.872926 0.262516
vt 0.872908 0.550161
vt 0.856580 0.550160
vt 0.881998 0.262516
vt 0.881980 0.550162
vt 0.775804 0.545193
vt 0.758310 0.545192
vt 0.758330 0.237003
vt 0.775824 0.237004
vt 0.775825 0.219510
vt 0.785545 0.219511
vt 0.785544 0.237005
vt 0.803038 0.237006
vt 0.803019 0.545195
vt 0.785524 0.545194
vt 0.812759 0.237006
vt 0.812739 0.545196
vt 0.649433 0.536834
vt 0.649433 0.495534
vt 0.680066 0.495534
vt 0.680066 0.536834
vt 0.649433 0.459767
vt 0.680066 0.459767
vt 0.649433 0.424000
vt 0.680066 0.424000
vt 0.649433 0.382700
vt 0.680066 0.382700
vt 0.649433 0.346933
vt 0.680066 0.346933
vt 0.649433 0.311166
vt 0.680066 0.311166
vt 0.751600 0.424000
vt 0.715833 0.444650
vt 0.715833 0.362050
vt 0.751600 0.382700
vt 0.006999 0.984541
vt 0.006999 0.807188
vt 0.138540 0.807188
vt 0.138541 0.984541
vt 0.006999 0.653596
vt 0.138540 0.653596
vt 0.006999 0.500004
vt 0.138540 0.500004
vt 0.006999 0.322651
vt 0.138540 0.322651
vt 0.006999 0.169059
vt 0.138540 0.169059
vt 0.006999 0.015467
vt 0.138540 0.015467
vt 0.445725 0.500004
vt 0.292132 0.588680
vt 0.292133 0.233975
vt 0.445725 0.322651
vt 0.818027 0.016029
vt 0.946486 0.018413
vt 0.944953 0.100987
vt 0.816494 0.098603
vt 0.577360 0.591491
vt 0.726320 0.591491
vt 0.726320 0.869141
vt 0.577360 0.869141
vt 0.855322 0.591491
vt 0.855322 0.869141
vt 0.984325 0.591491
vt 0.984325 0.869141
vt 0.170395 0.591491
vt 0.319355 0.591491
vt 0.319355 0.869141
vt 0.170395 0.869141
vt 0.448358 0.591491
vt 0.448358 0.869141
vt 0.637133 0.296711
vt 0.635684 0.559561
vt 0.594236 0.554458
vt 0.595631 0.301357
vt 0.466078 0.269707
vt 0.432539 0.157306
vt 0.450764 0.156867
vt 0.482862 0.262554
vt 0.461611 0.042940
vt 0.478869 0.049533
vt 0.897298 0.521591
vt 0.898438 0.314837
vt 0.931040 0.318851
vt 0.929942 0.517936
vt 0.601760 0.294827
vt 0.557899 0.165361
vt 0.579104 0.164072
vt 0.621000 0.285780
vt 0.586868 0.030932
vt 0.607248 0.037873
vt 0.553291 0.546242
vt 0.554598 0.309121
vt 0.468775 0.156418
vt 0.499265 0.254012
vt 0.495680 0.057599
vt 0.963246 0.325314
vt 0.962218 0.511829
vt 0.600060 0.162779
vt 0.639737 0.275130
vt 0.627170 0.046548
vt 0.513042 0.535110
vt 0.514228 0.319809
vt 0.486563 0.155993
vt 0.515060 0.244032
vt 0.511838 0.067151
vt 0.994906 0.334070
vt 0.993972 0.503422
vt 0.620757 0.161523
vt 0.657706 0.262833
vt 0.646395 0.056982
vt 0.806365 0.210717
vt 0.713791 0.209543
vt 0.719817 0.192731
vt 0.800767 0.193757
vt 0.504152 0.155614
vt 0.530068 0.232666
vt 0.527175 0.078101
vt 0.716227 0.017898
vt 0.808801 0.019072
vt 0.802775 0.035884
vt 0.721825 0.034857
vt 0.641224 0.160331
vt 0.674697 0.248955
vt 0.664724 0.069078
vt 0.726785 0.176304
vt 0.794218 0.177159
vt 0.521623 0.155301
vt 0.544157 0.220061
vt 0.541573 0.090247
vt 0.795807 0.052311
vt 0.728374 0.051455
vt 0.661557 0.159220
vt 0.690567 0.233674
vt 0.682011 0.082608
vt 0.734485 0.160249
vt 0.786926 0.160915
vt 0.539150 0.155099
vt 0.557262 0.206527
vt 0.554977 0.103162
vt 0.788107 0.068366
vt 0.735666 0.067699
vt 0.681959 0.158236
vt 0.705250 0.217353
vt 0.698172 0.097076
vt 0.743371 0.144668
vt 0.778226 0.145234
vt 0.707998 0.113628
vt 0.726065 0.113735
vt 0.744366 0.083380
vt 0.779222 0.083947
vt 0.814594 0.114987
vt 0.796528 0.114880
vt 0.752287 0.129401
vt 0.769711 0.129741
vt 0.743779 0.113966
vt 0.752881 0.098874
vt 0.770306 0.099214
vt 0.778814 0.114649
vt 0.761296 0.114307
vt 0.964911 0.272399
vt 0.950580 0.272399
vt 0.950596 0.019928
vt 0.964927 0.019929
vt 0.964928 0.005597
vt 0.972891 0.005598
vt 0.972890 0.019929
vt 0.987221 0.019930
vt 0.987206 0.272401
vt 0.972874 0.272400
vt 0.995184 0.019931
vt 0.995169 0.272401
vt 0.427782 0.077450
vt 0.430406 0.229243
vt 0.332831 0.230930
vt 0.330207 0.079137
vn 0.000000 0.000000 1.000000
vn 0.000000 0.000000 1.000000
vn 0.000000 0.000000 1.000000
vn 0.000000 0.000000 1.000000
vn 0.000000 0.000000 -1.000000
vn 0.000000 0.000000 -1.000000
vn 0.000000 0.000000 -1.000000
vn 0.000000 0.000000 -1.000000
vn -0.866026 0.000000 -0.500000
vn -0.866026 0.000000 -0.500000
vn -0.866026 0.000000 -0.500000
vn -0.866026 0.000000 -0.500000
vn -0.866026 0.000000 0.500000
vn -0.866026 0.000000 0.500000
vn -0.866026 0.000000 0.500000
vn -0.866026 0.000000 0.500000
vn -0.000000 0.000000 1.000000
vn -0.000000 0.000000 1.000000
vn -0.000000 0.000000 1.000000
vn -0.000000 0.000000 1.000000
vn 0.866026 0.000000 0.500000
vn 0.866026 0.000000 0.500000
vn 0.866026 0.000000 0.500000
vn 0.866026 0.000000 0.500000
vn 0.866026 0.000000 -0.499999
vn 0.866026 0.000000 -0.499999
vn 0.866026 0.000000 -0.499999
vn 0.866026 0.000000 -0.499999
vn 0.000000 0.000000 1.000000
vn 0.000000 0.000000 1.000000
vn 0.000000 0.000000 1.000000
vn 0.000000 0.000000 1.000000
vn 0.000000 0.000000 1.000000
vn 0.000000 0.000000 1.000000
vn 0.000000 0.000000 1.000000
vn 0.000000 0.000000 1.000000
vn 0.000000 1.000000 0.000000
vn 0.000000 1.000000 0.000000
vn 0.000000 1.000000 0.000000
vn 0.000000 1.000000 0.000000
vn 0.000000 0.000000 -1.000000
vn 0.000000 0.000000 -1.000000
vn 0.000000 0.000000 -1.000000
vn 0.000000 0.000000 -1.000000
vn 1.000000 0.000000 0.000000
vn 1.000000 0.000000 0.000000
vn 1.000000 0.000000 0.000000
vn 1.000000 0.000000 0.000000
vn -1.000000 0.000000 0.000000
vn -1.000000 0.000000 0.000000
vn -1.000000 0.000000 0.000000
vn -1.000000 0.000000 0.000000
vn 0.000000 0.000000 1.000000
vn 0.000000 0.000000 1.000000
vn 0.000000 0.000000 1.000000
vn 0.000000 0.000000 1.000000
vn 0.000000 -1.000000 0.000000
vn 0.000000 -1.000000 0.000000
vn 0.000000 -1.000000 0.000000
vn 0.000000 -1.000000 0.000000
vn 0.000000 0.000000 -1.000000
vn 0.000000 0.000000 -1.000000
vn 0.000000 0.000000 -1.000000
vn 0.000000 0.000000 -1.000000
vn -1.000000 0.000000 0.000000
vn -1.000000 0.000000 0.000000
vn -1.000000 0.000000 0.000000
vn -1.000000 0.000000 0.000000
vn 1.000000 0.000000 0.000000
vn 1.000000 0.000000 0.000000
vn 1.000000 0.000000 0.000000
vn 1.000000 0.000000 0.000000
vn 0.000000 0.000000 1.000000
vn 0.000000 0.000000 1.000000
vn 0.000000 0.000000 1.000000
vn 0.000000 0.000000 1.000000
vn -0.880715 0.473647 0.000000
vn -0.880715 0.473647 0.000000
vn -0.880715 0.473647 0.000000
vn -0.880715 0.473647 0.000000
vn 0.000000 0.000000 -1.000000
vn 0.000000 0.000000 -1.000000
vn 0.000000 0.000000 -1.000000
vn 0.000000 0.000000 -1.000000
vn 0.473651 0.880712 0.000000
vn 0.473651 0.880712 0.000000
vn 0.473651 0.880712 0.000000
vn 0.473651 0.880712 0.000000
vn -0.473651 -0.880712 0.000000
vn -0.473651 -0.880712 0.000000
vn -0.473651 -0.880712 0.000000
vn -0.473651 -0.880712 0.000000
vn 0.000000 1.000000 0.000000
vn 0.000000 1.000000 0.000000
vn 0.000000 1.000000 0.000000
vn 0.000000 1.000000 0.000000
vn -0.866024 0.500002 0.000000
vn -0.866024 0.500002 0.000000
vn -0.866024 0.500002 0.000000
vn -0.866024 0.500002 0.000000
vn -0.866024 -0.500002 0.000000
vn -0.866024 -0.500002 0.000000
vn -0.866024 -0.500002 0.000000
vn -0.866024 -0.500002 0.000000
vn 0.000000 -1.000000 0.000000
vn 0.000000 -1.000000 0.000000
vn 0.000000 -1.000000 0.000000
vn 0.000000 -1.000000 0.000000
vn 0.866021 -0.500008 0.000000
vn 0.866021 -0.500008 0.000000
vn 0.866021 -0.500008 0.000000
vn 0.866021 -0.500008 0.000000
vn 0.866021 0.500008 0.000000
vn 0.866021 0.500008 0.000000
vn 0.866021 0.500008 0.000000
vn 0.866021 0.500008 0.000000
vn 0.000000 0.000000 1.000000
vn 0.000000 0.000000 1.000000
vn 0.000000 0.000000 1.000000
vn 0.000000 0.000000 1.000000
vn 0.000000 0.000000 1.000000
vn 0.000000 0.000000 1.000000
vn 0.000000 0.000000 -1.000000
vn 0.000000 0.000000 -1.000000
vn 0.000000 0.000000 -1.000000
vn 0.000000 0.000000 -1.000000
vn -0.866025 0.000000 -0.500000
vn -0.866025 0.000000 -0.500000
vn -0.866025 0.000000 -0.500000
vn -0.866025 0.000000 -0.500000
vn -0.866026 0.000000 0.500000
vn -0.866026 0.000000 0.500000
vn -0.866026 0.000000 0.500000
vn -0.866026 0.000000 0.500000
vn -0.000000 0.000000 1.000000
vn -0.000000 0.000000 1.000000
vn -0.000000 0.000000 1.000000
vn -0.000000 0.000000 1.000000
vn 0.866026 0.000000 0.499999
vn 0.866026 0.000000 0.499999
vn 0.866026 0.000000 0.499999
vn 0.866026 0.000000 0.499999
vn 0.866026 0.000000 -0.500000
vn 0.866026 0.000000 -0.500000
vn 0.866026 0.000000 -0.500000
vn 0.866026 0.000000 -0.500000
vn 0.000000 1.000000 -0.000000
vn 0.000000 1.000000 -0.000000
vn 0.000000 1.000000 -0.000000
vn 0.000000 1.000000 -0.000000
vn 0.000000 1.000000 -0.000000
vn 0.000000 1.000000 -0.000000
vn 0.000000 0.000000 1.000000
vn 0.000000 0.000000 1.000000
vn 0.000000 0.000000 1.000000
vn 0.000000 0.000000 1.000000
vn 0.000000 0.035276 -0.999378
vn 0.000000 0.035276 -0.999378
vn 0.000000 0.035276 -0.999378
vn 0.000000 0.035276 -0.999378
vn -0.865487 0.035276 -0.499689
vn -0.865486 0.035276 -0.499689
vn -0.865486 0.035276 -0.499689
vn -0.865487 0.035276 -0.499689
vn -0.865487 0.035276 0.499689
vn -0.865487 0.035276 0.499689
vn -0.865487 0.035276 0.499689
vn -0.865486 0.035276 0.499689
vn -0.000001 0.035276 0.999378
vn -0.000001 0.035276 0.999378
vn -0.000001 0.035276 0.999378
vn -0.000001 0.035276 0.999378
vn 0.865487 0.035276 0.499688
vn 0.865487 0.035276 0.499688
vn 0.865487 0.035276 0.499688
vn 0.865487 0.035276 0.499688
vn 0.865487 0.035276 -0.499689
vn 0.865487 0.035276 -0.499689
vn 0.865486 0.035276 -0.499689
vn 0.865486 0.035276 -0.499689
vn 0.000000 0.203560 -0.979062
vn 0.000000 0.203560 -0.979062
vn 0.000000 0.262383 -0.964964
vn 0.000000 0.262383 -0.964964
vn -0.847893 0.203563 -0.489531
vn -0.847893 0.203563 -0.489531
vn -0.835683 0.262383 -0.482482
vn -0.835683 0.262383 -0.482482
vn -0.847894 0.203555 0.489531
vn -0.847894 0.203555 0.489531
vn -0.835684 0.262380 0.482482
vn -0.835684 0.262380 0.482482
vn 0.000000 0.203561 0.979062
vn 0.000000 0.203561 0.979062
vn 0.000000 0.262383 0.964964
vn 0.000000 0.262383 0.964964
vn 0.847894 0.203556 0.489531
vn 0.847894 0.203556 0.489531
vn 0.835684 0.262381 0.482482
vn 0.835684 0.262381 0.482482
vn 0.847894 0.203555 -0.489531
vn 0.847894 0.203555 -0.489531
vn 0.835684 0.262380 -0.482482
vn 0.835684 0.262380 -0.482482
vn 0.000000 0.391343 -0.920245
vn 0.000000 0.391343 -0.920245
vn -0.796956 0.391341 -0.460123
vn -0.796956 0.391341 -0.460123
vn -0.796955 0.391345 0.460122
vn -0.796955 0.391345 0.460122
vn 0.000000 0.391343 0.920245
vn 0.000000 0.391343 0.920245
vn 0.796956 0.391343 0.460122
vn 0.796956 0.391343 0.460122
vn 0.796956 0.391343 -0.460122
vn 0.796956 0.391343 -0.460122
vn 0.000000 0.516852 -0.856075
vn 0.000000 0.516852 -0.856075
vn -0.741382 0.516854 -0.428036
vn -0.741382 0.516854 -0.428036
vn -0.741381 0.516855 0.428036
vn -0.741381 0.516855 0.428036
vn -0.000000 0.516852 0.856075
vn -0.000000 0.516852 0.856075
vn 0.741382 0.516854 0.428036
vn 0.741382 0.516854 0.428036
vn 0.741381 0.516856 -0.428036
vn 0.741381 0.516856 -0.428036
vn 0.000000 0.636465 -0.771306
vn 0.000000 0.636465 -0.771306
vn -0.667968 0.636468 -0.385651
vn -0.667968 0.636468 -0.385651
vn -0.667971 0.636464 0.385653
vn -0.667971 0.636464 0.385653
vn -0.000000 0.636465 0.771306
vn -0.000000 0.636465 0.771306
vn 0.667969 0.636467 0.385652
vn 0.667969 0.636467 0.385652
vn 0.667969 0.636467 -0.385652
vn 0.667969 0.636467 -0.385652
vn 0.000000 0.746667 -0.665198
vn 0.000000 0.746667 -0.665198
vn -0.576079 0.746666 -0.332600
vn -0.576079 0.746666 -0.332600
vn -0.576079 0.746666 0.332600
vn -0.576079 0.746666 0.332600
vn -0.000000 0.746667 0.665198
vn -0.000000 0.746667 0.665198
vn 0.576081 0.746664 0.332601
vn 0.576081 0.746664 0.332601
vn 0.576082 0.746663 -0.332601
vn 0.576082 0.746663 -0.332601
vn 0.000000 0.842803 -0.538222
vn 0.000000 0.842803 -0.538222
vn -0.466113 0.842804 -0.269111
vn -0.466113 0.842804 -0.269111
vn -0.466112 0.842804 0.269110
vn -0.466112 0.842804 0.269110
vn 0.000000 0.842803 0.538222
vn 0.000000 0.842803 0.538222
vn 0.466111 0.842805 0.269109
vn 0.466111 0.842806 0.269109
vn 0.466111 0.842805 -0.269110
vn 0.466111 0.842805 -0.269110
vn 0.000000 0.919307 -0.393542
vn 0.000000 0.919307 -0.393542
vn -0.340817 0.919307 -0.196771
vn -0.340817 0.919307 -0.196771
vn -0.340818 0.919306 0.196772
vn -0.340818 0.919306 0.196772
vn 0.000000 0.919306 0.393543
vn 0.000000 0.919306 0.393543
vn 0.340817 0.919307 0.196771
vn 0.340818 0.919307 0.196772
vn 0.340817 0.919307 -0.196771
vn 0.340817 0.919307 -0.196771
vn 0.000000 0.970230 -0.242184
vn 0.000000 0.970230 -0.242184
vn -0.209738 0.970230 -0.121093
vn -0.209738 0.970230 -0.121093
vn -0.209738 0.970230 0.121093
vn -0.209738 0.970230 0.121093
vn 0.000000 0.970230 0.242184
vn 0.000000 0.970230 0.242184
vn 0.209738 0.970230 0.121093
vn 0.209738 0.970230 0.121093
vn 0.209739 0.970230 -0.121093
vn 0.209739 0.970230 -0.121093
vn 0.000000 0.995896 -0.090506
vn -0.078378 0.995896 -0.045253
vn -0.078378 0.995896 0.045253
vn 0.000000 0.995896 0.090506
vn 0.078378 0.995896 0.045253
vn 0.078378 0.995896 -0.045253
vn 0.000000 0.000000 -1.000000
vn 0.000000 0.000000 -1.000000
vn 0.000000 0.000000 -1.000000
vn 0.000000 0.000000 -1.000000
vn 0.880712 -0.473653 0.000000
vn 0.880712 -0.473653 0.000000
vn 0.880712 -0.473653 0.000000
vn 0.880712 -0.473653 0.000000
vn 0.000000 0.000000 1.000000
vn 0.000000 0.000000 1.000000
vn 0.000000 0.000000 1.000000
vn 0.000000 0.000000 1.000000
vn 0.473651 0.880712 0.000000
vn 0.473651 0.880712 0.000000
vn 0.473651 0.880712 0.000000
vn 0.473651 0.880712 0.000000
vn -0.473651 -0.880712 0.000000
vn -0.473651 -0.880712 0.000000
vn -0.473651 -0.880712 0.000000
vn -0.473651 -0.880712 0.000000
vn 0.000000 0.000000 1.000000
vn 0.000000 0.000000 1.000000
vn 0.000000 0.000000 1.000000
vn 0.000000 0.000000 1.000000
s off
g Molino
usemtl initialShadingGroup
f 1/1/1 2/2/2 4/4/3 3/3/4
f 5/5/5 6/6/6 12/7/7 11/8/8
f 6/6/9 7/9/10 13/10/11 12/7/12
f 7/9/13 8/11/14 14/12/15 13/10/16
f 8/13/17 9/14/18 15/15/19 14/16/20
f 9/14/21 10/17/22 16/18/23 15/15/24
f 10/17/25 5/5/26 11/8/27 16/18/28
f 17/19/29 18/20/30 20/21/31 19/22/32
f 23/23/33 24/24/34 26/25/35 25/26/36
f 25/26/37 26/27/38 28/28/39 27/29/40
f 27/29/41 28/30/42 22/31/43 21/32/44
f 22/31/45 28/30/46 26/33/47 24/34/48
f 27/29/49 21/32/50 23/23/51 25/26/52
f 31/35/53 32/36/54 34/37/55 33/38/56
f 33/38/57 34/39/58 36/40/59 35/41/60
f 35/41/61 36/42/62 30/43/63 29/44/64
f 30/43/65 36/42/66 34/45/67 32/46/68
f 35/41/69 29/44/70 31/35/71 33/38/72
f 39/47/73 40/48/74 42/49/75 41/50/76
f 41/50/77 42/51/78 44/52/79 43/53/80
f 43/53/81 44/54/82 38/55/83 37/56/84
f 38/55/85 44/54/86 42/57/87 40/58/88
f 43/53/89 37/56/90 39/47/91 41/50/92
f 45/59/93 46/60/94 52/61/95 51/62/96
f 46/60/97 47/63/98 53/64/99 52/61/100
f 47/63/101 48/65/102 54/66/103 53/64/104
f 48/65/105 49/67/106 55/68/107 54/66/108
f 49/67/109 50/69/110 56/70/111 55/68/112
f 50/69/113 45/71/114 51/72/115 56/70/116
f 52/73/117 53/74/118 54/66/119 55/68/120 56/75/121 51/76/122
f 57/77/123 58/78/124 64/79/125 63/80/126
f 58/78/127 59/81/128 65/82/129 64/79/130
f 59/81/131 60/83/132 66/84/133 65/82/134
f 60/83/135 61/85/136 67/86/137 66/84/138
f 61/85/139 62/87/140 68/88/141 67/86/142
f 62/87/143 57/89/144 63/90/145 68/88/146
f 64/91/147 65/92/148 66/84/149 67/86/150 68/93/151 63/94/152
f 69/95/153 70/96/154 72/97/155 71/98/156
f 73/99/157 74/100/158 80/101/159 79/102/160
f 74/100/161 75/103/162 81/104/163 80/101/164
f 75/103/165 76/105/166 82/106/167 81/104/168
f 76/107/169 77/108/170 83/109/171 82/110/172
f 77/108/173 78/111/174 84/112/175 83/109/176
f 78/111/177 73/99/178 79/102/179 84/112/180
s 1
f 85/113/181 86/114/182 92/115/183 91/116/184
s 2
f 86/117/185 87/118/186 93/119/187 92/120/188
s 3
f 87/118/189 88/121/190 94/122/191 93/119/192
s 4
f 88/123/193 89/124/194 95/125/195 94/126/196
s 5
f 89/127/197 90/128/198 96/129/199 95/130/200
s 6
f 90/128/201 85/131/202 91/132/203 96/129/204
s 1
f 91/116/184 92/115/183 98/133/205 97/134/206
s 2
f 92/120/188 93/119/187 99/135/207 98/136/208
s 3
f 93/119/192 94/122/191 100/137/209 99/135/210
s 4
f 94/126/196 95/125/195 101/138/211 100/139/212
s 5
f 95/130/200 96/129/199 102/140/213 101/141/214
s 6
f 96/129/204 91/132/203 97/142/215 102/140/216
s 1
f 97/134/206 98/133/205 104/143/217 103/144/218
s 2
f 98/136/208 99/135/207 105/145/219 104/146/220
s 3
f 99/135/210 100/137/209 106/147/221 105/145/222
s 4
f 100/139/212 101/138/211 107/148/223 106/149/224
s 5
f 101/141/214 102/140/213 108/150/225 107/151/226
s 6
f 102/140/216 97/142/215 103/152/227 108/150/228
s 1
f 103/153/218 104/154/217 110/155/229 109/156/230
s 2
f 104/146/220 105/145/219 111/157/231 110/158/232
s 3
f 105/145/222 106/147/221 112/159/233 111/157/234
s 4
f 106/160/224 107/161/223 113/162/235 112/163/236
s 5
f 107/151/226 108/150/225 114/164/237 113/165/238
s 6
f 108/150/228 103/152/227 109/166/239 114/164/240
s 1
f 109/156/230 110/155/229 116/167/241 115/168/242
s 2
f 110/158/232 111/157/231 117/169/243 116/170/244
s 3
f 111/157/234 112/159/233 118/171/245 117/169/246
s 4
f 112/163/236 113/162/235 119/172/247 118/173/248
s 5
f 113/165/238 114/164/237 120/174/249 119/175/250
s 6
f 114/164/240 109/166/239 115/176/251 120/174/252
s 1
f 115/168/242 116/167/241 122/177/253 121/178/254
s 2
f 116/170/244 117/169/243 123/179/255 122/180/256
s 3
f 117/169/246 118/171/245 124/181/257 123/179/258
s 4
f 118/173/248 119/172/247 125/182/259 124/183/260
s 5
f 119/175/250 120/174/249 126/184/261 125/185/262
s 6
f 120/174/252 115/176/251 121/186/263 126/184/264
s 1
f 121/178/254 122/177/253 128/187/265 127/188/266
s 2
f 122/177/256 123/189/255 129/190/267 128/187/268
s 3
f 123/189/258 124/183/257 130/191/269 129/190/270
s 4
f 124/183/260 125/182/259 131/192/271 130/191/272
s 5
f 125/182/262 126/193/261 132/194/273 131/192/274
s 6
f 126/193/264 121/178/263 127/188/275 132/194/276
s 1
f 127/188/266 128/187/265 134/195/277 133/196/278
s 2
f 128/187/268 129/190/267 135/197/279 134/195/280
s 3
f 129/190/270 130/191/269 136/198/281 135/197/282
s 4
f 130/191/272 131/192/271 137/199/283 136/198/284
s 5
f 131/192/274 132/194/273 138/200/285 137/199/286
s 6
f 132/194/276 127/188/275 133/196/287 138/200/288
s 1
f 133/196/278 134/195/277 139/201/289
s 2
f 134/195/280 135/197/279 139/201/290
s 3
f 135/197/282 136/198/281 139/201/291
s 4
f 136/198/284 137/199/283 139/201/292
s 5
f 137/199/286 138/200/285 139/201/293
s 6
f 138/200/288 133/196/287 139/201/294
s off
f 142/202/295 143/203/296 145/204/297 144/205/298
f 144/205/299 145/206/300 147/207/301 146/208/302
f 146/208/303 147/209/304 141/210/305 140/211/306
f 141/210/307 147/209/308 145/212/309 143/213/310
f 146/208/311 140/211/312 142/202/313 144/205/314
f 148/214/315 149/215/316 151/216/317 150/217/318
