# This file uses centimeters as units for non-parametric coordinates.

mtllib Rayo.mtl
g default
v 0.045519 2.594795 0.823741
v 0.045519 2.594795 -0.112648
v 0.045519 3.724900 1.047589
v 0.045519 3.705976 -1.047589
v -0.459561 3.724900 1.047589
v -0.459561 3.705976 -1.047589
v -0.459561 2.594795 0.823742
v -0.459561 2.594795 -0.112648
v 0.045519 3.724900 -0.112648
v -0.459561 3.724900 -0.112648
v -0.459561 1.521662 0.614596
v -0.459561 1.651989 0.054040
v 0.045519 1.651989 0.054040
v 0.045519 1.521662 0.614596
v -0.459561 2.776004 -1.023753
v 0.045519 2.776004 -1.023753
v 0.045519 1.651989 -0.926096
v -0.459561 1.651989 -0.926096
v -0.459561 0.080243 0.672708
v 0.045519 0.080243 0.672708
vt 0.542932 0.098544
vt 0.542615 0.038741
vt 0.714557 0.037831
vt 0.714874 0.097633
vt 0.096545 0.731337
vt 0.183612 0.742496
vt 0.137324 0.943352
vt 0.052697 0.925911
vt 0.121931 0.552817
vt 0.214739 0.550320
vt 0.432626 0.039323
vt 0.432942 0.099125
vt 0.299355 0.099832
vt 0.299039 0.040029
vt 0.033897 0.101235
vt 0.033581 0.041433
vt 0.200127 0.446862
vt 0.110072 0.454607
vt 0.108083 0.150605
vt 0.195454 0.155300
vt 0.962970 0.096317
vt 0.825595 0.097046
vt 0.825278 0.037243
vt 0.962653 0.036514
vt 0.346396 0.752647
vt 0.333702 0.951184
vt 0.321663 0.575074
vt 0.498515 0.962358
vt 0.491743 0.601398
vt 0.509178 0.788949
vt 0.276061 0.287626
vt 0.972973 0.957874
vt 0.739387 0.956856
vt 0.740379 0.729336
vt 0.928899 0.730158
vt 0.551175 0.952225
vt 0.774766 0.539671
vt 0.887735 0.513925
vt 0.556791 0.765018
vt 0.577439 0.538810
vt 0.900700 0.223780
vn 1.000000 -0.000000 -0.000000
vn 1.000000 -0.000000 -0.000000
vn 1.000000 -0.000000 -0.000000
vn 1.000000 -0.000000 -0.000000
vn 0.000000 1.000000 0.000000
vn -0.000000 0.999959 -0.009031
vn -0.000000 0.999959 -0.009031
vn 0.000000 1.000000 0.000000
vn -1.000000 0.000000 -0.000000
vn -1.000000 0.000000 -0.000000
vn -1.000000 0.000000 -0.000000
vn -1.000000 0.000000 -0.000000
vn 0.000000 -0.974021 -0.226458
vn 0.000000 -0.974021 -0.226458
vn 0.000000 -0.974021 -0.226458
vn 0.000000 -0.974021 -0.226458
vn 0.000000 -0.643817 -0.765179
vn 0.000000 -0.643817 -0.765179
vn 0.000000 -0.643817 -0.765179
vn 0.000000 -0.643817 -0.765179
vn 0.000000 -0.194302 0.980942
vn 0.000000 -0.194302 0.980942
vn 0.000000 -0.194302 0.980942
vn 0.000000 -0.194302 0.980942
vn 1.000000 0.000000 -0.000000
vn -0.000000 0.999795 -0.020236
vn -0.000000 0.999795 -0.020236
vn -1.000000 0.000000 -0.000000
vn -1.000000 -0.000000 0.000000
vn -1.000000 -0.000000 0.000000
vn -1.000000 -0.000000 0.000000
vn -1.000000 -0.000000 0.000000
vn 0.000000 -0.086556 -0.996247
vn 0.000000 -0.086556 -0.996247
vn 0.000000 -0.086556 -0.996247
vn 0.000000 -0.086556 -0.996247
vn 1.000000 0.000000 0.000000
vn 1.000000 0.000000 0.000000
vn 1.000000 0.000000 0.000000
vn 1.000000 0.000000 0.000000
vn 0.000000 -0.191293 0.981533
vn 0.000000 -0.191293 0.981533
vn 0.000000 -0.191293 0.981533
vn 0.000000 -0.191293 0.981533
vn -0.000000 0.980790 0.195068
vn -0.000000 0.980790 0.195068
vn -0.000000 0.980790 0.195068
vn -0.000000 0.980790 0.195068
vn 1.000000 -0.000000 -0.000000
vn 1.000000 -0.000000 -0.000000
vn 1.000000 -0.000000 -0.000000
vn 1.000000 -0.000000 -0.000000
vn -1.000000 0.000000 -0.000000
vn -1.000000 0.000000 -0.000000
vn -1.000000 0.000000 -0.000000
vn -1.000000 0.000000 -0.000000
vn -0.000000 0.366265 0.930510
vn -0.000000 0.366265 0.930511
vn -0.000000 0.366265 0.930510
vn -0.000000 0.366265 0.930511
vn -1.000000 -0.000000 0.000000
vn -1.000000 -0.000000 0.000000
vn -1.000000 -0.000000 0.000000
vn 0.000000 -0.713115 -0.701047
vn 0.000000 -0.713115 -0.701047
vn 0.000000 -0.713115 -0.701047
vn 0.000000 -0.713115 -0.701047
vn 1.000000 -0.000000 -0.000000
vn 1.000000 -0.000000 -0.000000
vn 1.000000 -0.000000 -0.000000
s 1
g pCube2
usemtl initialShadingGroup
f 1/6/1 2/25/2 9/26/3 3/7/4
s 2
f 3/21/5 9/22/6 10/23/7 5/24/8
s 3
f 5/32/9 10/33/10 8/34/11 7/35/12
s off
f 11/9/13 12/18/14 13/17/15 14/10/16
f 2/1/17 8/2/18 6/3/19 4/4/20
f 7/5/21 1/6/22 3/7/23 5/8/24
s 1
f 9/26/3 2/25/2 4/28/25
s 2
f 10/23/7 9/22/6 4/4/26 6/3/27
s 3
f 8/34/11 10/33/10 6/36/28
s off
f 7/35/29 8/34/30 12/37/31 11/38/32
f 15/11/33 16/12/34 17/13/35 18/14/36
f 2/25/37 1/6/38 14/10/39 13/27/40
f 1/6/41 7/5/42 11/9/43 14/10/44
f 8/2/45 2/1/46 16/12/47 15/11/48
f 2/25/49 13/27/50 17/29/51 16/30/52
f 12/37/53 8/34/54 15/39/55 18/40/56
f 13/17/57 12/18/58 19/19/59 20/20/60
f 12/37/61 18/40/62 19/41/63
f 18/14/64 17/13/65 20/15/66 19/16/67
f 17/29/68 13/27/69 20/31/70
